<svg width="124" height="24" viewBox="0 0 124 24" fill="none" xmlns="http://www.w3.org/2000/svg">
<path d="M5.15887 12.9149C4.39071 12.6503 3.69239 12.3858 3.0639 12.1212C2.4354 11.839 1.8942 11.5039 1.44029 11.1159C0.986382 10.7279 0.628491 10.2693 0.36662 9.74019C0.122207 9.19343 0 8.53203 0 7.75599C0 6.25682 0.567388 5.05748 1.70216 4.15797C2.8544 3.25847 4.46054 2.80872 6.5206 2.80872C7.2713 2.80872 7.96962 2.86163 8.61557 2.96745C9.26152 3.07328 9.81145 3.24083 10.2654 3.47012C10.7367 3.68177 11.1033 3.96396 11.3652 4.31671C11.6271 4.65182 11.758 5.04866 11.758 5.50723C11.758 5.9658 11.6533 6.36264 11.4438 6.69775C11.2343 7.01522 10.9811 7.2886 10.6844 7.51788C10.3003 7.27096 9.78526 7.05931 9.13931 6.88294C8.49336 6.68893 7.78631 6.59192 7.01815 6.59192C6.23254 6.59192 5.65642 6.70657 5.2898 6.93585C4.92318 7.1475 4.73987 7.42088 4.73987 7.75599C4.73987 8.02055 4.85335 8.24101 5.08031 8.41739C5.30726 8.57612 5.64769 8.72604 6.1016 8.86714L7.48952 9.31689C9.13058 9.84601 10.3876 10.525 11.2605 11.354C12.1508 12.1653 12.596 13.2765 12.596 14.6875C12.596 16.1866 12.0112 17.4036 10.8415 18.3384C9.67178 19.2555 7.95216 19.7141 5.68261 19.7141C4.87954 19.7141 4.12884 19.6435 3.43052 19.5024C2.74965 19.379 2.14735 19.1938 1.6236 18.9469C1.11732 18.6823 0.715782 18.3648 0.418994 17.9945C0.139665 17.6064 0 17.1655 0 16.6717C0 16.1602 0.148394 15.7281 0.445181 15.3753C0.741969 15.0049 1.06494 14.7227 1.41411 14.5287C1.90293 14.9167 2.49651 15.2519 3.19483 15.534C3.91061 15.8162 4.6875 15.9573 5.52549 15.9573C6.38093 15.9573 6.98324 15.8251 7.3324 15.5605C7.68156 15.2959 7.85614 14.9873 7.85614 14.6345C7.85614 14.2818 7.71648 14.0172 7.43715 13.8409C7.15782 13.6469 6.76501 13.4617 6.25873 13.2853L5.15887 12.9149Z" fill="#222222"/>
<path d="M15.1566 2.86163C15.1566 2.19141 15.3749 1.62702 15.8113 1.16845C16.2652 0.709876 16.8588 0.480591 17.592 0.480591C18.3253 0.480591 18.9101 0.709876 19.3466 1.16845C19.8005 1.62702 20.0274 2.19141 20.0274 2.86163C20.0274 3.53185 19.8005 4.09624 19.3466 4.55481C18.9101 5.01338 18.3253 5.24267 17.592 5.24267C16.8588 5.24267 16.2652 5.01338 15.8113 4.55481C15.3749 4.09624 15.1566 3.53185 15.1566 2.86163ZM19.8179 19.2643C19.6259 19.2996 19.3378 19.3437 18.9538 19.3966C18.5871 19.4672 18.2118 19.5024 17.8277 19.5024C17.4436 19.5024 17.0945 19.476 16.7802 19.4231C16.4834 19.3702 16.2303 19.2643 16.0208 19.1056C15.8113 18.9469 15.6455 18.7352 15.5232 18.4707C15.4185 18.1885 15.3661 17.8269 15.3661 17.386V6.61838C15.5582 6.58311 15.8375 6.53901 16.2041 6.4861C16.5882 6.41555 16.9723 6.38028 17.3563 6.38028C17.7404 6.38028 18.0809 6.40673 18.3776 6.45965C18.6919 6.51256 18.9538 6.61838 19.1633 6.77712C19.3728 6.93585 19.5299 7.15632 19.6346 7.43852C19.7568 7.70308 19.8179 8.05582 19.8179 8.49676V19.2643Z" fill="#222222"/>
<path d="M29.2774 6.03635C29.9932 6.03635 30.6915 6.14217 31.3724 6.35382C32.0707 6.54783 32.673 6.84767 33.1793 7.25333C33.7031 6.90058 34.2879 6.60956 34.9339 6.38028C35.5973 6.15099 36.3916 6.03635 37.3169 6.03635C37.9803 6.03635 38.6262 6.12454 39.2547 6.30091C39.9007 6.47728 40.4681 6.75948 40.9569 7.1475C41.4632 7.51788 41.8647 8.02055 42.1615 8.65549C42.4583 9.2728 42.6067 10.0312 42.6067 10.9307V19.2643C42.4321 19.3173 42.1528 19.3702 41.7687 19.4231C41.4021 19.476 41.018 19.5024 40.6165 19.5024C40.2324 19.5024 39.8832 19.476 39.569 19.4231C39.2722 19.3702 39.019 19.2643 38.8095 19.1056C38.6 18.9469 38.4342 18.7352 38.312 18.4707C38.2072 18.1885 38.1549 17.8269 38.1549 17.386V11.063C38.1549 10.5339 38.0065 10.1547 37.7097 9.92538C37.4129 9.67846 37.0114 9.555 36.5051 9.555C36.2607 9.555 35.9988 9.61673 35.7195 9.74019C35.4401 9.84601 35.2306 9.96065 35.091 10.0841C35.1084 10.1547 35.1172 10.2252 35.1172 10.2958C35.1172 10.3487 35.1172 10.4016 35.1172 10.4545V19.2643C34.9251 19.3173 34.6371 19.3702 34.253 19.4231C33.8864 19.476 33.511 19.5024 33.1269 19.5024C32.7429 19.5024 32.3937 19.476 32.0795 19.4231C31.7827 19.3702 31.5295 19.2643 31.32 19.1056C31.1105 18.9469 30.9447 18.7352 30.8225 18.4707C30.7177 18.1885 30.6653 17.8269 30.6653 17.386V11.063C30.6653 10.5339 30.4995 10.1547 30.1678 9.92538C29.8535 9.67846 29.4695 9.555 29.0156 9.555C28.7013 9.555 28.4307 9.60791 28.2038 9.71373C27.9768 9.80192 27.7848 9.8901 27.6276 9.97829V19.2643C27.4531 19.3173 27.1737 19.3702 26.7896 19.4231C26.423 19.476 26.0389 19.5024 25.6374 19.5024C25.2533 19.5024 24.9042 19.476 24.5899 19.4231C24.2931 19.3702 24.04 19.2643 23.8305 19.1056C23.621 18.9469 23.4552 18.7352 23.3329 18.4707C23.2282 18.1885 23.1758 17.8269 23.1758 17.386V9.39626C23.1758 8.92005 23.2718 8.54085 23.4639 8.25865C23.6734 7.97646 23.9527 7.71189 24.3019 7.46497C24.8954 7.04168 25.6287 6.69775 26.5016 6.43319C27.392 6.16863 28.3172 6.03635 29.2774 6.03635Z" fill="#222222"/>
<path d="M51.6858 6.03635C52.7333 6.03635 53.7023 6.17745 54.5926 6.45965C55.5004 6.7242 56.2773 7.13868 56.9233 7.70308C57.5692 8.26747 58.0755 8.98178 58.4421 9.84601C58.8087 10.6926 58.9921 11.7068 58.9921 12.8885C58.9921 14.0172 58.8349 15.0049 58.5207 15.8515C58.2064 16.6981 57.7613 17.4124 57.1851 17.9945C56.609 18.5589 55.9107 18.9821 55.0902 19.2643C54.2871 19.5465 53.388 19.6876 52.3929 19.6876C51.6422 19.6876 50.9439 19.573 50.2979 19.3437V23.7354C50.1233 23.7883 49.844 23.8412 49.4599 23.8941C49.0759 23.9647 48.6831 24 48.2815 24C47.8974 24 47.5483 23.9735 47.234 23.9206C46.9372 23.8677 46.6841 23.7619 46.4746 23.6031C46.2651 23.4444 46.108 23.2239 46.0032 22.9417C45.8985 22.6772 45.8461 22.3244 45.8461 21.8835V9.18461C45.8461 8.7084 45.9421 8.32038 46.1342 8.02055C46.3437 7.72071 46.623 7.44734 46.9722 7.20041C47.5134 6.84767 48.1855 6.56547 48.9886 6.35382C49.7916 6.14217 50.6907 6.03635 51.6858 6.03635ZM51.7382 16.1425C53.5364 16.1425 54.4355 15.0578 54.4355 12.8885C54.4355 11.7597 54.2085 10.9219 53.7546 10.3751C53.3182 9.82837 52.681 9.555 51.843 9.555C51.5113 9.555 51.2145 9.59909 50.9526 9.68728C50.6907 9.75783 50.4638 9.84601 50.2717 9.95184V15.7722C50.4812 15.878 50.7082 15.9662 50.9526 16.0367C51.197 16.1073 51.4589 16.1425 51.7382 16.1425Z" fill="#222222"/>
<path d="M66.2187 19.2643C66.0266 19.2996 65.7386 19.3437 65.3545 19.3966C64.9879 19.4672 64.6125 19.5024 64.2285 19.5024C63.8444 19.5024 63.4952 19.476 63.181 19.4231C62.8842 19.3702 62.631 19.2643 62.4216 19.1056C62.2121 18.9469 62.0462 18.7352 61.924 18.4707C61.8192 18.1885 61.7669 17.8269 61.7669 17.386V2.04149C61.9589 2.00622 62.2382 1.96213 62.6049 1.90921C62.9889 1.83867 63.373 1.80339 63.7571 1.80339C64.1412 1.80339 64.4816 1.82985 64.7784 1.88276C65.0926 1.93567 65.3545 2.04149 65.564 2.20023C65.7735 2.35897 65.9306 2.57943 66.0354 2.86163C66.1576 3.12619 66.2187 3.47894 66.2187 3.91987V19.2643Z" fill="#222222"/>
<path d="M76.2817 19.7141C75.2517 19.7141 74.2915 19.573 73.4011 19.2908C72.5282 18.991 71.7601 18.55 71.0967 17.968C70.4507 17.386 69.9357 16.654 69.5516 15.7722C69.185 14.8903 69.0017 13.8585 69.0017 12.6768C69.0017 11.5127 69.185 10.5162 69.5516 9.68728C69.9357 8.84069 70.4332 8.15283 71.0443 7.62371C71.6553 7.07695 72.3536 6.68011 73.1393 6.43319C73.9249 6.16863 74.7279 6.03635 75.5485 6.03635C76.4738 6.03635 77.3117 6.17745 78.0624 6.45965C78.8306 6.74184 79.4853 7.12986 80.0265 7.62371C80.5851 8.11755 81.0129 8.70841 81.3096 9.39626C81.6239 10.0841 81.781 10.8337 81.781 11.645C81.781 12.2447 81.6152 12.7033 81.2835 13.0207C80.9518 13.3382 80.4891 13.541 79.8955 13.6292L73.4273 14.6081C73.6194 15.1901 74.0122 15.6311 74.6057 15.9309C75.1993 16.2131 75.8802 16.3542 76.6483 16.3542C77.3641 16.3542 78.0362 16.266 78.6647 16.0896C79.3107 15.8956 79.8344 15.6751 80.236 15.4282C80.5153 15.6046 80.751 15.8515 80.943 16.169C81.1351 16.4865 81.2311 16.8216 81.2311 17.1743C81.2311 17.968 80.8645 18.5589 80.1312 18.9469C79.5726 19.2467 78.9441 19.4495 78.2457 19.5554C77.5474 19.6612 76.8927 19.7141 76.2817 19.7141ZM75.5485 9.31689C75.1295 9.31689 74.7629 9.38744 74.4486 9.52854C74.1518 9.66964 73.9074 9.85483 73.7154 10.0841C73.5233 10.2958 73.3749 10.5427 73.2702 10.8249C73.1829 11.0894 73.1305 11.3628 73.1131 11.645L77.5911 10.9043C77.5387 10.5515 77.3467 10.1988 77.0149 9.84601C76.6832 9.49327 76.1944 9.31689 75.5485 9.31689Z" fill="#222222"/>
<path d="M93.9325 3.73468C94.2292 3.5583 94.6744 3.39075 95.268 3.23201C95.879 3.07328 96.4901 2.99391 97.1011 2.99391C97.974 2.99391 98.7422 3.12619 99.4056 3.39075C100.086 3.63767 100.523 4.03451 100.715 4.58127C101.029 5.49841 101.37 6.56547 101.736 7.78244C102.103 8.99942 102.469 10.2605 102.836 11.5657C103.203 12.8532 103.561 14.1319 103.91 15.4018C104.259 16.654 104.564 17.7652 104.826 18.7352C104.617 18.9821 104.303 19.1762 103.884 19.3173C103.465 19.476 102.967 19.5554 102.391 19.5554C101.972 19.5554 101.614 19.5201 101.317 19.4495C101.038 19.379 100.802 19.2732 100.61 19.1321C100.436 18.991 100.287 18.8058 100.165 18.5765C100.06 18.3472 99.9642 18.0826 99.8769 17.7828L99.4056 15.9573H94.6657C94.526 16.4865 94.3864 17.0332 94.2467 17.5976C94.107 18.162 93.9674 18.7088 93.8277 19.2379C93.5833 19.3261 93.3214 19.3966 93.0421 19.4495C92.7802 19.5201 92.4573 19.5554 92.0732 19.5554C91.1828 19.5554 90.5194 19.4054 90.0829 19.1056C89.664 18.7881 89.4545 18.356 89.4545 17.8093C89.4545 17.5623 89.4894 17.3154 89.5592 17.0685C89.629 16.8216 89.7076 16.5306 89.7949 16.1954C89.9171 15.7192 90.0829 15.1284 90.2924 14.4229C90.5194 13.7174 90.7638 12.959 91.0257 12.1477C91.2876 11.3187 91.5669 10.4721 91.8637 9.60791C92.1605 8.74368 92.4398 7.93236 92.7017 7.17396C92.9635 6.39791 93.1992 5.71006 93.4087 5.11039C93.6357 4.51072 93.8102 4.05215 93.9325 3.73468ZM97.0749 7.1475C96.8305 7.88827 96.5512 8.71722 96.2369 9.63436C95.9401 10.5339 95.6695 11.451 95.4251 12.3858H98.6723C98.4279 11.4334 98.1748 10.5074 97.9129 9.60791C97.6685 8.69077 97.4415 7.87063 97.232 7.1475H97.0749Z" fill="#222222"/>
<path d="M107.051 2.86163C107.051 2.19141 107.269 1.62702 107.706 1.16845C108.16 0.709876 108.753 0.480591 109.486 0.480591C110.22 0.480591 110.804 0.709876 111.241 1.16845C111.695 1.62702 111.922 2.19141 111.922 2.86163C111.922 3.53185 111.695 4.09624 111.241 4.55481C110.804 5.01338 110.22 5.24267 109.486 5.24267C108.753 5.24267 108.16 5.01338 107.706 4.55481C107.269 4.09624 107.051 3.53185 107.051 2.86163ZM111.712 19.2643C111.52 19.2996 111.232 19.3437 110.848 19.3966C110.482 19.4672 110.106 19.5024 109.722 19.5024C109.338 19.5024 108.989 19.476 108.675 19.4231C108.378 19.3702 108.125 19.2643 107.915 19.1056C107.706 18.9469 107.54 18.7352 107.418 18.4707C107.313 18.1885 107.26 17.8269 107.26 17.386V6.61838C107.453 6.58311 107.732 6.53901 108.098 6.4861C108.483 6.41555 108.867 6.38028 109.251 6.38028C109.635 6.38028 109.975 6.40673 110.272 6.45965C110.586 6.51256 110.848 6.61838 111.058 6.77712C111.267 6.93585 111.424 7.15632 111.529 7.43852C111.651 7.70308 111.712 8.05582 111.712 8.49676V19.2643Z" fill="#222222"/>
<path d="M119.522 19.2643C119.347 19.3173 119.068 19.3702 118.684 19.4231C118.317 19.476 117.933 19.5024 117.532 19.5024C117.148 19.5024 116.799 19.476 116.484 19.4231C116.187 19.3702 115.934 19.2643 115.725 19.1056C115.515 18.9469 115.35 18.7352 115.227 18.4707C115.123 18.1885 115.07 17.8269 115.07 17.386V9.44917C115.07 9.04351 115.14 8.69959 115.28 8.41739C115.437 8.11755 115.655 7.85299 115.934 7.62371C116.214 7.39442 116.554 7.19159 116.956 7.01522C117.375 6.82121 117.82 6.65366 118.291 6.51256C118.763 6.37146 119.251 6.26563 119.758 6.19508C120.264 6.1069 120.77 6.06281 121.277 6.06281C122.115 6.06281 122.778 6.23036 123.267 6.56547C123.756 6.88294 124 7.41206 124 8.15283C124 8.39975 123.965 8.64667 123.895 8.8936C123.825 9.12288 123.738 9.33453 123.633 9.52854C123.267 9.52854 122.891 9.54618 122.507 9.58145C122.123 9.61673 121.748 9.66964 121.381 9.74019C121.015 9.81074 120.666 9.8901 120.334 9.97829C120.02 10.0488 119.749 10.137 119.522 10.2429V19.2643Z" fill="#222222"/>
<ellipse cx="109.484" cy="2.6456" rx="2.61871" ry="2.6456" fill="#773BF8"/>
<path fill-rule="evenodd" clip-rule="evenodd" d="M3.0639 12.1234C3.69239 12.388 4.39071 12.6525 5.15887 12.9171L6.25873 13.2875C6.39696 13.3356 6.52673 13.3845 6.64805 13.4339C6.91837 13.5634 7.22067 13.6358 7.53971 13.6358C8.69071 13.6358 9.62377 12.6932 9.62377 11.5304C9.62377 10.4895 8.87608 9.62496 7.89367 9.45516C7.76165 9.40875 7.62693 9.36339 7.48952 9.31909L6.1016 8.86934C5.64769 8.72824 5.30726 8.57832 5.08031 8.41958C4.85335 8.24321 4.73987 8.02274 4.73987 7.75818C4.73987 7.42307 4.92318 7.1497 5.2898 6.93805C5.65642 6.70876 6.23254 6.59412 7.01815 6.59412C7.78631 6.59412 8.49336 6.69113 9.13931 6.88514C9.78526 7.06151 10.3003 7.27316 10.6844 7.52008C10.9811 7.29079 11.2343 7.01742 11.4438 6.69994C11.6533 6.36484 11.758 5.96799 11.758 5.50942C11.758 5.05085 11.6271 4.65401 11.3652 4.3189C11.1033 3.96616 10.7367 3.68396 10.2654 3.47231C9.81145 3.24303 9.26152 3.07547 8.61557 2.96965C7.96962 2.86383 7.2713 2.81091 6.5206 2.81091C4.46054 2.81091 2.8544 3.26066 1.70216 4.16017C0.567388 5.05967 0 6.25901 0 7.75818C0 8.53423 0.122207 9.19563 0.36662 9.74238C0.628491 10.2715 0.986382 10.7301 1.44029 11.1181C1.8942 11.5061 2.4354 11.8412 3.0639 12.1234Z" fill="#773BF8"/>
</svg>
