<svg width="167" height="32" viewBox="0 0 167 32" fill="none" xmlns="http://www.w3.org/2000/svg">
<path d="M6.94783 17.2199C5.9133 16.8672 4.97281 16.5144 4.12638 16.1617C3.27994 15.7854 2.55106 15.3386 1.93975 14.8212C1.32843 14.3039 0.846436 13.6924 0.493754 12.9869C0.164585 12.2579 0 11.3761 0 10.3413C0 8.34244 0.764144 6.74332 2.29243 5.54399C3.84423 4.34465 6.00734 3.74498 8.78177 3.74498C9.79279 3.74498 10.7333 3.81553 11.6032 3.95663C12.4732 4.09773 13.2138 4.32113 13.8251 4.62684C14.4599 4.90904 14.9537 5.2853 15.3064 5.75563C15.6591 6.20244 15.8354 6.73156 15.8354 7.34299C15.8354 7.95442 15.6943 8.48354 15.4122 8.93035C15.13 9.35365 14.7891 9.71815 14.3894 10.0239C13.8721 9.69464 13.1785 9.41244 12.3086 9.17728C11.4386 8.91859 10.4864 8.78925 9.45187 8.78925C8.39382 8.78925 7.61792 8.94211 7.12417 9.24782C6.63042 9.53002 6.38354 9.89453 6.38354 10.3413C6.38354 10.6941 6.53637 10.988 6.84202 11.2232C7.14768 11.4349 7.60617 11.6347 8.21748 11.8229L10.0867 12.4225C12.2968 13.128 13.9897 14.0334 15.1653 15.1387C16.3644 16.2204 16.964 17.702 16.964 19.5833C16.964 21.5822 16.1763 23.2048 14.601 24.4512C13.0257 25.6741 10.7098 26.2855 7.65319 26.2855C6.57164 26.2855 5.56061 26.1914 4.62013 26.0033C3.70316 25.8387 2.89199 25.5917 2.18663 25.2625C1.50478 24.9098 0.963997 24.4865 0.564291 23.9926C0.188097 23.4753 0 22.8874 0 22.2289C0 21.5469 0.199853 20.9708 0.599559 20.5004C0.999265 20.0066 1.43424 19.6303 1.90448 19.3717C2.56282 19.889 3.36223 20.3358 4.30272 20.7121C5.26671 21.0884 6.313 21.2765 7.44158 21.2765C8.59368 21.2765 9.40484 21.1001 9.87509 20.7474C10.3453 20.3946 10.5804 19.9831 10.5804 19.5127C10.5804 19.0424 10.3924 18.6897 10.0162 18.4545C9.63997 18.1958 9.11094 17.9489 8.42909 17.7137L6.94783 17.2199Z" fill="white"/>
<path d="M20.4126 3.81553C20.4126 2.9219 20.7065 2.16938 21.2943 1.55795C21.9056 0.946521 22.705 0.640808 23.6925 0.640808C24.68 0.640808 25.4677 0.946521 26.0555 1.55795C26.6668 2.16938 26.9724 2.9219 26.9724 3.81553C26.9724 4.70915 26.6668 5.46168 26.0555 6.0731C25.4677 6.68453 24.68 6.99025 23.6925 6.99025C22.705 6.99025 21.9056 6.68453 21.2943 6.0731C20.7065 5.46168 20.4126 4.70915 20.4126 3.81553ZM26.6903 25.6858C26.4317 25.7328 26.0437 25.7916 25.5264 25.8622C25.0327 25.9563 24.5272 26.0033 24.0099 26.0033C23.4926 26.0033 23.0224 25.968 22.5992 25.8975C22.1995 25.8269 21.8585 25.6858 21.5764 25.4742C21.2943 25.2625 21.0709 24.9803 20.9063 24.6276C20.7652 24.2513 20.6947 23.7692 20.6947 23.1813V8.82453C20.9533 8.7775 21.3295 8.7187 21.8233 8.64815C22.3405 8.55409 22.8578 8.50706 23.3751 8.50706C23.8923 8.50706 24.3508 8.54233 24.7505 8.61288C25.1738 8.68343 25.5264 8.82453 25.8086 9.03618C26.0907 9.24782 26.3023 9.54178 26.4434 9.91804C26.608 10.2708 26.6903 10.7411 26.6903 11.329V25.6858Z" fill="white"/>
<path d="M39.4301 8.04849C40.3941 8.04849 41.3346 8.18958 42.2515 8.47178C43.192 8.73046 44.0032 9.13024 44.685 9.67112C45.3904 9.20079 46.1781 8.81277 47.048 8.50706C47.9415 8.20134 49.0113 8.04849 50.2574 8.04849C51.1509 8.04849 52.0208 8.16607 52.8673 8.40123C53.7372 8.6364 54.5013 9.01266 55.1597 9.53002C55.8415 10.0239 56.3823 10.6941 56.782 11.5407C57.1817 12.3638 57.3816 13.375 57.3816 14.5743V25.6858C57.1465 25.7564 56.7703 25.8269 56.253 25.8975C55.7592 25.968 55.242 26.0033 54.7012 26.0033C54.1839 26.0033 53.7137 25.968 53.2905 25.8975C52.8908 25.8269 52.5498 25.6858 52.2677 25.4742C51.9855 25.2625 51.7622 24.9803 51.5976 24.6276C51.4565 24.2513 51.386 23.7692 51.386 23.1813V14.7507C51.386 14.0452 51.1861 13.5396 50.7864 13.2339C50.3867 12.9046 49.8459 12.74 49.1641 12.74C48.8349 12.74 48.4822 12.8223 48.1061 12.9869C47.7299 13.128 47.4477 13.2809 47.2596 13.4455C47.2831 13.5396 47.2949 13.6336 47.2949 13.7277C47.2949 13.7983 47.2949 13.8688 47.2949 13.9394V25.6858C47.0363 25.7564 46.6483 25.8269 46.131 25.8975C45.6373 25.968 45.1318 26.0033 44.6145 26.0033C44.0972 26.0033 43.627 25.968 43.2038 25.8975C42.8041 25.8269 42.4631 25.6858 42.181 25.4742C41.8989 25.2625 41.6755 24.9803 41.5109 24.6276C41.3698 24.2513 41.2993 23.7692 41.2993 23.1813V14.7507C41.2993 14.0452 41.0759 13.5396 40.6292 13.2339C40.206 12.9046 39.6887 12.74 39.0774 12.74C38.6542 12.74 38.2897 12.8106 37.9841 12.9517C37.6784 13.0692 37.4198 13.1868 37.2082 13.3044V25.6858C36.9731 25.7564 36.5969 25.8269 36.0796 25.8975C35.5859 25.968 35.0686 26.0033 34.5278 26.0033C34.0105 26.0033 33.5403 25.968 33.1171 25.8975C32.7174 25.8269 32.3764 25.6858 32.0943 25.4742C31.8122 25.2625 31.5888 24.9803 31.4242 24.6276C31.2831 24.2513 31.2126 23.7692 31.2126 23.1813V12.5284C31.2126 11.8934 31.3419 11.3878 31.6005 11.0116C31.8827 10.6353 32.2589 10.2825 32.7291 9.95332C33.5285 9.38892 34.516 8.93035 35.6917 8.57761C36.8908 8.22486 38.1369 8.04849 39.4301 8.04849Z" fill="white"/>
<path d="M69.6092 8.04849C71.0199 8.04849 72.3248 8.23662 73.5239 8.61288C74.7466 8.96563 75.7928 9.51826 76.6628 10.2708C77.5327 11.0233 78.2146 11.9757 78.7083 13.128C79.2021 14.2568 79.449 15.609 79.449 17.1846C79.449 18.6897 79.2374 20.0066 78.8142 21.1354C78.3909 22.2642 77.7914 23.2166 77.0155 23.9926C76.2396 24.7452 75.2991 25.3096 74.194 25.6858C73.1125 26.0621 71.9016 26.2502 70.5614 26.2502C69.5504 26.2502 68.6099 26.0974 67.7399 25.7916V31.6472C67.5048 31.7178 67.1286 31.7883 66.6114 31.8589C66.0941 31.9529 65.5651 32 65.0243 32C64.507 32 64.0368 31.9647 63.6136 31.8942C63.2139 31.8236 62.8729 31.6825 62.5908 31.4709C62.3087 31.2592 62.097 30.9653 61.956 30.589C61.8149 30.2362 61.7444 29.7659 61.7444 29.178V12.2462C61.7444 11.6112 61.8737 11.0939 62.1323 10.6941C62.4145 10.2943 62.7906 9.9298 63.2609 9.60057C63.9898 9.13024 64.895 8.75398 65.9765 8.47178C67.0581 8.18958 68.269 8.04849 69.6092 8.04849ZM69.6797 21.5234C72.1014 21.5234 73.3123 20.0771 73.3123 17.1846C73.3123 15.6796 73.0067 14.5625 72.3953 13.8335C71.8075 13.1045 70.9494 12.74 69.8208 12.74C69.374 12.74 68.9743 12.7988 68.6217 12.9164C68.269 13.0105 67.9633 13.128 67.7047 13.2691V21.0296C67.9868 21.1707 68.2925 21.2882 68.6217 21.3823C68.9508 21.4764 69.3035 21.5234 69.6797 21.5234Z" fill="white"/>
<path d="M89.1816 25.6858C88.923 25.7328 88.535 25.7916 88.0178 25.8622C87.524 25.9563 87.0185 26.0033 86.5012 26.0033C85.984 26.0033 85.5137 25.968 85.0905 25.8975C84.6908 25.8269 84.3499 25.6858 84.0677 25.4742C83.7856 25.2625 83.5622 24.9803 83.3976 24.6276C83.2566 24.2513 83.186 23.7692 83.186 23.1813V2.72201C83.4447 2.67498 83.8209 2.61619 84.3146 2.54564C84.8319 2.45157 85.3491 2.40454 85.8664 2.40454C86.3837 2.40454 86.8422 2.43982 87.2419 2.51036C87.6651 2.58091 88.0178 2.72201 88.2999 2.93366C88.5821 3.14531 88.7937 3.43926 88.9347 3.81553C89.0993 4.16827 89.1816 4.6386 89.1816 5.22651V25.6858Z" fill="white"/>
<path d="M102.734 26.2855C101.347 26.2855 100.054 26.0974 98.8547 25.7211C97.6791 25.3213 96.6446 24.7334 95.7511 23.9574C94.8812 23.1813 94.1876 22.2054 93.6703 21.0296C93.1766 19.8537 92.9297 18.478 92.9297 16.9024C92.9297 15.3503 93.1766 14.0217 93.6703 12.9164C94.1876 11.7876 94.8577 10.8705 95.6806 10.165C96.5035 9.43596 97.444 8.90684 98.5021 8.57761C99.5601 8.22486 100.642 8.04849 101.747 8.04849C102.993 8.04849 104.121 8.23662 105.132 8.61288C106.167 8.98914 107.049 9.50651 107.778 10.165C108.53 10.8234 109.106 11.6112 109.506 12.5284C109.929 13.4455 110.141 14.445 110.141 15.5267C110.141 16.3263 109.917 16.9377 109.47 17.361C109.024 17.7843 108.401 18.0547 107.601 18.1723L98.89 19.4775C99.1486 20.2535 99.6777 20.8414 100.477 21.2412C101.276 21.6175 102.193 21.8056 103.228 21.8056C104.192 21.8056 105.097 21.688 105.944 21.4529C106.814 21.1942 107.519 20.9002 108.06 20.571C108.436 20.8062 108.753 21.1354 109.012 21.5587C109.271 21.982 109.4 22.4288 109.4 22.8991C109.4 23.9574 108.906 24.7452 107.919 25.2625C107.166 25.6623 106.32 25.9327 105.379 26.0738C104.439 26.2149 103.557 26.2855 102.734 26.2855ZM101.747 12.4225C101.182 12.4225 100.689 12.5166 100.265 12.7047C99.8658 12.8929 99.5366 13.1398 99.278 13.4455C99.0193 13.7277 98.8195 14.0569 98.6784 14.4332C98.5608 14.7859 98.4903 15.1505 98.4668 15.5267L104.498 14.539C104.427 14.0687 104.168 13.5984 103.722 13.128C103.275 12.6577 102.617 12.4225 101.747 12.4225Z" fill="white"/>
<path d="M126.506 4.97959C126.906 4.74443 127.505 4.52102 128.304 4.30937C129.127 4.09772 129.95 3.9919 130.773 3.9919C131.949 3.9919 132.983 4.16827 133.877 4.52102C134.794 4.85025 135.382 5.37937 135.64 6.10838C136.063 7.33123 136.522 8.75398 137.016 10.3766C137.509 11.9992 138.003 13.6807 138.497 15.4209C138.991 17.1376 139.473 18.8425 139.943 20.5357C140.413 22.2054 140.825 23.6869 141.177 24.9803C140.895 25.3096 140.472 25.5682 139.908 25.7564C139.343 25.968 138.673 26.0738 137.897 26.0738C137.333 26.0738 136.851 26.0268 136.451 25.9327C136.075 25.8387 135.758 25.6976 135.499 25.5094C135.264 25.3213 135.064 25.0744 134.9 24.7687C134.759 24.463 134.629 24.1102 134.512 23.7104L133.877 21.2765H127.493C127.305 21.982 127.117 22.711 126.929 23.4635C126.741 24.216 126.553 24.945 126.365 25.6505C126.036 25.7681 125.683 25.8622 125.307 25.9327C124.954 26.0268 124.519 26.0738 124.002 26.0738C122.803 26.0738 121.909 25.8739 121.321 25.4742C120.757 25.0509 120.475 24.4747 120.475 23.7457C120.475 23.4165 120.522 23.0872 120.616 22.758C120.71 22.4288 120.816 22.0408 120.933 21.594C121.098 20.959 121.321 20.1712 121.604 19.2306C121.909 18.2899 122.238 17.2787 122.591 16.1969C122.944 15.0917 123.32 13.9629 123.72 12.8106C124.119 11.6583 124.496 10.5765 124.848 9.5653C125.201 8.53057 125.518 7.61343 125.8 6.81387C126.106 6.01431 126.341 5.40289 126.506 4.97959ZM130.738 9.53002C130.409 10.5177 130.033 11.623 129.609 12.8458C129.21 14.0452 128.845 15.268 128.516 16.5144H132.889C132.56 15.2445 132.219 14.0099 131.867 12.8106C131.537 11.5877 131.232 10.4942 130.95 9.53002H130.738Z" fill="white"/>
<path d="M144.173 3.81553C144.173 2.9219 144.467 2.16938 145.055 1.55795C145.667 0.946521 146.466 0.640808 147.453 0.640808C148.441 0.640808 149.229 0.946521 149.816 1.55795C150.428 2.16938 150.733 2.9219 150.733 3.81553C150.733 4.70915 150.428 5.46168 149.816 6.0731C149.229 6.68453 148.441 6.99025 147.453 6.99025C146.466 6.99025 145.667 6.68453 145.055 6.0731C144.467 5.46168 144.173 4.70915 144.173 3.81553ZM150.451 25.6858C150.193 25.7328 149.805 25.7916 149.287 25.8622C148.794 25.9563 148.288 26.0033 147.771 26.0033C147.254 26.0033 146.783 25.968 146.36 25.8975C145.96 25.8269 145.619 25.6858 145.337 25.4742C145.055 25.2625 144.832 24.9803 144.667 24.6276C144.526 24.2513 144.456 23.7692 144.456 23.1813V8.82453C144.714 8.7775 145.09 8.7187 145.584 8.64815C146.101 8.55409 146.619 8.50706 147.136 8.50706C147.653 8.50706 148.112 8.54233 148.511 8.61288C148.935 8.68343 149.287 8.82453 149.57 9.03618C149.852 9.24782 150.063 9.54178 150.204 9.91804C150.369 10.2708 150.451 10.7411 150.451 11.329V25.6858Z" fill="white"/>
<path d="M160.969 25.6858C160.734 25.7564 160.358 25.8269 159.841 25.8975C159.347 25.968 158.83 26.0033 158.289 26.0033C157.771 26.0033 157.301 25.968 156.878 25.8975C156.478 25.8269 156.137 25.6858 155.855 25.4742C155.573 25.2625 155.35 24.9803 155.185 24.6276C155.044 24.2513 154.974 23.7692 154.974 23.1813V12.5989C154.974 12.058 155.068 11.5995 155.256 11.2232C155.467 10.8234 155.761 10.4707 156.137 10.165C156.514 9.85925 156.972 9.58881 157.513 9.35365C158.077 9.09497 158.677 8.87156 159.312 8.68343C159.946 8.4953 160.605 8.3542 161.287 8.26013C161.968 8.14255 162.65 8.08376 163.332 8.08376C164.461 8.08376 165.354 8.30717 166.012 8.75398C166.671 9.17728 167 9.88277 167 10.8705C167 11.1997 166.953 11.5289 166.859 11.8581C166.765 12.1639 166.647 12.4461 166.506 12.7047C166.012 12.7047 165.507 12.7283 164.99 12.7753C164.472 12.8223 163.967 12.8929 163.473 12.9869C162.979 13.081 162.509 13.1868 162.062 13.3044C161.639 13.3985 161.275 13.5161 160.969 13.6572V25.6858Z" fill="white"/>
<ellipse cx="147.451" cy="3.52747" rx="3.52682" ry="3.52747" fill="#9262F9"/>
<path fill-rule="evenodd" clip-rule="evenodd" d="M4.12638 16.1646C4.97281 16.5174 5.9133 16.8701 6.94783 17.2228L8.42909 17.7167C8.61525 17.7809 8.79002 17.846 8.95339 17.9119C9.31747 18.0846 9.7246 18.1811 10.1543 18.1811C11.7044 18.1811 12.9611 16.9243 12.9611 15.3739C12.9611 13.986 11.9541 12.8333 10.631 12.6069C10.4532 12.545 10.2718 12.4846 10.0867 12.4255L8.21748 11.8258C7.60617 11.6377 7.14768 11.4378 6.84202 11.2262C6.53637 10.991 6.38354 10.697 6.38354 10.3443C6.38354 9.89747 6.63042 9.53297 7.12417 9.25077C7.61792 8.94506 8.39382 8.7922 9.45187 8.7922C10.4864 8.7922 11.4386 8.92154 12.3086 9.18022C13.1785 9.41539 13.8721 9.69758 14.3894 10.0268C14.7891 9.7211 15.13 9.3566 15.4122 8.9333C15.6943 8.48649 15.8354 7.95737 15.8354 7.34594C15.8354 6.73451 15.6591 6.20539 15.3064 5.75858C14.9537 5.28825 14.4599 4.91199 13.8251 4.62979C13.2138 4.32408 12.4732 4.10067 11.6032 3.95957C10.7333 3.81847 9.79279 3.74792 8.78177 3.74792C6.00734 3.74792 3.84423 4.34759 2.29243 5.54693C0.764144 6.74627 0 8.34539 0 10.3443C0 11.379 0.164585 12.2609 0.493754 12.9899C0.846436 13.6954 1.32843 14.3068 1.93975 14.8242C2.55106 15.3415 3.27994 15.7883 4.12638 16.1646Z" fill="#9262F9"/>
</svg>
