<svg width="24" height="24" viewBox="0 0 24 24" fill="none" xmlns="http://www.w3.org/2000/svg">
<rect width="24" height="24" rx="12" fill="white"/>
<path d="M3.75115 6.99415C3.77828 6.65326 3.86001 6.3158 3.99103 6C4.50924 6.65686 5.1389 7.22421 5.84239 7.67627C6.88346 8.34928 8.08216 8.75529 9.3037 8.94051C10.1543 9.07024 11.0203 9.09687 11.8778 9.0278C12.0637 9.01182 12.2495 8.99171 12.4338 8.96147C11.8046 9.29102 11.1367 9.54617 10.4478 9.71868C9.18453 10.0338 7.85533 10.0738 6.5737 9.8484C6.26102 9.79205 5.95005 9.72298 5.64802 9.62367C5.28863 9.50013 4.93886 9.33724 4.63665 9.10426C4.3353 8.87608 4.08444 8.57591 3.93316 8.22798C3.76179 7.8431 3.71131 7.41149 3.75115 6.99415Z" fill="#06A7E0"/>
<path d="M1.03614 10.2306C0.995101 9.87769 0.981364 9.51842 1.03597 9.16602C1.58028 9.52512 2.1404 9.86446 2.7376 10.1287C3.48883 10.4669 4.28539 10.7004 5.09705 10.8387C6.51846 11.0809 7.97438 11.05 9.40128 10.8708C10.9243 10.6796 12.4209 10.3151 13.887 9.86532C13.3784 10.2469 12.8423 10.5906 12.2971 10.917C11.0421 11.6596 9.7119 12.2844 8.31505 12.7088C7.28857 13.0173 6.22175 13.2103 5.14805 13.211C4.37948 13.2063 3.60559 13.1063 2.876 12.8589C2.49584 12.7216 2.1471 12.4959 1.87288 12.1983C1.55144 11.8517 1.32633 11.4223 1.19377 10.9703C1.11633 10.7297 1.06997 10.4806 1.03614 10.2306Z" fill="#06A7E0"/>
<path d="M11.1981 12.585C11.7055 12.2752 12.2014 11.945 12.6721 11.5811C11.9485 12.6647 11.1075 13.679 10.1083 14.5195C9.59267 14.9484 9.03565 15.3315 8.43295 15.6274C8.05879 15.8099 7.66764 15.9624 7.25983 16.0494C6.87074 16.1252 6.46911 16.1485 6.07556 16.0947C5.76081 16.059 5.45036 15.9707 5.17048 15.8212C4.90639 15.6808 4.67458 15.4796 4.50133 15.2356C4.26712 14.908 4.14469 14.5135 4.09009 14.1178C4.63252 14.3106 5.20911 14.3997 5.784 14.3972C6.35441 14.3997 6.92294 14.3193 7.47722 14.1881C8.14036 14.0322 8.78358 13.7999 9.40636 13.5255C10.0233 13.2515 10.6209 12.9346 11.1981 12.585Z" fill="#06A7E0"/>
<path d="M16.9256 7.65284C17.582 7.58668 18.2453 7.57672 18.9019 7.64407C19.2886 7.69046 19.6775 7.7628 20.0347 7.92362C20.2033 8.00146 20.3661 8.10094 20.4914 8.24011C20.6139 8.36777 20.6911 8.53753 20.7066 8.71399C20.7251 8.8877 20.6851 9.06055 20.6314 9.22481C20.4054 9.01296 20.1094 8.89388 19.8134 8.81828C19.5814 8.76176 19.3436 8.73323 19.1054 8.72396C18.8233 9.0688 18.3734 9.2822 17.9252 9.23598C17.6873 9.21295 17.4618 9.10075 17.2928 8.93272C17.2446 8.8865 17.1989 8.83753 17.1531 8.7889C17.5428 8.94251 18.0063 8.90711 18.3562 8.67172C17.7468 8.58358 17.1302 8.55746 16.515 8.55007C15.6146 8.54698 14.7139 8.60162 13.8204 8.71279C13.5307 8.74612 13.2427 8.79286 12.9541 8.83358C13.5376 8.51245 14.1652 8.2786 14.8007 8.08324C15.4947 7.88015 16.204 7.71778 16.9256 7.65284Z" fill="#039482"/>
<path d="M17.141 10.3528C18.3545 9.86943 19.6692 9.5885 20.9792 9.68936C21.4354 9.72785 21.8922 9.81204 22.3167 9.98798C22.5322 10.0806 22.7447 10.2077 22.8764 10.4076C22.9822 10.5656 23.0159 10.7636 22.9935 10.9505C22.9551 11.2412 22.8198 11.5122 22.6427 11.7431C22.6135 11.5771 22.5435 11.4112 22.4156 11.2974C22.2605 11.1515 22.0443 11.0945 21.8376 11.0753C21.4913 11.046 21.1439 11.1029 20.8075 11.1818C20.4024 11.2759 20.0103 11.4163 19.6213 11.5624C18.9548 11.8239 18.3049 12.1287 17.6752 12.4696C16.7222 13.0807 15.7878 13.7211 14.8763 14.3929C14.2177 14.8795 13.5731 15.386 12.953 15.9212C12.5334 16.2843 12.1266 16.6626 11.7427 17.0635C11.4593 17.3638 11.1812 17.674 10.9602 18.0243C11.1453 17.4076 11.3589 16.7979 11.6333 16.2149C11.8081 15.8606 11.994 15.5011 12.2756 15.2187C11.8388 15.5341 11.4384 15.8958 11.0464 16.2644C10.8843 16.4291 10.7153 16.587 10.5567 16.7553C9.82003 17.5188 9.14092 18.3367 8.50337 19.1846C8.30092 19.452 8.10535 19.7245 7.91406 20.0001C8.1014 19.4683 8.29886 18.9392 8.53445 18.4267C9.0676 17.2649 9.80801 16.2077 10.6552 15.2542C10.9549 14.9139 11.2691 14.5864 11.5934 14.2694C12.0085 13.8587 12.44 13.4653 12.884 13.0862C13.3954 12.6501 13.9161 12.2239 14.4639 11.834C15.2972 11.2426 16.192 10.7339 17.141 10.3528Z" fill="#039482"/>
</svg>
