<svg width="24" height="24" viewBox="0 0 24 24" fill="none" xmlns="http://www.w3.org/2000/svg">
<rect width="24" height="24" rx="12" fill="white"/>
<mask id="mask0_618_26651" style="mask-type:luminance" maskUnits="userSpaceOnUse" x="2" y="5" width="20" height="15">
<path d="M11.7422 8.36633C11.7422 8.36633 11.647 9.39077 11.7584 9.62299L11.5688 9.22886C11.1136 8.2826 9.87657 7.56937 8.91047 7.2479C8.49632 7.0923 8.00553 7.15155 8.00553 7.15155C7.51706 7.20289 7.29412 7.27082 7.29412 7.27082C7.97379 7.45485 8.60779 8.02116 9.01265 8.7044C9.44461 9.43184 9.57002 10.2857 9.35636 11.0447C9.35636 11.0447 9.32617 11.1624 9.32153 11.1513C9.32153 11.1513 8.14874 7.71313 5.87284 7.53777C4.65748 7.43748 3.79279 7.96035 3.28265 8.41529C2.54337 9.07404 2.05567 10.0226 2.01 10.8915C1.91091 12.2611 2.57588 13.3985 2.78102 13.7136C3.3709 14.6535 4.96403 16.2893 6.46968 17.422C6.46968 17.422 8.2486 18.775 10.0817 19.0435H11.2491C11.5278 18.9953 11.7995 18.9084 12.0565 18.7718C10.0949 17.9867 8.10616 16.5389 6.7623 14.8218C6.30557 14.1425 5.77995 13.1623 5.84575 12.3259C5.92316 11.3393 6.78088 10.6032 7.75859 10.6837C8.41813 10.7375 8.98866 11.1506 9.24566 11.7619C9.55918 13.7784 11.4558 16.0879 13.3345 17.4725C13.3345 17.4725 14.0529 18.1376 15.1615 17.8161L18.5049 16.7711L17.2911 16.129C15.6329 15.2277 14.2008 14.084 13.2401 12.8803C12.0364 11.2667 11.9938 10.2162 11.9938 10.2162C11.9891 9.91287 12.0294 9.58903 12.2252 9.31021C12.514 8.89868 13.1217 8.63963 13.6519 8.6262C13.6519 8.6262 14.2178 8.6183 14.5731 8.82367C15.7862 9.4026 16.5464 11.5818 16.6826 11.8322C16.6826 11.8322 18.8927 16.7143 22 15.7048C20.8535 15.0256 19.5809 11.8709 19.5809 11.8709C19.2705 11.0084 18.9376 9.69328 18.7835 8.75731C18.4375 6.65789 17.7818 5.19035 15.6058 5.01184C15.5083 5.00393 15.4115 5 15.3155 5C13.4654 5 11.8931 6.45489 11.7422 8.36633Z" fill="white"/>
</mask>
<g mask="url(#mask0_618_26651)">
<path d="M2.04004 3.36133L23.1002 5.09023L21.8707 20.682L0.810547 18.9531L2.04004 3.36133Z" fill="url(#paint0_linear_618_26651)"/>
</g>
<defs>
<linearGradient id="paint0_linear_618_26651" x1="1.98423" y1="11.2032" x2="22.2291" y2="12.7996" gradientUnits="userSpaceOnUse">
<stop stop-color="#FCCF00"/>
<stop offset="1" stop-color="#F29600"/>
</linearGradient>
</defs>
</svg>
