<svg width="24" height="24" viewBox="0 0 24 24" fill="none" xmlns="http://www.w3.org/2000/svg">
<rect width="24" height="24" rx="12" fill="white"/>
<path d="M12.0814 6.28076L6.65674 13.4531C6.97745 14.3423 7.52136 15.1269 8.23247 15.7263C8.94358 16.3256 9.79619 16.718 10.7025 16.863C11.6089 17.0081 12.5362 16.9005 13.389 16.5515C14.2419 16.2024 14.9894 15.6244 15.5546 14.877C16.1199 14.1297 16.4825 13.2399 16.605 12.2993C16.7276 11.3587 16.6057 10.4014 16.2519 9.52576C15.8981 8.65014 15.3252 7.88792 14.5922 7.31756C13.8591 6.7472 12.9925 6.38932 12.0814 6.28076Z" fill="white"/>
<path d="M21.0473 4L15.9312 19.1973H16.8872L22 4H21.0473Z" fill="#DE5511"/>
<path d="M13.4976 7.8596C13.918 8.35205 14.2532 8.91583 14.4884 9.52617C14.8835 9.37481 15.2679 9.19485 15.6386 8.9876C15.231 8.2946 14.6682 7.71334 13.9976 7.29297C13.8533 7.50045 13.6854 7.68922 13.4976 7.85522" fill="white"/>
<path d="M14.8674 11.503H16.3422C16.3289 10.6727 16.1163 9.85887 15.7235 9.13477C15.3448 9.34683 14.9519 9.53062 14.5479 9.68473C14.7505 10.2678 14.8585 10.8817 14.8674 11.5013" fill="white"/>
<path d="M13.5027 15.3325C13.6864 15.4973 13.8514 15.6833 13.9943 15.8869C14.6669 15.4639 15.2319 14.8804 15.642 14.1852C15.2743 13.9784 14.8927 13.799 14.5003 13.6484C14.2666 14.2656 13.9288 14.8349 13.5027 15.3299" fill="white"/>
<path d="M8.58984 13.4336C8.99949 13.2843 9.41938 13.167 9.84599 13.0827C9.76505 12.6168 9.72251 12.1447 9.71885 11.6714" fill="white"/>
<path d="M13.3936 15.4608C12.9771 15.9154 12.4901 16.2946 11.9526 16.5827C12.6196 16.5184 13.266 16.3092 13.8496 15.9687C13.7155 15.7828 13.5626 15.6122 13.3936 15.46" fill="white"/>
<path d="M9.48772 15.3362C9.0608 14.8418 8.72344 14.2719 8.49179 13.6538C8.09831 13.8038 7.71565 13.9827 7.34668 14.1889C7.7536 14.8876 8.31959 15.4728 8.99526 15.8931C9.13678 15.6873 9.30217 15.5003 9.48772 15.3362Z" fill="white"/>
<path d="M9.13599 15.9747C9.72059 16.3108 10.3662 16.5178 11.0321 16.5825C10.4967 16.2941 10.0115 15.9156 9.59623 15.4624C9.42469 15.6147 9.2703 15.7865 9.13599 15.9747Z" fill="white"/>
<path d="M13.3866 7.72701C13.5616 7.57394 13.7181 7.3996 13.8528 7.20775C13.266 6.86696 12.6165 6.65776 11.9465 6.59375C12.4845 6.88541 12.9715 7.26816 13.3875 7.72614" fill="white"/>
<path d="M11.41 8.61195C11.0951 8.60361 10.7834 8.54442 10.4861 8.43652C10.2896 8.92517 10.1408 9.43293 10.042 9.95222C10.4941 10.0311 10.9515 10.073 11.41 10.0777V8.61195Z" fill="white"/>
<path d="M12.5942 8.22417C12.8306 8.12515 13.0534 7.99452 13.257 7.83559C12.8312 7.36705 12.3281 6.98091 11.7712 6.69531L11.7627 6.70408C12.0907 7.17979 12.3694 7.68987 12.5942 8.22592" fill="white"/>
<path d="M11.41 14.564V13.0957C10.9515 13.1022 10.4941 13.1453 10.042 13.2246C10.1389 13.744 10.2857 14.252 10.4802 14.7412C10.7804 14.6334 11.0949 14.5742 11.4126 14.5658" fill="white"/>
<path d="M10.5464 14.8992C10.778 15.4491 11.0673 15.9709 11.4092 16.4552V14.7378C11.1153 14.7453 10.8243 14.7997 10.5464 14.8992Z" fill="white"/>
<path d="M11.572 16.46C11.9164 15.9742 12.2075 15.4502 12.44 14.8978C12.1602 14.7988 11.8676 14.7447 11.572 14.7373V16.46Z" fill="white"/>
<path d="M12.6611 14.8002C12.917 14.9067 13.1575 15.0493 13.3757 15.2239C13.7903 14.744 14.1184 14.1912 14.3445 13.5915C13.9412 13.4492 13.5288 13.336 13.1104 13.2529C13.0089 13.7824 12.8584 14.3005 12.6611 14.8002Z" fill="white"/>
<path d="M11.749 16.5021C12.3157 16.215 12.8286 15.8259 13.2637 15.353C13.0597 15.1907 12.8357 15.0573 12.5975 14.9565C12.3677 15.5009 12.0836 16.0188 11.7499 16.5021" fill="white"/>
<path d="M12.9765 10.1182C12.5124 10.2 12.0428 10.2437 11.572 10.2489V11.5032H13.0977C13.0937 11.0387 13.0523 10.5755 12.974 10.1182" fill="white"/>
<path d="M13.1425 13.0821C13.5687 13.1683 13.9885 13.2856 14.3987 13.433C14.5917 12.8692 14.6948 12.2767 14.7038 11.6787H13.2629C13.259 12.151 13.2176 12.6221 13.1392 13.0874" fill="white"/>
<path d="M13.1001 11.6748H11.5745V12.9274C12.0446 12.9303 12.5138 12.9728 12.9772 13.0545C13.0564 12.5991 13.0981 12.1375 13.1018 11.6748" fill="white"/>
<path d="M11.572 14.5643C11.8895 14.5749 12.2036 14.634 12.5044 14.7398C12.6975 14.2513 12.8454 13.745 12.946 13.2276C12.4914 13.1473 12.0314 13.1042 11.5703 13.0986L11.572 14.5643Z" fill="white"/>
<path d="M11.41 12.9265V11.6748H9.88428C9.88745 12.1381 9.92857 12.6002 10.0072 13.0563C10.47 12.9738 10.9386 12.9303 11.4083 12.9265" fill="white"/>
<path d="M10.3277 14.8022C10.1278 14.3031 9.97621 13.7848 9.87509 13.2549C9.45611 13.3369 9.04339 13.45 8.64014 13.5935C8.8673 14.1941 9.19688 14.7476 9.61318 15.2276C9.83067 15.0517 10.0713 14.9087 10.3277 14.803" fill="white"/>
<path d="M9.72495 15.3526C10.1587 15.8251 10.6705 16.2136 11.2362 16.4999C10.9023 16.0177 10.6182 15.5006 10.3886 14.957C10.151 15.0587 9.9271 15.1916 9.72241 15.3526" fill="white"/>
<path d="M13.2663 11.5033H14.703C14.6938 10.9048 14.5887 10.3119 14.3919 9.74902C13.983 9.89547 13.5643 10.0107 13.1392 10.0937C13.2187 10.5604 13.2612 11.033 13.2663 11.5068" fill="white"/>
<path d="M14.3343 9.5857C14.1056 8.99175 13.7796 8.44309 13.3706 7.96387C13.1521 8.13469 12.9137 8.27643 12.6611 8.38577C12.857 8.88317 13.0071 9.39858 13.1095 9.92515C13.525 9.84374 13.9344 9.73146 14.3343 9.58921" fill="white"/>
<path d="M11.4102 10.248C10.9411 10.2436 10.4732 10.2002 10.0108 10.1182C9.93123 10.5753 9.88955 11.0387 9.88623 11.5032H11.4119L11.4102 10.248Z" fill="white"/>
<path d="M12.5061 8.44189C12.2057 8.54908 11.8913 8.60823 11.5737 8.61732V10.0778C12.0346 10.0715 12.4942 10.0281 12.9485 9.94794C12.8468 9.43294 12.6993 8.92877 12.5078 8.44189" fill="white"/>
<path d="M14.553 13.4905C14.955 13.6432 15.3456 13.8262 15.7218 14.0378C16.1155 13.3159 16.3288 12.5036 16.3423 11.6748H14.8683C14.8615 12.294 14.755 12.9076 14.553 13.4905Z" fill="white"/>
<path d="M12.078 6.28056H12.0822C12.9936 6.3889 13.8606 6.74668 14.594 7.31705C15.3273 7.88742 15.9005 8.64977 16.2545 9.5256C16.6085 10.4014 16.7305 11.3591 16.608 12.2999C16.4855 13.2408 16.1228 14.1308 15.5574 14.8784C14.992 15.626 14.2442 16.2041 13.3911 16.5532C12.538 16.9024 11.6104 17.0098 10.7038 16.8646C9.79723 16.7194 8.94443 16.3268 8.23323 15.7271C7.52202 15.1274 6.97813 14.3424 6.65756 13.4529L2.31361 19.1991H15.4056L20.5217 4H13.4867L2 19.1973H2.31361L6.65756 13.4512" fill="#139244"/>
<path d="M15.7217 14.0382C15.3455 13.8262 14.9549 13.643 14.5529 13.49C14.7547 12.9068 14.8613 12.2929 14.8682 11.6734H16.3421C16.3294 12.504 16.1161 13.3181 15.7217 14.0417M13.9943 15.8854C13.8509 15.6828 13.686 15.4974 13.5027 15.3328C13.9291 14.8373 14.2666 14.267 14.4995 13.6487C14.892 13.7988 15.2738 13.9773 15.642 14.1829C15.2326 14.8782 14.6674 15.4612 13.9943 15.8828M11.9516 16.5793C12.4895 16.292 12.9767 15.9127 13.3925 15.4574C13.562 15.6096 13.7146 15.7808 13.8477 15.9679C13.2643 16.3088 12.6178 16.5181 11.9507 16.5819M12.5966 14.9557C12.8334 15.0584 13.0569 15.1913 13.262 15.3513C12.8276 15.8244 12.3153 16.2138 11.749 16.5012C12.0816 16.0172 12.3656 15.4993 12.5966 14.9557ZM11.571 14.7373C11.8661 14.7438 12.1583 14.798 12.4373 14.8978C12.206 15.4505 11.9155 15.9745 11.571 16.46V14.7373ZM11.41 16.4556C11.0671 15.9717 10.7774 15.4498 10.5463 14.8995C10.8244 14.8001 11.1158 14.7457 11.41 14.7381V16.4556ZM9.7224 15.353C9.92834 15.1923 10.1534 15.0596 10.392 14.9583C10.6204 15.5022 10.9046 16.0192 11.2396 16.5003C10.6733 16.2138 10.1607 15.8253 9.72579 15.353M9.13841 15.9758C9.27248 15.7872 9.42689 15.615 9.59865 15.4627C10.0136 15.9157 10.499 16.2937 11.0345 16.581C10.3688 16.517 9.72323 16.3109 9.13841 15.9758ZM8.49169 13.6558C8.72402 14.2718 9.06071 14.84 9.48592 15.3337C9.30277 15.4999 9.13816 15.6867 8.99516 15.8907C8.31957 15.4721 7.75351 14.8884 7.34658 14.1908C7.7152 13.9839 8.09792 13.8051 8.49169 13.6558ZM8.28657 11.6734H9.7224C9.72545 12.1465 9.76799 12.6184 9.84954 13.0839C9.42255 13.1689 9.00215 13.2862 8.5917 13.4347C8.39624 12.8695 8.29312 12.2746 8.28657 11.6743M10.0131 10.1182C10.4746 10.2003 10.9417 10.2437 11.41 10.2481V11.5033H9.88429C9.88803 11.0387 9.93057 10.5753 10.0114 10.1182M10.4835 8.43677C10.7813 8.54395 11.0932 8.60312 11.4083 8.6122V10.0761C10.9493 10.0709 10.4913 10.029 10.0386 9.95071C10.139 9.43231 10.2881 8.92527 10.4835 8.43677ZM12.5034 8.44203C12.6965 8.92816 12.8435 9.43254 12.9424 9.94808C12.489 10.0285 12.0302 10.0719 11.5702 10.0779V8.61395C11.8877 8.60469 12.2021 8.54554 12.5025 8.43852M13.3679 7.95961C13.7769 8.43914 14.103 8.98809 14.3316 9.58231C13.9318 9.72469 13.5225 9.83668 13.1069 9.91738C13.0042 9.39377 12.8549 8.88109 12.661 8.3859C12.9138 8.27834 13.1522 8.13773 13.3705 7.9675M11.9457 6.59478C12.6157 6.65832 13.2653 6.86755 13.8519 7.20878C13.7177 7.40336 13.5608 7.58012 13.3849 7.73506C12.9699 7.27576 12.4827 6.89257 11.944 6.60179M15.6361 8.99551C15.2664 9.20069 14.8828 9.37804 14.4885 9.52618C14.2513 8.91484 13.9157 8.34955 13.4959 7.85435C13.6855 7.69004 13.8542 7.5014 13.9977 7.29298C14.6685 7.71377 15.2313 8.29566 15.6386 8.98937M13.2654 11.5041C13.2617 11.0305 13.2189 10.558 13.1374 10.0919C13.5625 10.0085 13.9811 9.89326 14.3901 9.74722C14.5885 10.3097 14.6937 10.9028 14.7012 11.5015L13.2654 11.5041ZM13.1399 13.083C13.2199 12.6179 13.2619 12.1467 13.2654 11.6743H14.7012C14.6937 12.2724 14.5909 12.8651 14.3969 13.4286C13.9865 13.2807 13.5665 13.1634 13.1399 13.0777M13.1086 13.2488C13.5277 13.3305 13.9404 13.444 14.3435 13.5882C14.118 14.1901 13.7902 14.7453 13.3756 15.2276C13.1569 15.0525 12.9166 14.9085 12.661 14.7995C12.8594 14.3009 13.0096 13.7832 13.1094 13.254M11.5719 13.0979C12.033 13.1021 12.4931 13.1449 12.9475 13.226C12.8469 13.7443 12.6988 14.2515 12.5051 14.7408C12.205 14.6325 11.8904 14.5734 11.5727 14.5653L11.5719 13.0979ZM10.3267 14.8004C10.0705 14.9086 9.82982 15.0526 9.61137 15.2285C9.19685 14.7477 8.86798 14.1948 8.64002 13.5952C9.04263 13.4509 9.45478 13.3369 9.87327 13.254C9.97506 13.7835 10.1267 14.3015 10.3259 14.8004M10.0386 13.2277C10.4913 13.1463 10.9496 13.1026 11.4091 13.097V14.5636C11.0915 14.5727 10.7771 14.6318 10.4768 14.739C10.2838 14.2497 10.1362 13.7425 10.036 13.2242M13.0958 11.6699C13.0933 12.1337 13.0525 12.5965 12.9738 13.0532C12.5096 12.9697 12.0396 12.9257 11.5685 12.9216V11.6734L13.0958 11.6699ZM11.5702 10.2446C12.0402 10.2406 12.5091 10.1966 12.9721 10.113C13.0531 10.5705 13.0951 11.0346 13.0975 11.4997H11.5719L11.5702 10.2446ZM9.88599 11.6734H11.4117V12.9251C10.9421 12.9313 10.4736 12.9753 10.0106 13.0567C9.93312 12.5998 9.89201 12.1372 9.88768 11.6734M16.3438 11.5033H14.8682C14.8601 10.883 14.7512 10.2687 14.5461 9.68582C14.951 9.53389 15.344 9.35003 15.7217 9.13585C16.115 9.85984 16.3283 10.6737 16.3421 11.5041M12.0813 6.28076L11.9651 6.43251L11.8736 6.55618L11.8516 6.58425L11.7668 6.69302C12.3238 6.97796 12.8268 7.36419 13.2518 7.8333C13.0487 7.99254 12.8261 8.1232 12.5898 8.22187C12.3659 7.68571 12.0877 7.17559 11.76 6.70003L11.6541 6.83862C11.9601 7.29175 12.2217 7.77541 12.4347 8.28239C12.1555 8.38064 11.8633 8.4336 11.5685 8.4394V6.94826L11.4066 7.17018V8.44116C11.1195 8.43227 10.8353 8.37936 10.5632 8.28415L10.4547 8.42712L10.1682 8.80429C10.0465 9.16929 9.94851 9.54233 9.87497 9.92089C9.71562 9.89107 9.55966 9.85511 9.40455 9.81651L9.29606 9.96475C9.47914 10.0147 9.66307 10.0525 9.84615 10.0937C9.76537 10.5599 9.72284 11.0323 9.71901 11.5059H8.28318V11.2989L7.99754 11.676H8.11281C8.12198 12.2958 8.22847 12.9099 8.42812 13.4944C8.02643 13.6485 7.63559 13.8314 7.25843 14.0417C7.10464 13.7591 6.97884 13.4611 6.88294 13.1523L6.7753 13.3023L6.65918 13.454C6.98002 14.3432 7.52408 15.1278 8.23534 15.7271C8.9466 16.3264 9.79936 16.7186 10.7058 16.8635C11.6122 17.0083 12.5396 16.9006 13.3924 16.5513C14.2452 16.2019 14.9927 15.6237 15.5578 14.8761C16.1229 14.1285 16.4852 13.2385 16.6075 12.2979C16.7297 11.3572 16.6075 10.3998 16.2534 9.52421C15.8993 8.64866 15.326 7.8866 14.5927 7.31652C13.8594 6.74643 12.9925 6.3889 12.0813 6.28076Z" fill="#DE5511"/>
<path d="M11.9966 12.7839L13.2171 13.3663L12.6399 12.0848L14.2139 11.6848V11.4945L12.6399 11.0884L13.2392 9.77966L11.9898 10.3884L11.5982 8.06836H11.3821L10.9956 10.3849L9.75043 9.77966L10.3378 11.0919L8.76807 11.4945V11.6822L10.3378 12.0751L9.76908 13.3689L10.9939 12.7909L11.3778 15.1083L11.5923 15.1056L11.9966 12.7839Z" fill="white"/>
<path d="M11.4982 8.19873L11.9051 10.5644L12.9993 10.0276L12.4806 11.1635L14.1241 11.5871L12.4806 12.0099L12.9815 13.1212L11.9051 12.6125L11.4881 14.9553L11.0829 12.6125L10.009 13.1221L10.5023 12.0099L8.86304 11.5871L10.5023 11.1635L9.99119 10.0276L11.0829 10.5635L11.4982 8.19873Z" fill="#139244"/>
</svg>
