<svg width="24" height="24" viewBox="0 0 24 24" fill="none" xmlns="http://www.w3.org/2000/svg">
<rect width="24" height="24" rx="12" fill="white"/>
<path d="M3.04692 17.5516C3.30548 18.6764 3.26411 20.5343 2.52009 21.4659C1.44963 22.8043 0.425058 21.3368 0.160028 20.2284C-0.125687 19.0348 -0.0894881 16.9567 0.774122 16.0042C1.07212 15.6262 1.55111 15.3871 1.98744 15.697C2.66682 16.1739 2.81162 16.7812 3.04692 17.5516Z" fill="#A02031"/>
<path d="M2.04991 19.0115C2.09646 19.1379 1.97945 19.3482 2.19148 19.3895C2.32916 19.5067 2.65237 19.4628 2.62522 19.6843C2.36407 19.6692 2.16498 19.4242 1.86181 19.4903C1.70408 19.5211 1.5664 19.6148 1.4119 19.6626C1.39122 19.6377 1.36342 19.6194 1.37635 19.5853C1.5302 19.4628 1.7545 19.4628 1.89671 19.3207L1.90641 18.9315C1.97816 18.8405 2.07383 18.9191 2.04991 19.0115Z" fill="white"/>
<path d="M2.29777 19.88C2.44645 20.0241 2.34367 20.2141 2.36694 20.4008C2.35595 20.8122 2.37146 21.1588 2.46713 21.5525C2.46455 21.601 2.4471 21.6606 2.39667 21.6789C2.3469 21.6829 2.34108 21.6324 2.31393 21.6075C2.28097 21.0762 2.22861 20.5502 2.21439 20.0091C2.17754 19.8702 1.97909 19.9606 1.88989 19.9396C1.83882 19.9422 1.79486 19.9724 1.75478 20.0091C1.7244 20.543 1.75478 21.0985 1.66493 21.6521C1.64877 21.6704 1.62421 21.6763 1.599 21.6731L1.57056 21.6324C1.6171 21.0848 1.6074 20.4794 1.64877 19.9586C1.71277 19.8748 1.83623 19.7962 1.96228 19.8086C2.07411 19.7975 2.20016 19.8355 2.29777 19.88Z" fill="white"/>
<path d="M1.14898 20.779C1.16255 20.9074 1.13864 21.0076 1.15221 21.1151C1.17096 21.2415 1.11795 21.364 1.10308 21.4898C1.0992 21.552 1.05202 21.6031 1.07852 21.6699H1.14575C1.25047 21.6162 1.2343 21.4826 1.24594 21.3745C1.27568 21.2487 1.25628 21.1524 1.27115 21.0476C1.28602 20.8078 1.28925 20.6034 1.29119 20.3859C1.30089 20.325 1.29119 20.2975 1.29507 20.249C1.33773 20.0485 1.30089 19.8147 1.27826 19.6096C1.20392 19.4072 0.977678 19.3954 0.808964 19.3476C0.761129 19.3187 0.744969 19.2559 0.741737 19.21C0.781168 19.117 0.890412 19.0868 0.98285 19.0796C1.01517 19.0626 1.03779 19.0659 1.06818 19.056C1.12506 19.0351 1.15674 19.0239 1.2078 19.02C1.24917 19.0115 1.25952 18.9742 1.25952 18.9368C1.1813 18.8209 1.09403 18.9512 0.988667 18.948C0.868434 19.0023 0.646067 18.9912 0.621504 19.1858C0.59694 19.267 0.644128 19.341 0.688731 19.396C0.722344 19.4282 0.761129 19.4563 0.846456 19.4635C0.957639 19.5028 1.11343 19.5094 1.16255 19.6299C1.15867 19.6882 1.17419 19.8153 1.17548 19.8533C1.18195 19.9025 1.18195 19.9424 1.17548 19.9922C1.20392 20.0669 1.17419 20.1501 1.1716 20.2294C1.14122 20.2949 1.03844 20.2608 0.978325 20.2641C0.925319 20.2353 0.858738 20.2588 0.816721 20.2189C0.790218 20.154 0.79345 20.0675 0.800561 19.9961C0.907865 19.9424 0.993839 19.9575 1.0992 19.9044C1.10373 19.8998 1.10761 19.8907 1.11149 19.8848C1.11407 19.871 1.1186 19.8573 1.11149 19.8455C1.10502 19.8356 1.09856 19.831 1.09339 19.8193C1.02551 19.7518 1.00741 19.8258 0.91239 19.8297C0.892998 19.8297 0.877484 19.8324 0.858091 19.831C0.718466 19.8383 0.814135 19.6522 0.764361 19.5795C0.742383 19.5657 0.723637 19.5074 0.682913 19.5271C0.592415 19.5959 0.693256 19.7157 0.668692 19.8101C0.693256 20.0708 0.688731 20.3564 0.639603 20.6316C0.671278 20.7528 0.611807 20.9139 0.616979 21.0443C0.597586 21.0993 0.611161 21.1642 0.589829 21.2179C0.597586 21.2841 0.533591 21.3778 0.597586 21.4236C0.623443 21.3987 0.655117 21.3843 0.67451 21.3476C0.704891 21.1642 0.742383 20.9873 0.761776 20.7986C0.765008 20.7646 0.788279 20.7364 0.829003 20.7489C0.916915 20.7567 0.940186 20.8091 1.02163 20.8104C1.13864 20.7829 1.06236 20.6951 1.04038 20.684C0.941479 20.6768 0.955054 20.6368 0.86197 20.6218C0.834174 20.6152 0.772765 20.6355 0.782461 20.5903C0.782461 20.5261 0.790864 20.4383 0.810257 20.3833C0.888473 20.3604 0.970568 20.3846 1.05589 20.3846C1.08692 20.3879 1.15932 20.3971 1.1716 20.4305C1.18324 20.5255 1.1632 20.6827 1.14898 20.779Z" fill="white"/>
<path d="M2.67525 17.5848L2.54984 17.5619C2.50201 17.5219 2.45482 17.5016 2.39923 17.4669C2.29063 17.385 2.12644 17.3326 2.01009 17.2153C1.90149 17.2212 1.85365 17.3234 1.75217 17.3837C1.74053 17.3955 1.71532 17.4099 1.70239 17.385C1.74312 17.2966 1.82715 17.2573 1.89115 17.1931C1.93122 17.1662 1.98035 17.1472 2.01396 17.1118C2.08959 17.14 2.11739 17.1917 2.17492 17.2212C2.26865 17.2651 2.3055 17.3149 2.38501 17.347C2.46645 17.3994 2.51946 17.4256 2.59121 17.4558C2.63258 17.4865 2.74183 17.4715 2.69335 17.5756L2.67525 17.5848Z" fill="white"/>
<path d="M2.46509 16.2976C2.45798 16.3448 2.39786 16.3716 2.33839 16.3723C2.26082 16.3716 2.24466 16.3952 2.18261 16.4326C2.16515 16.4516 2.1477 16.483 2.15804 16.5112C2.15675 16.5682 2.25306 16.5845 2.31512 16.6075C2.33581 16.6088 2.34873 16.6284 2.34744 16.652C2.32158 16.6704 2.28797 16.6507 2.25306 16.6579C2.15675 16.6802 2.05009 16.6369 1.95571 16.652C1.91693 16.6658 1.90853 16.652 1.85229 16.671C1.82643 16.6769 1.81156 16.6769 1.78958 16.6861C1.72882 16.7077 1.61828 16.6861 1.61247 16.7529C1.59889 16.8171 1.58532 16.8911 1.58144 16.9632C1.57498 16.9953 1.57885 17.0353 1.56075 17.0667C1.56075 17.1676 1.58144 17.3261 1.606 17.465C1.60277 17.4958 1.59825 17.5266 1.606 17.5561C1.66224 17.619 1.76696 17.5757 1.80704 17.5888C1.88913 17.5888 1.93374 17.5967 1.99838 17.5914C2.05914 17.6032 2.12507 17.5941 2.18972 17.6098C2.19941 17.6032 2.22268 17.6249 2.23238 17.6334C2.23238 17.6635 2.19877 17.6648 2.17162 17.6681C2.12443 17.6733 2.0669 17.6733 1.99838 17.6583C1.85164 17.653 1.73852 17.6805 1.56851 17.6733C1.489 17.6786 1.45086 17.6812 1.3539 17.6786C1.33774 17.6727 1.26405 17.6845 1.24466 17.6845C1.15674 17.6812 1.1477 17.6812 1.05978 17.6681C1.03651 17.6537 0.99902 17.6792 0.987384 17.6419C0.973809 17.6104 1.01389 17.6137 1.02811 17.6091C1.11408 17.6091 1.19294 17.6104 1.26922 17.6104C1.37523 17.6091 1.42501 17.6065 1.49094 17.5757C1.50322 17.5456 1.49934 17.5207 1.50128 17.4971C1.50775 17.3838 1.47543 17.2691 1.48771 17.1316C1.49934 17.0582 1.48836 16.9599 1.50128 16.8872C1.50775 16.825 1.50775 16.6697 1.55494 16.635L1.76502 16.5806C1.84259 16.5839 1.904 16.5708 1.98868 16.5754C2.03328 16.5662 2.08112 16.5459 2.1031 16.4987C2.10697 16.4555 2.0753 16.4129 2.03587 16.4057C1.98286 16.3946 1.98868 16.4011 1.92339 16.3919C1.88784 16.3815 1.84518 16.3919 1.81932 16.3461C1.73981 16.2465 1.72042 16.1129 1.7424 15.9864C1.75339 15.9622 1.76955 15.932 1.80122 15.9563C1.8413 16.0035 1.81092 16.0526 1.8051 16.107C1.79217 16.2268 1.86457 16.2793 1.90723 16.3081C1.95701 16.3271 1.96735 16.3186 2.02747 16.314C2.08176 16.2694 2.05397 16.1993 2.0753 16.1397C2.0669 16.0454 2.09017 16.0021 2.12443 15.9189C2.16192 15.9189 2.16192 15.9596 2.17549 15.9871L2.17291 16.0283C2.18131 16.1057 2.16257 16.198 2.19877 16.293C2.22398 16.3277 2.22721 16.3192 2.26664 16.3192C2.32223 16.2956 2.372 16.2694 2.3817 16.2065C2.40433 16.1482 2.35455 16.0238 2.44699 16.0179C2.47155 16.0126 2.47026 16.0238 2.47478 16.0369L2.46509 16.2976Z" fill="white"/>
<path d="M2.46182 17.1194C2.43467 17.1194 2.40105 17.1129 2.37714 17.0939C2.31185 17.012 2.13344 16.9727 2.06815 16.9183C1.97765 16.8796 1.96925 16.9216 1.90913 16.953C1.87552 16.9956 1.82445 17.0153 1.78308 17.0382C1.74882 17.0709 1.74236 17.0821 1.7068 17.0893C1.69323 17.0821 1.67384 17.067 1.6887 17.0559C1.72814 17.0153 1.74753 16.9917 1.78567 16.9628C1.86 16.9216 1.93499 16.8613 2.00286 16.8135C2.07203 16.8489 2.22264 16.8967 2.29763 16.9294C2.35645 16.991 2.44824 17.0126 2.49737 17.0814C2.5006 17.1063 2.47992 17.1161 2.46182 17.1194Z" fill="white"/>
<path d="M2.11871 18.2907C2.14586 18.3876 2.12388 18.573 2.07799 18.6104C2.03726 18.6687 1.99525 18.6693 1.95 18.6818C1.81877 18.6968 1.85368 18.7021 1.72504 18.7165L1.52336 18.7348C1.39408 18.7381 1.301 18.7473 1.16266 18.744C1.09867 18.7532 1.02886 18.7244 0.965507 18.7067C0.949993 18.6837 0.919612 18.6837 0.919612 18.6431C0.919612 18.6045 0.998474 18.6215 1.05859 18.6228C1.18012 18.6333 1.301 18.6438 1.42252 18.6412C1.55116 18.6261 1.59447 18.6326 1.75219 18.6261C1.7871 18.6228 1.85368 18.6058 1.87631 18.5933C1.99331 18.5501 1.97844 18.5547 2.00882 18.4453C2.02563 18.3444 2.01011 18.3182 1.90152 18.29C1.77417 18.2566 1.68367 18.2822 1.60416 18.1983C1.54728 18.1197 1.61515 18.0195 1.49686 17.9638C1.39473 17.9782 1.32362 17.9841 1.21179 17.9795C1.15426 17.9795 1.11224 17.9867 1.05471 17.9841C1.02239 17.9769 0.978435 17.9795 0.925429 17.9782C0.890523 17.9782 0.884705 17.969 0.84592 17.969C0.827174 17.9474 0.789682 17.9251 0.820064 17.8943C0.865313 17.874 0.903451 17.8983 0.942883 17.8786C1.04631 17.8753 1.13293 17.8786 1.24217 17.874C1.28354 17.8786 1.32685 17.8786 1.35982 17.8799C1.45678 17.8701 1.54728 17.8884 1.65911 17.8786C1.7425 17.8799 1.80908 17.8891 1.87631 17.8845C1.94095 17.8891 1.97844 17.8983 2.01464 17.8904C2.09027 17.8747 2.14909 17.895 2.20921 17.8891C2.30359 17.8989 2.33655 17.8662 2.4096 17.8845C2.43804 17.8891 2.44838 17.9245 2.46325 17.9323C2.44968 17.95 2.44774 17.9697 2.42446 17.9743C2.35724 18.007 2.29454 17.9841 2.20081 17.9841C2.13293 17.9972 2.07346 17.988 1.9849 17.9992C1.93384 17.9874 1.87178 17.9847 1.80261 17.9802C1.75155 17.9788 1.71276 17.9834 1.66881 17.9933C1.66557 18.0502 1.6785 18.1013 1.72504 18.1426C1.77353 18.1787 1.87889 18.1773 1.95 18.1885C2.00947 18.2121 2.09285 18.2193 2.11871 18.2907Z" fill="white"/>
<path d="M1.54463 16.0323C1.53235 16.1338 1.56144 16.3186 1.45348 16.4136C1.36816 16.4378 1.25439 16.3979 1.1975 16.4863C1.14708 16.5597 1.20526 16.6317 1.18587 16.711C1.21173 16.808 1.30804 16.8427 1.35975 16.9206C1.39919 16.9613 1.41147 16.9829 1.42375 17.0268C1.40436 17.0399 1.38173 17.0523 1.36428 17.0392L1.34295 17.0209L1.30675 16.9789C1.27637 16.9554 1.23952 16.901 1.1975 16.8918C1.05141 16.8885 0.97643 17.0274 0.863307 17.1001C0.826462 17.1316 0.78897 17.1565 0.75277 17.182C0.725621 17.2095 0.705582 17.224 0.680372 17.2443C0.632537 17.2855 0.596338 17.3085 0.539454 17.3255L0.525879 17.3013C0.537514 17.2764 0.589874 17.2449 0.62478 17.2213C0.704289 17.1296 0.783798 17.0255 0.896921 16.9717C0.972552 16.8984 1.08826 16.8453 1.1264 16.7359C1.12769 16.6979 1.10571 16.6658 1.08632 16.6422C1.07727 16.5787 1.11282 16.5073 1.04043 16.4732C0.953806 16.4804 0.856843 16.4228 0.833572 16.4031C0.730792 16.2793 0.704289 16.1044 0.768284 15.9485L0.781859 15.9452C0.850379 15.9629 0.827108 16.0375 0.828401 16.0952C0.834219 16.1712 0.84844 16.2622 0.90791 16.314C0.929242 16.3448 0.966087 16.3697 1.00099 16.3808C1.03202 16.3769 1.06822 16.3546 1.06951 16.3251C1.11153 16.2184 1.04624 16.1168 1.09408 16.0081C1.09214 15.9799 1.08761 15.9295 1.12704 15.915L1.19944 15.9295C1.20332 16.0002 1.17359 16.0592 1.1807 16.1345C1.18458 16.198 1.16712 16.2734 1.2169 16.3127C1.24081 16.3376 1.27572 16.3487 1.30675 16.3343C1.39272 16.3297 1.43797 16.2491 1.45219 16.1935C1.44896 16.1044 1.47288 16.029 1.46577 15.974L1.48193 15.934C1.52136 15.9524 1.54075 15.9871 1.54463 16.0323Z" fill="white"/>
<path d="M1.36361 17.4257C1.32094 17.4297 1.32547 17.372 1.29638 17.3517C1.25307 17.3111 1.20847 17.2305 1.13154 17.2606C1.09922 17.2823 1.06755 17.3091 1.02618 17.332C0.91564 17.4663 0.800578 17.5246 0.685516 17.6426C0.65772 17.6517 0.644146 17.6334 0.635742 17.6111C0.668063 17.5646 0.721715 17.5292 0.766964 17.4952C0.800578 17.4716 0.825788 17.4264 0.865219 17.3995C0.892369 17.3681 0.90659 17.3471 0.932447 17.3268C0.997088 17.2587 1.05074 17.2377 1.10633 17.1768C1.13154 17.1545 1.17291 17.1355 1.202 17.1597C1.2285 17.2259 1.30543 17.2587 1.35649 17.3098C1.37783 17.3406 1.43277 17.3995 1.36361 17.4257Z" fill="white"/>
<path fill-rule="evenodd" clip-rule="evenodd" d="M13.7922 2.00012C14.043 2.0047 14.1839 2.10493 14.3371 2.18682C14.6358 2.34667 14.829 2.48162 15.2259 2.48621C15.4367 2.48686 15.6513 2.51176 15.8459 2.60741C16.5323 2.93693 16.9208 4.11351 17.0411 4.76338C17.0837 4.98874 17.0618 5.22131 17.0411 5.44601C17.0197 5.67137 16.9991 5.88363 17.0411 6.07165C17.1161 6.41165 17.246 6.41296 17.3307 6.41296C17.4154 6.41296 17.5227 6.38938 17.6319 6.36645C17.7127 6.34941 17.7922 6.32976 17.8808 6.31797C18.0747 6.28914 18.2673 6.27539 18.449 6.27539C18.7121 6.27539 18.9661 6.30552 19.2072 6.36645C19.4638 6.42999 19.7121 6.45423 19.9726 6.47847C20.1658 6.4955 20.363 6.5145 20.5711 6.55184C20.7761 6.58787 21.4794 6.71628 21.8776 6.89381C22.1019 6.99011 22.2783 7.148 22.4477 7.30195C22.5951 7.43625 22.7353 7.56203 22.906 7.6544C23.895 8.19094 24.184 8.81788 23.8911 9.82872C23.8608 9.93026 23.8323 10.037 23.8019 10.1419C23.7063 10.4799 23.6054 10.835 23.4949 11.1586C23.354 11.5746 23.1381 11.7534 22.8847 11.9644C22.8103 12.0273 22.7321 12.0934 22.6507 12.1668C22.4134 12.3902 22.2389 12.6699 22.0553 12.9687C21.7987 13.3781 21.5311 13.8046 21.0838 14.0725C20.7147 14.2933 20.4218 14.3084 20.0482 14.3267C20.0256 14.328 20.0023 14.3287 19.9803 14.3287C19.8148 14.4112 19.9933 14.7663 20.1154 14.9832C20.1807 15.1004 20.2531 15.2295 20.3184 15.407C20.3617 15.5308 20.3636 15.6651 20.3675 15.7903C20.3708 15.9036 20.3714 16.0084 20.4031 16.0864C20.416 16.1231 20.4677 16.1709 20.5188 16.2154C20.608 16.296 20.7185 16.3995 20.7651 16.5574C20.8782 16.9439 20.8407 17.7674 20.7295 18.0602C20.7004 18.1401 20.6242 18.224 20.5356 18.3262C20.4677 18.4042 20.3914 18.4919 20.3636 18.545C20.3294 18.6138 20.3126 18.7029 20.2951 18.7946C20.268 18.9328 20.237 19.0933 20.1361 19.2381C19.7476 19.8061 18.9086 20.1048 18.2331 20.3446C18.0676 20.4023 17.9099 20.4612 17.7761 20.5136C17.5912 20.5896 17.4412 20.6263 17.3035 20.6263C17.1102 20.6263 16.9622 20.5542 16.7909 20.4724C16.7082 20.4311 16.6177 20.3892 16.5071 20.3453C16.2227 20.2352 15.9583 20.2116 15.6558 20.1854C15.5071 20.1749 15.3546 20.1605 15.1891 20.1376C14.8691 20.0917 14.6681 19.9456 14.4742 19.8107C14.4457 19.793 14.4205 19.7747 14.3914 19.753H14.3597C14.0708 19.753 13.8588 19.6901 13.7204 19.5631C13.4056 20.0203 12.9286 20.3688 12.2363 20.6551C11.7715 20.9159 11.2848 21.0285 10.8665 21.1058C10.7489 21.1425 10.6551 21.1714 10.5705 21.1982C10.1923 21.3214 9.78895 21.3797 9.37137 21.3797C9.22075 21.3797 9.06497 21.3705 8.915 21.3568C8.36942 21.3568 7.94085 21.2303 7.60019 20.9761C7.23432 20.796 6.91305 20.5588 6.64414 20.2758C6.26211 20.0079 5.83742 19.6875 5.62927 19.2584C5.38234 18.7494 5.50387 18.5195 5.66159 18.2247C5.70426 18.1454 5.74886 18.0589 5.79346 17.9567C5.80316 17.9351 5.81544 17.9069 5.82837 17.8742C6.10503 17.2322 6.19488 16.9472 6.21298 16.8299C5.89947 16.7323 5.62151 16.4421 5.36877 15.9494C5.23108 15.6795 5.08564 15.4391 4.99255 15.3271C4.93761 15.2596 4.8581 15.1699 4.76954 15.0821C4.71007 15.0244 4.63121 14.957 4.60858 14.934C4.32093 14.6471 3.96799 14.4715 3.62797 14.3012C3.31898 14.1466 3.00289 13.9874 2.74368 13.7483C2.5672 13.5937 2.41788 13.3958 2.27761 13.1305C1.87037 12.4924 1.47024 11.8157 1.35518 11.1435C1.24076 10.4838 1.40366 10.0973 1.60922 9.69704C1.67192 9.55619 1.74109 9.42059 1.8206 9.29284C1.86003 9.21881 1.89105 9.15068 1.9195 9.08648C1.96733 8.98428 1.99771 8.90501 2.02357 8.83164C2.08886 8.65607 2.13863 8.51653 2.35195 8.28331C2.61569 7.99702 2.8303 7.85486 3.11666 7.71139C3.43017 7.55417 3.7857 7.44411 4.06559 7.41725C4.08628 7.41594 4.27762 7.38711 4.35131 7.40153C4.4153 7.41725 4.47995 7.43297 4.54394 7.43297C4.55752 7.43297 4.5698 7.43297 4.58208 7.43035C4.64995 7.4238 4.70942 7.39563 4.77536 7.35829C4.86392 7.31046 4.9667 7.3026 5.10438 7.3026H5.13218C5.43599 7.31898 6.51292 7.87648 6.81803 7.88565C6.81803 7.88565 6.8943 7.89155 6.92856 7.88303C6.96606 7.87452 7.00484 7.8398 7.00484 7.8398C7.14382 7.72319 7.25242 7.57054 7.33645 7.37467C7.3468 7.35894 7.35132 7.34126 7.36037 7.32357L7.36166 7.3216C7.37588 7.28623 7.38946 7.24692 7.40239 7.2122L7.40303 7.21089C7.41467 7.17158 7.42824 7.1362 7.43794 7.09428C7.5 6.88726 7.54201 6.65732 7.58338 6.43785C7.59566 6.37758 7.60342 6.31404 7.61635 6.25639L7.62928 6.20398L7.64156 6.13585C7.64544 6.12405 7.65255 6.07623 7.65255 6.07623C7.65772 6.06051 7.66031 6.04085 7.66548 6.02644L7.66806 6.01269C7.67 5.99893 7.67453 5.98386 7.67711 5.96814L7.68228 5.94979C7.68681 5.93211 7.69004 5.91573 7.69521 5.89542L7.69844 5.88821C7.70103 5.8738 7.70556 5.85546 7.70943 5.83974L7.7159 5.82598C7.72042 5.80698 7.72559 5.78995 7.73012 5.77095V5.76833C7.73658 5.74998 7.74111 5.73426 7.74822 5.71788L7.7508 5.70085C7.75792 5.68447 7.76309 5.66613 7.76826 5.64779L7.76955 5.64582C7.77537 5.63075 7.78312 5.61241 7.7883 5.59603L7.79282 5.58097C7.79864 5.56393 7.80769 5.54559 7.81545 5.52987V5.52659C7.82256 5.51152 7.82902 5.49515 7.83548 5.47877L7.8426 5.4637C7.851 5.44929 7.85746 5.43029 7.86522 5.41653C7.97576 5.19314 8.04557 4.9252 8.11991 4.63957C8.27117 4.06634 8.42566 3.47871 8.92663 3.16818C9.14706 3.03192 9.37783 3.01161 9.59955 2.9913C9.78895 2.97623 9.96736 2.95593 10.1315 2.87338C10.2673 2.80394 10.3837 2.70502 10.5058 2.60151C10.6758 2.45607 10.8549 2.30409 11.1025 2.22678C11.129 2.21958 11.1529 2.21303 11.1781 2.20582L11.1968 2.20124C11.2195 2.19468 11.246 2.18879 11.2679 2.18486L11.2815 2.18093C11.3035 2.17569 11.3242 2.17241 11.3455 2.16717L11.3643 2.1652C11.3869 2.16062 11.4095 2.15734 11.4321 2.15145L11.4535 2.14948C11.4709 2.14686 11.4884 2.14358 11.5071 2.14293L11.5278 2.13965C11.5478 2.13703 11.5711 2.13572 11.5918 2.1331C11.5983 2.1331 11.6189 2.13245 11.6189 2.13245C11.6325 2.12917 11.6487 2.12917 11.6642 2.12655C11.6745 2.12655 11.692 2.12655 11.703 2.12655C11.7166 2.12459 11.7295 2.12459 11.7444 2.12328H11.778H11.8122H11.8381H11.8711H11.895C11.9738 2.12459 12.0598 2.12852 12.1548 2.13703H12.1594C12.1923 2.13965 12.2259 2.14293 12.2608 2.14555L12.2764 2.14686C12.3106 2.15079 12.3436 2.15341 12.3772 2.15734C12.458 2.1652 12.533 2.16848 12.606 2.16848C12.8232 2.16848 12.9945 2.1331 13.2298 2.08266C13.4237 2.04008 13.6577 1.99749 13.7922 2.00012Z" fill="#C95665"/>
<mask id="mask0_618_26654" style="mask-type:luminance" maskUnits="userSpaceOnUse" x="1" y="2" width="23" height="20">
<path d="M13.4907 2.15104C13.0344 2.24013 12.8081 2.31744 12.3634 2.27551C11.9594 2.23358 11.5722 2.20476 11.1365 2.34167C10.7473 2.46156 10.5366 2.79698 10.1843 2.97779C9.79905 3.18153 9.36272 3.03609 8.99039 3.26735C8.29549 3.69841 8.31359 4.78263 7.97746 5.46329C7.60448 6.21405 7.76673 7.38081 7.06149 7.95207C7.06149 7.95207 7.01947 7.98548 6.96 7.99923C6.91346 8.00775 6.8249 8.00972 6.8249 8.00972C6.5004 8.0012 5.54435 7.44959 5.12289 7.42667C4.90311 7.41422 4.7958 7.53607 4.58766 7.55572C4.49005 7.56489 4.40343 7.55572 4.32328 7.54852C4.23924 7.54066 4.15909 7.53345 4.06988 7.54131C3.77382 7.57145 3.42605 7.69133 3.16942 7.82301C2.88306 7.96582 2.68785 8.09685 2.44415 8.36282C2.16166 8.67138 2.19592 8.78603 2.03432 9.13193C1.68202 9.89644 1.33102 10.2273 1.48164 11.1091C1.61027 11.8723 2.13387 12.6512 2.55727 13.3155C3.04467 14.0872 4.04273 14.1665 4.72341 14.8386C4.96775 15.0804 5.25799 15.3594 5.46872 15.6221C5.64713 15.8475 6.30518 16.5046 6.3472 16.7411C6.37952 16.9461 6.00977 17.7788 5.91604 18.0041C5.71371 18.4824 5.47195 18.6095 5.74991 19.186C6.08346 19.8673 7.03757 20.2944 7.58767 20.7798C8.32587 21.4297 9.43577 21.1893 10.3401 21.0478C11.2826 20.9004 12.1268 20.7589 12.8605 19.9963C13.2419 19.6006 13.4048 19.1925 14.0441 19.4126C14.5218 19.5738 14.6982 19.9197 15.2089 19.9963C15.7079 20.0684 16.1068 20.0376 16.5541 20.2106C17.0557 20.4064 17.1688 20.6095 17.7325 20.3796C18.3951 20.1103 19.5716 19.8234 20.0324 19.1525C20.1792 18.9423 20.1533 18.6796 20.2509 18.4778C20.3227 18.3343 20.569 18.1148 20.6116 18.0041C20.7099 17.7473 20.7493 16.954 20.6452 16.5963C20.5825 16.3781 20.3434 16.2877 20.2845 16.1351C20.2076 15.9261 20.2768 15.6608 20.1979 15.4505C20.0105 14.9258 19.545 14.4338 19.8825 14.2018C19.9368 14.1698 20.6291 14.192 21.0221 13.9575C21.7538 13.5205 21.9788 12.6178 22.5664 12.0708C22.9213 11.7419 23.2083 11.6122 23.3796 11.1104C23.5218 10.6911 23.6465 10.2306 23.7752 9.78639C24.07 8.76506 23.7093 8.22984 22.8534 7.76405C22.4591 7.55114 22.2238 7.17838 21.8359 7.00739C21.4979 6.85934 20.9019 6.73356 20.558 6.67329C20.0712 6.58878 19.642 6.60253 19.1818 6.48592C18.7726 6.38307 18.3466 6.37455 17.9019 6.44203C17.4326 6.51213 17.0648 6.73618 16.9238 6.0981C16.8353 5.68996 17.0027 5.21107 16.9238 4.78721C16.8023 4.13996 16.428 3.02037 15.7952 2.71574C15.4235 2.53624 14.9982 2.66268 14.5961 2.43601C14.2419 2.23293 14.066 2.14121 13.7209 2.14121C13.651 2.14055 13.5748 2.14317 13.4907 2.15104Z" fill="white"/>
</mask>
<g mask="url(#mask0_618_26654)">
<path d="M24.0676 2.14014H1.33057V21.4293H24.0676V2.14014Z" fill="url(#paint0_radial_618_26654)"/>
</g>
<mask id="mask1_618_26654" style="mask-type:luminance" maskUnits="userSpaceOnUse" x="7" y="2" width="10" height="9">
<path d="M13.6825 2.12321C13.623 2.12911 13.5609 2.13697 13.4898 2.15073C13.0335 2.23982 12.8098 2.30796 12.3644 2.26537C12.2927 2.25686 12.0315 2.24441 11.93 2.24244C11.6734 2.23327 11.4142 2.2562 11.1356 2.34137C10.7464 2.46125 10.5357 2.79667 10.1834 2.97748C9.79815 3.18122 9.36182 3.03579 8.98948 3.26704C8.29458 3.69811 8.31268 4.78232 7.97655 5.46298C7.69859 6.02507 7.72057 6.81645 7.45166 7.4185C7.47041 7.63862 7.51178 7.85087 7.57189 8.0592C7.67467 8.39855 8.32173 8.373 8.20409 9.02549L8.22865 9.13162C8.74708 10.8755 11.8208 10.4438 12.698 9.76184C13.142 9.41266 13.9934 9.13228 14.336 8.69597C14.6346 8.31011 15.6049 8.00155 15.8499 7.58883C16.23 6.94551 16.7219 6.0801 16.6766 5.49181C16.5344 3.67059 15.4465 2.83139 14.6055 2.44029C14.206 2.25555 14.0871 2.12256 13.7322 2.12256C13.7167 2.12256 13.6993 2.12256 13.6825 2.12321Z" fill="white"/>
</mask>
<g mask="url(#mask1_618_26654)">
<path d="M16.7212 2.12256H7.45166V10.8749H16.7212V2.12256Z" fill="url(#paint1_radial_618_26654)"/>
</g>
<mask id="mask2_618_26654" style="mask-type:luminance" maskUnits="userSpaceOnUse" x="8" y="2" width="9" height="11">
<path d="M13.9886 2.3475C13.9278 2.35405 13.8612 2.36584 13.7869 2.37764C13.3169 2.46542 13.0784 2.54928 12.6162 2.50407C12.5406 2.49621 12.2523 2.48049 12.1676 2.47132C11.9039 2.4628 11.633 2.48311 11.3447 2.57221C10.9401 2.69537 10.7196 3.03668 10.3551 3.22601C9.95235 3.43434 9.49986 3.28497 9.11331 3.52146C8.72481 3.75927 8.26844 4.61092 8.12558 5.68334C8.07904 6.04103 8.32209 6.37842 8.27491 6.78524C8.0687 8.52981 8.55803 8.13412 8.92455 8.84099C9.61104 10.1584 9.54188 10.5607 9.19992 10.4893C9.58066 10.9531 9.92973 11.546 9.64789 11.922C10.8205 12.1768 12.3105 11.8539 12.8813 11.4077C13.3486 11.0448 13.9918 10.6897 14.3486 10.2331C14.6583 9.83217 15.2336 8.56191 15.487 8.13674C15.8877 7.47573 16.3215 7.34012 16.633 6.10458C17.1554 4.04556 16.1243 3.16443 15.0312 2.69864C14.6893 2.55386 14.2471 2.34619 14.0222 2.34619C14.0099 2.34619 13.9989 2.34619 13.9886 2.3475Z" fill="white"/>
</mask>
<g mask="url(#mask2_618_26654)">
<path d="M17.1561 2.34619H8.06885V12.1768H17.1561V2.34619Z" fill="url(#paint2_radial_618_26654)"/>
</g>
<mask id="mask3_618_26654" style="mask-type:luminance" maskUnits="userSpaceOnUse" x="6" y="13" width="9" height="9">
<path d="M12.2484 13.298C11.5244 13.4893 10.2251 13.3131 9.59162 13.7527C9.03312 14.1385 8.50823 14.681 8.24126 15.2987C7.58127 16.0279 6.86828 16.6699 6.46944 17.2366C6.026 17.8648 5.94584 18.8593 6.22897 19.4351C7.02406 21.0395 9.0176 21.5452 10.5373 21.0585C12.0124 20.7224 13.8218 20.2959 14.026 18.3064C14.1288 17.3217 14.4009 16.3069 14.0777 15.3963C13.8399 14.7301 13.7817 13.2495 12.6336 13.2495C12.5173 13.2489 12.3887 13.2646 12.2484 13.298Z" fill="white"/>
</mask>
<g mask="url(#mask3_618_26654)">
<path d="M14.4009 13.249H5.9458V21.5454H14.4009V13.249Z" fill="url(#paint3_radial_618_26654)"/>
</g>
<mask id="mask4_618_26654" style="mask-type:luminance" maskUnits="userSpaceOnUse" x="1" y="8" width="9" height="9">
<path d="M1.47633 10.8555C1.46211 11.5775 2.03548 12.357 2.34705 12.9742C2.7989 13.8684 3.21002 13.9064 4.01222 14.3447C4.6832 14.7102 5.10531 15.1386 5.4854 15.877C6.46601 17.7886 7.53324 16.0067 8.38845 15.3077C9.01806 14.7862 9.4059 13.6273 9.22168 12.794C9.09756 12.2417 8.65283 11.4366 8.19711 11.0933L8.48347 11.2879C8.12018 10.9263 8.3962 10.4716 8.23719 10.036C8.09562 9.64683 7.86808 9.17581 7.66382 8.74671C7.36065 8.1047 7.01223 8.26651 6.7026 8.42701C6.53712 8.51283 6.38068 8.59865 6.24817 8.56197C5.84416 8.45584 5.26303 8.32285 4.88294 8.16955C4.62308 8.0667 4.35934 8.01953 4.10207 8.01953C2.73814 8.01953 1.51124 9.35334 1.47633 10.8555Z" fill="white"/>
</mask>
<g mask="url(#mask4_618_26654)">
<path d="M9.4066 8.01953H1.46216V17.7886H9.4066V8.01953Z" fill="url(#paint4_radial_618_26654)"/>
</g>
<mask id="mask5_618_26654" style="mask-type:luminance" maskUnits="userSpaceOnUse" x="13" y="6" width="10" height="10">
<path d="M17.4844 6.68347C17.0758 6.75619 16.6473 7.05754 16.357 7.26193C16.0325 7.52136 15.838 8.17057 15.5089 8.36776C14.7571 8.72349 14.7332 8.90758 14.3221 9.5699C13.9847 10.1143 13.5593 10.8795 13.2271 11.471C13.2213 11.701 13.2407 11.9309 13.2833 12.153C13.3499 12.5238 13.7707 13.1167 13.7597 13.4429L13.7765 13.3139C14.1204 15.2039 17.9213 15.7758 17.22 14.8534C15.4152 12.4747 18.2271 11.3086 18.5813 11.7534C20.7888 14.537 21.6796 12.8998 21.8916 12.6149C22.3467 11.9919 22.6996 11.3584 22.8115 10.7465C23.5154 6.79353 21.3299 7.34906 20.0985 6.80663C20.039 6.80401 19.9744 6.80466 19.8987 6.80859C19.4262 6.83676 19.1851 6.88852 18.7358 6.78173C18.6641 6.76405 18.5917 6.74832 18.5212 6.72933C18.4546 6.72408 18.3822 6.71098 18.3014 6.69133C18.1579 6.66709 18.0112 6.65137 17.8593 6.65137C17.7384 6.65137 17.6143 6.66054 17.4844 6.68347Z" fill="white"/>
</mask>
<g mask="url(#mask5_618_26654)">
<path d="M23.5156 6.65137H13.2214V15.7758H23.5156V6.65137Z" fill="url(#paint5_radial_618_26654)"/>
</g>
<mask id="mask6_618_26654" style="mask-type:luminance" maskUnits="userSpaceOnUse" x="6" y="7" width="14" height="13">
<path d="M17.0932 14.5483C17.1009 14.549 17.1068 14.5457 17.1113 14.5405C17.1145 14.5359 17.1152 14.5306 17.1132 14.5306C17.1106 14.5306 17.1035 14.5352 17.0932 14.5483ZM16.3285 7.25559C16.2141 7.38071 16.0958 7.50191 16.0356 7.60476C15.874 7.87532 15.7958 8.02272 15.4888 8.19764C15.278 8.31687 15.1164 8.37059 14.9632 8.54813C14.8152 8.71911 14.7027 8.90189 14.5735 9.08663C14.3226 9.44432 13.8385 9.53014 13.4041 9.53735C13.2987 9.54128 13.1966 9.53538 13.0977 9.53145C12.4998 9.92649 11.8695 10.1532 11.2935 10.009C10.94 9.92059 10.4952 9.2812 10.161 9.33033C9.82489 9.38209 10.3537 9.55766 10.0873 9.84918C9.78998 10.1708 9.43122 9.90552 9.17912 9.6402C9.00782 9.45939 8.88565 9.27661 8.86755 9.28185C8.7958 9.30609 8.87983 9.49346 8.87207 9.58321C8.8585 9.77122 8.68914 9.88521 8.66975 10.0791C8.651 10.2685 8.67686 10.3752 8.70013 10.4755C8.72857 10.5901 8.78352 10.7375 8.77705 10.9367C8.76865 11.2714 8.77059 11.1627 8.75701 11.4981C8.72922 12.1617 8.45708 12.4395 8.29612 13.094C8.12223 13.81 8.85333 14.1873 7.9742 15.5238C7.68073 15.9686 6.36592 16.5896 6.44802 17.1157C6.81906 17.0502 7.02721 16.6309 7.29159 16.3571C7.92443 15.7131 9.64906 15.0331 10.662 14.9853C11.7195 14.9355 10.7066 16.1239 11.002 16.3571C11.2884 16.5824 10.7124 17.2074 11.0382 17.0508C11.3763 16.8858 11.8359 15.3299 12.0208 14.9479C12.1423 14.6977 13.8146 10.7683 13.8592 16.6977C13.8637 17.2611 14.194 17.5343 14.0382 18.0781C13.9645 18.3342 12.9826 19.7604 14.5974 19.5999C14.8126 18.3624 13.8908 17.4852 14.3679 16.8818C14.6206 16.5602 15.5127 16.5025 15.4965 16.0839C15.4597 15.1661 15.8799 15.187 16.2658 15.2074C16.5036 15.2211 16.7292 15.2336 16.8294 15.0265C16.9846 14.7062 17.0602 14.5883 17.0932 14.5483C17.079 14.5463 17.0563 14.5188 17.0479 14.4107C17.0072 14.0046 17.366 13.9993 17.1972 13.6141C17.5832 13.7071 17.6866 13.3213 18.0053 13.2342C18.2205 13.1739 18.6588 13.1994 18.8818 13.2348C19.4125 13.3213 19.6743 14.1965 19.7842 14.1435C19.907 13.9541 19.6097 13.4877 19.3311 13.2302C19.1068 13.0206 18.8385 12.5967 18.6569 12.3543C18.386 11.998 18.5612 11.5132 18.1649 11.3081C18.0434 11.2446 17.9464 11.2662 17.8288 11.2885C17.6523 11.3219 17.4358 11.354 17.0337 11.1063C14.9374 12.6125 16.7105 10.3418 16.5844 9.78498C16.3291 9.05256 15.7622 8.839 16.3576 7.26148C16.3601 7.25362 16.3556 7.24707 16.3472 7.24707C16.3414 7.24707 16.3356 7.251 16.3285 7.25559Z" fill="white"/>
</mask>
<g mask="url(#mask6_618_26654)">
<path d="M19.9071 7.24707H6.36792V19.7604H19.9071V7.24707Z" fill="url(#paint6_radial_618_26654)"/>
</g>
<path fill-rule="evenodd" clip-rule="evenodd" d="M9.69597 14.835C9.47684 14.6745 9.69597 14.1111 9.95777 13.8288C10.2176 13.5471 10.6178 13.0878 10.513 13.0348C10.409 12.981 9.95777 13.0878 9.8175 13.0348C9.67916 12.981 10.5997 12.6116 10.7037 12.5591C10.8091 12.5054 10.0437 12.2938 9.76514 12.2591C9.48782 12.2244 8.91316 12.3115 8.96488 12.1877C9.01853 12.0658 9.34885 11.9067 9.41801 11.8359C9.48718 11.7658 8.98297 11.5011 8.94807 11.3767C8.91252 11.2535 9.05279 11.1297 9.57315 11.2535C10.0955 11.3767 10.5305 11.3236 10.7567 11.3767C10.981 11.4304 11.1039 11.4828 11.1905 11.5359C11.2784 11.5896 11.3404 11.397 11.4122 11.4265C11.4846 11.4559 11.6488 11.564 11.6637 11.4559C11.6779 11.3465 11.5913 11.15 11.4484 11.019C11.3049 10.8893 11.0748 10.6266 11.047 10.5335C11.0185 10.4392 10.9041 10.2138 11.0334 10.1621C11.1627 10.1116 11.2758 10.1562 11.3495 10.1261C11.4206 10.0966 11.5499 9.90004 11.7348 9.98193C11.9216 10.0612 12.0076 10.1339 12.0651 10.1791C12.122 10.221 12.2299 10.2492 12.3152 10.221C12.4019 10.1916 12.5454 10.0167 12.7096 10.1182C12.8744 10.221 13.1692 10.4595 13.4342 10.4019C13.6986 10.3442 13.8498 10.2132 13.9287 10.0527C14.0076 9.89349 14.2299 9.39167 14.323 9.29734C14.4154 9.20235 14.6527 9.01433 14.6171 9.08639C14.5822 9.15845 14.345 9.68975 14.3592 9.95835C14.3734 10.2276 14.3172 10.2925 14.4019 10.3586C14.4885 10.4235 14.5964 10.4019 14.6882 10.3586C14.782 10.3154 14.9332 10.2066 14.9539 10.2721C14.9759 10.335 14.4238 10.7137 14.2597 10.8749C14.0935 11.0334 13.9358 11.3609 14.016 11.4913C14.0935 11.6223 14.4096 11.5634 14.5674 11.5634C14.7264 11.5634 15.0619 11.5863 15.0198 11.6656C14.9772 11.7442 14.4103 12.13 14.4103 12.1956C14.4103 12.2617 14.7529 12.3849 14.9494 12.3914C15.142 12.4 15.6003 12.4727 15.78 12.5146C15.9584 12.5591 16.1084 12.5519 16.1446 12.6528C16.1802 12.7537 16.2377 12.8422 16.173 12.8487C16.1084 12.8572 15.7218 12.7983 15.5926 12.7478C15.4633 12.6961 14.7975 12.5441 14.6469 12.5519C14.4962 12.5591 14.0528 12.5447 13.9746 12.6961C13.8944 12.8487 14.2241 12.9516 14.2952 13.0171C14.3683 13.0832 14.6339 13.3656 14.4685 13.3951C14.3036 13.4246 14.1672 13.2994 14.1039 13.2791C14.0399 13.2568 13.7807 13.0754 13.7154 13.0236C13.6514 12.9738 13.3715 12.6686 13.2357 12.6823C13.1 12.6961 12.8188 12.7485 12.6617 12.8494C12.5033 12.9522 12.3327 13.1481 12.2383 13.2568C12.1459 13.3656 11.7651 13.6132 11.6081 13.7442C11.4503 13.8733 10.5822 14.5717 10.4258 14.6889C10.2655 14.8055 9.87567 14.9641 9.69597 14.835Z" fill="white"/>
<path fill-rule="evenodd" clip-rule="evenodd" d="M12.2006 9.62463C12.1379 9.52899 12.1618 9.30232 12.2141 9.16147C12.26 9.03831 12.6317 8.34782 13.0163 8.48015C13.1728 8.53321 13.2743 8.59938 13.3195 8.76709C13.3964 9.0442 13.4068 9.46544 13.1947 9.6777C12.8935 9.9856 12.3719 9.8834 12.2006 9.62463Z" fill="#A02031"/>
<path fill-rule="evenodd" clip-rule="evenodd" d="M10.3986 10.4634C10.5066 10.4438 10.6494 10.3088 10.6733 10.2001C10.7076 10.0546 10.992 10.0415 11.0043 9.98518C11.0185 9.92622 10.7128 9.16628 10.5473 9.09815C10.3463 9.01299 10.2881 9.15187 10.1084 9.13615C9.97004 9.12305 9.84722 9.06802 9.76384 9.22066C9.63585 9.45519 9.39861 9.75785 9.58737 10.0147C9.7787 10.2721 10.0541 10.5309 10.3986 10.4634Z" fill="#A02031"/>
<path fill-rule="evenodd" clip-rule="evenodd" d="M14.7029 11.0727C14.6518 11.1304 14.5394 11.1749 14.4683 11.0983C14.6964 10.8225 14.8852 10.7203 15.1645 10.508C15.2634 10.3986 15.1832 9.93742 15.2356 9.78543C15.2886 9.63214 15.7559 9.3072 15.9602 9.4166C16.0675 9.47294 16.1664 9.5057 16.2272 9.60004C16.3409 9.77168 16.3338 10.0665 16.3377 10.2001C16.3442 10.3894 16.2427 10.5237 16.1884 10.7052C16.1367 10.8788 15.8277 10.852 15.6874 10.8657C15.5019 10.8827 15.3254 10.7393 15.1502 10.8487C15.0526 10.9083 14.7824 10.983 14.7029 11.0727Z" fill="#A02031"/>
<path fill-rule="evenodd" clip-rule="evenodd" d="M12.6146 11.7207C12.6747 11.6041 12.6114 11.4371 12.6295 11.3146C12.6444 11.2176 12.678 11.0676 12.5739 11.0073C12.5248 11.236 12.4879 11.4973 12.572 11.7188C12.5823 11.7469 12.612 11.7227 12.6146 11.7207Z" fill="#A02031"/>
<path fill-rule="evenodd" clip-rule="evenodd" d="M8.37395 12.341C8.61636 11.9853 8.88785 11.8635 9.20718 11.8025C9.213 11.7586 9.12056 11.7259 9.08566 11.7259C8.86717 11.6807 8.69975 11.5483 8.56141 11.3787C8.29057 11.0465 8.13219 10.7779 7.68617 10.9168C7.21428 11.0629 7.19554 11.8497 7.3287 12.2316C7.48578 12.6909 8.09858 12.7459 8.37395 12.341Z" fill="#A02031"/>
<path fill-rule="evenodd" clip-rule="evenodd" d="M17.7105 11.7508C18.1972 11.5641 18.5903 11.8078 18.3511 12.2172C18.2289 12.4268 18.269 12.6705 18.1294 12.8815C18.0214 13.0492 17.7519 13.1416 17.5502 13.0689C17.3666 13.0033 17.11 12.888 16.9813 12.7511C16.8314 12.5946 16.7887 12.4688 16.5437 12.4046C16.1475 12.2998 15.715 12.4006 15.3291 12.2519C15.77 12.0259 16.2742 12.2716 16.7363 12.2395C16.9361 12.2251 17.0764 11.8674 17.7105 11.7508Z" fill="#A02031"/>
<path fill-rule="evenodd" clip-rule="evenodd" d="M15.3137 12.2406C15.1922 12.1735 15.0558 12.1695 14.9666 12.228C15.0499 12.2479 15.2348 12.2752 15.3137 12.2406Z" fill="#A02031"/>
<path fill-rule="evenodd" clip-rule="evenodd" d="M9.34578 13.6684C8.90428 13.1351 7.96762 14.1519 7.89975 14.218C7.83317 14.2875 7.65605 14.4192 7.63666 14.4906C7.58171 14.7015 8.06458 14.9845 8.21585 15.0716C8.41365 15.1896 8.5843 15.4883 8.8558 15.2787C9.12277 15.0762 9.14798 14.8804 9.21779 14.5639C9.28049 14.2849 9.39426 13.9966 9.60758 13.7981C9.8196 13.5983 10.0795 13.4489 10.2559 13.2098C9.82865 13.1758 9.65606 13.5295 9.34578 13.6684Z" fill="#A02031"/>
<path fill-rule="evenodd" clip-rule="evenodd" d="M15.9447 11.353C15.8607 11.0097 15.2615 11.37 15.1128 11.3386C15.2828 11.3818 15.5304 11.3707 15.7553 11.4047C15.8219 11.4178 15.9596 11.4263 15.9447 11.353Z" fill="#A02031"/>
<path fill-rule="evenodd" clip-rule="evenodd" d="M13.3704 13.3247C13.5404 13.419 13.5979 13.6562 13.7718 13.7616C13.9205 13.8494 14.1364 13.9628 14.2825 14.0761C14.36 14.137 14.4467 14.4233 14.3154 14.4869C14.1215 14.5832 14.0511 14.2052 13.9547 14.5222C13.8558 14.8373 13.4777 14.9861 13.404 15.3234C13.3536 15.5586 13.1933 15.8796 13.3406 16.1056C13.3859 16.177 13.4602 16.2085 13.5385 16.219C13.7182 16.2419 13.7434 16.2295 13.8966 16.3284C14.0866 16.4515 14.2437 16.5046 14.4499 16.4103C14.6516 16.3159 14.8119 16.1731 14.8565 15.9432C14.8319 15.6949 14.7447 15.4518 14.7511 15.1996C14.7576 14.9474 14.8701 14.7974 14.7401 14.5465C14.6374 14.3454 14.5462 14.2405 14.371 14.1056C14.2372 14.0021 14.1907 13.8108 14.0931 13.6719C13.9321 13.4433 13.6451 13.1786 13.5436 13.0679C13.4402 12.9565 13.3284 12.8844 13.1584 12.8858C12.9864 12.8858 12.7382 13.0757 12.616 13.2264C12.4576 13.419 12.2398 13.5278 12.0737 13.6883C11.8946 13.8638 11.934 14.1311 11.8423 14.3499C11.766 14.536 11.618 14.7555 11.5999 14.9605C11.7227 14.8911 11.808 14.6965 11.8823 14.5825C11.9379 14.498 11.9922 14.4115 12.0582 14.3349C12.1241 14.2504 12.2262 14.2477 12.3012 14.177C12.5165 13.968 12.5391 13.704 12.6794 13.4682C12.8002 13.2703 13.1952 13.2336 13.3704 13.3247Z" fill="#A02031"/>
<path fill-rule="evenodd" clip-rule="evenodd" d="M17.4197 15.4496C17.4061 15.316 17.3615 15.181 17.3919 15.0467C17.4307 14.8764 17.3758 14.7414 17.2962 14.5816C17.2032 14.4014 16.9207 13.9756 16.6692 14.0916C16.5826 14.1309 16.4966 14.239 16.3906 14.1774C16.2639 14.1034 16.2238 13.9894 16.0674 13.9337C15.9239 13.8846 15.772 13.8616 15.6259 13.8223C15.5296 13.7981 15.443 13.7719 15.3208 13.7607C15.4158 13.9664 15.752 14.0942 15.9161 14.2331C16.2756 14.5344 16.1036 14.879 16.0803 15.2649C16.0732 15.3848 16.0377 15.5485 16.1172 15.6638C16.196 15.7791 16.494 15.8008 16.5645 15.8433C16.6039 15.8689 16.9692 15.9966 17.1269 15.9075C17.2833 15.8191 17.432 15.5525 17.4197 15.4496Z" fill="#A02031"/>
<path fill-rule="evenodd" clip-rule="evenodd" d="M13.4264 18.9715C13.5349 18.9493 13.6797 19.0646 13.9163 19.1563C14.1523 19.2487 14.3436 19.3024 14.5337 19.3129C14.7244 19.3214 15.0786 19.5428 15.1419 19.6706C15.2053 19.8003 15.2428 20.1501 15.1329 20.3525C15.0236 20.555 14.833 20.8229 14.9331 21.2631C15.0327 21.7053 15.2143 21.8711 14.8963 21.8429C14.5796 21.8154 14.343 21.7053 14.1607 21.6516C13.979 21.5966 13.7159 21.5658 13.5162 21.3195C13.3165 21.0692 13.1898 21.1151 12.862 20.9133C12.5349 20.7128 12.3346 20.2883 12.4981 20.1049C12.6623 19.9215 13.1613 19.4688 13.2247 19.3672C13.2887 19.2663 13.3798 18.9814 13.4264 18.9715Z" fill="#A02031"/>
<path fill-rule="evenodd" clip-rule="evenodd" d="M19.9075 16.3675C19.9075 16.2647 20.1434 16.1074 20.1589 16.0406C20.1731 15.9745 20.1809 15.582 20.1382 15.4157C20.0949 15.2486 20.0671 15.0665 20.1874 14.9866C20.3095 14.9066 20.6476 14.7972 20.8474 14.885C21.049 14.9728 21.2119 15.0534 21.3994 15.1248C21.5849 15.1982 22.073 15.4536 22.1583 15.6331C22.2449 15.8159 22.36 16.0125 22.23 16.2057C22.102 16.4042 22.1027 16.5411 22.0012 16.6289C21.9094 16.7108 21.656 16.8975 21.5203 17.0724C21.3832 17.248 21.2837 17.6175 21.1189 17.6968C20.9553 17.7773 20.6243 17.8802 20.53 17.7629C20.4375 17.6463 20.3878 17.3928 20.4091 17.2912C20.4311 17.1897 20.6599 17.0004 20.603 16.8333C20.5455 16.6663 20.3794 16.644 20.2009 16.5785C20.0219 16.513 19.9075 16.4697 19.9075 16.3675Z" fill="#A02031"/>
<path fill-rule="evenodd" clip-rule="evenodd" d="M4.65211 17.8489C4.5642 17.7519 4.47693 17.6713 4.52024 17.5757C4.5642 17.4774 4.67409 17.2711 4.69542 17.1079C4.71675 16.9461 4.71029 16.5596 4.69542 16.4489C4.68185 16.3375 4.75425 16.1679 4.78463 16.0644C4.81242 15.9595 4.77687 15.7669 4.96692 15.7008C5.15696 15.6326 5.35347 15.6556 5.52154 15.685C5.6909 15.7145 6.02704 15.8043 6.12077 15.989C6.21708 16.1744 6.27461 16.3899 6.38515 16.4627C6.49439 16.5367 6.83053 16.6861 6.83829 16.7385C6.8454 16.7883 6.77235 16.8557 6.65341 17.0641C6.53835 17.2704 6.54481 17.805 6.53059 17.9085C6.51637 18.012 6.52348 18.4051 6.39161 18.4929C6.2591 18.5833 6.04772 18.4929 5.85768 18.3972C5.66892 18.2996 5.39549 18.1948 5.28754 18.0939C5.19122 18.0035 5.19316 17.8869 5.12658 17.8567C5.06065 17.8266 4.74002 17.9458 4.65211 17.8489Z" fill="#A02031"/>
<path fill-rule="evenodd" clip-rule="evenodd" d="M11.7583 15.9154C11.8346 15.9973 11.8598 16.2541 11.8572 16.3294C11.8495 16.4827 11.8372 16.693 11.7596 16.7932C11.684 16.8922 11.4203 17.0363 11.3427 17.0658C11.2632 17.0926 11.0247 17.1765 10.8928 17.0573C10.8346 17.0068 10.6342 16.8666 10.5715 16.7415C10.5082 16.6137 10.4384 16.1375 10.6782 15.8669C10.7926 15.7372 10.9995 15.7248 11.1326 15.6127C11.2522 15.5105 11.3627 15.3959 11.492 15.3081C11.5017 15.4398 11.3983 15.6009 11.4881 15.7208C11.5515 15.8047 11.6834 15.8335 11.7583 15.9154Z" fill="#A02031"/>
<path fill-rule="evenodd" clip-rule="evenodd" d="M14.7425 12.9084C14.5757 12.8861 14.5021 12.8291 14.323 12.8343C14.4277 12.9902 14.6934 12.9653 14.8602 13.0282C14.9377 13.0571 14.9907 13.1127 15.047 13.1455C15.2273 13.251 15.5641 13.3741 15.61 13.4324C15.6553 13.4881 15.9849 13.6336 16.162 13.5622C16.2383 13.5353 16.3715 13.5045 16.3379 13.4075C16.1957 13.1134 15.7897 13.2189 15.5732 13.0787C15.5008 13.0361 15.5014 12.9791 15.3967 12.9601C15.2933 12.9398 15.1704 12.9536 15.0935 12.9215C15.0179 12.888 14.8589 12.9221 14.7425 12.9084Z" fill="#A02031"/>
<path fill-rule="evenodd" clip-rule="evenodd" d="M12.7837 10.2695C12.7837 10.2695 12.7863 10.3147 12.7585 10.4405C12.7339 10.565 12.6777 10.8375 12.7895 11.0537C12.7895 11.0537 12.8515 10.9829 12.8347 10.7884C12.8205 10.5925 12.8515 10.5702 12.8528 10.5073C12.8541 10.4405 12.7837 10.2695 12.7837 10.2695Z" fill="#A02031"/>
<path fill-rule="evenodd" clip-rule="evenodd" d="M12.0468 12.5681C12.1204 12.6598 12.019 12.8046 11.9608 12.8858C11.8942 12.9736 11.7862 13.024 11.5723 13.2533C11.357 13.4852 11.1288 13.7479 11.0694 13.8265C11.0131 13.9065 10.8748 14.1187 10.8231 14.0716C10.7727 14.025 10.9278 13.7283 10.9666 13.6628C11.0067 13.5972 11.2336 13.2815 11.3118 13.2343C11.3906 13.1885 11.7947 12.8458 11.7804 12.7993C11.7681 12.7535 11.6311 12.7653 11.5658 12.779C11.5018 12.7928 11.1961 12.9041 11.1095 12.9251C11.0261 12.9448 10.9213 12.891 11.0448 12.7862C11.1683 12.6807 11.2012 12.6611 11.2659 12.6473C11.3312 12.6336 11.5128 12.6283 11.5516 12.589C11.591 12.5497 11.5968 12.4239 11.5587 12.3977C11.5206 12.3709 11.4617 12.3899 11.4094 12.3899C11.357 12.3899 10.7384 12.2792 10.635 12.2589C10.5296 12.2385 9.9388 12.0813 9.83472 12.061C9.73 12.0407 9.71772 11.9673 9.88708 11.9673C10.0564 11.9673 10.3628 12.0269 10.4734 12.0269C10.5833 12.0269 10.7138 12.0079 10.8308 12.0138C10.9472 12.0217 11.2788 12.0807 11.3751 12.0479C11.474 12.0138 11.6117 11.9542 11.6311 11.8894C11.6505 11.8232 11.6641 11.7439 11.6053 11.685C11.5471 11.6247 11.2846 11.4465 11.2135 11.3083C11.1444 11.1701 11.0707 11.0318 11.0002 10.9912C10.9285 10.9519 10.805 10.9316 10.7533 10.8582C10.7009 10.7868 10.6744 10.5883 10.7656 10.6276C10.858 10.6682 11.1056 10.8006 11.1444 10.8536C11.1831 10.906 11.2484 11.0384 11.326 11.1294C11.4049 11.2212 11.5736 11.3797 11.6511 11.4269C11.7294 11.4727 11.8864 11.5906 11.9317 11.6896C12.1786 11.704 12.2303 11.6896 12.3932 11.6981C12.5555 11.7046 12.8089 11.7295 12.8612 11.7564C12.9136 11.7839 13.0888 11.8691 13.1476 11.8088C13.2058 11.7498 13.3687 11.4013 13.4333 11.3148C13.4986 11.2284 13.7979 10.8543 13.8574 10.7541C13.9149 10.6571 14.2659 10.3721 14.2989 10.3937C14.3312 10.4121 14.4029 10.4579 14.2717 10.5772C14.1431 10.6944 13.7727 11.0646 13.719 11.1563C13.6667 11.2506 13.4585 11.5919 13.4204 11.6653C13.3816 11.7374 13.2717 11.816 13.304 11.8625C13.3364 11.9077 13.5516 11.9673 13.5969 12.0138C13.6421 12.0604 13.7798 12.3106 13.6815 12.3774C13.5846 12.4429 13.4663 12.382 13.3816 12.2903C13.2969 12.1992 13.2523 12.1003 13.1612 12.04C13.0694 11.9804 12.9582 11.9483 12.7901 11.8894C12.6201 11.8298 12.2433 11.816 12.1392 11.8422C12.0345 11.8697 11.8263 11.9424 11.8218 12.0604C11.8121 12.1789 11.8502 12.3263 12.0468 12.5681Z" fill="#A02031"/>
<path fill-rule="evenodd" clip-rule="evenodd" d="M12.3393 11.5015C12.2818 11.5015 12.0872 11.322 12.0206 11.1923C11.9541 11.0586 11.8196 10.809 11.7737 10.7494C11.7278 10.6905 11.7026 10.5594 11.6554 10.5195C11.6115 10.4795 11.4027 10.2286 11.4608 10.1958C11.5203 10.1624 11.7336 10.3806 11.7595 10.4402C11.7866 10.4998 11.9941 10.7894 12.0471 10.8608C12.0989 10.9342 12.2553 11.1844 12.2941 11.2571C12.3335 11.3298 12.3981 11.5015 12.3393 11.5015Z" fill="#A02031"/>
<defs>
<radialGradient id="paint0_radial_618_26654" cx="0" cy="0" r="1" gradientUnits="userSpaceOnUse" gradientTransform="translate(12.6603 11.7076) scale(10.3435 10.4827)">
<stop stop-color="white"/>
<stop offset="0.0675" stop-color="white"/>
<stop offset="0.1978" stop-color="#FAEDEF"/>
<stop offset="0.3804" stop-color="#F2D3D9"/>
<stop offset="0.6619" stop-color="#DC959B"/>
<stop offset="0.8889" stop-color="#CE6774"/>
<stop offset="1" stop-color="#C95666"/>
</radialGradient>
<radialGradient id="paint1_radial_618_26654" cx="0" cy="0" r="1" gradientUnits="userSpaceOnUse" gradientTransform="translate(11.7505 3.43799) scale(7.96778 8.075)">
<stop stop-color="#C95666"/>
<stop offset="0.2086" stop-color="#C95666"/>
<stop offset="0.298" stop-color="#CA5B6A"/>
<stop offset="0.4185" stop-color="#CF6B76"/>
<stop offset="0.5569" stop-color="#D7848C"/>
<stop offset="0.7085" stop-color="#E2A7AC"/>
<stop offset="0.8693" stop-color="#F2D3D8"/>
<stop offset="0.8712" stop-color="#F2D3D9"/>
<stop offset="1" stop-color="#F2D3D9"/>
</radialGradient>
<radialGradient id="paint2_radial_618_26654" cx="0" cy="0" r="1" gradientUnits="userSpaceOnUse" gradientTransform="translate(12.7381 4.9741) scale(8.85828 8.54751)">
<stop stop-color="#C95666"/>
<stop offset="0.0956" stop-color="#CA5A69"/>
<stop offset="0.2053" stop-color="#CE6673"/>
<stop offset="0.3219" stop-color="#D47B84"/>
<stop offset="0.4434" stop-color="#DD989E"/>
<stop offset="0.5675" stop-color="#EABCC1"/>
<stop offset="0.638" stop-color="#F2D3D9"/>
<stop offset="0.7246" stop-color="#F4D8DD"/>
<stop offset="0.837" stop-color="#F7E5E8"/>
<stop offset="0.9631" stop-color="#FEF9FA"/>
<stop offset="1" stop-color="white"/>
</radialGradient>
<radialGradient id="paint3_radial_618_26654" cx="0" cy="0" r="1" gradientUnits="userSpaceOnUse" gradientTransform="translate(9.27989 14.7764) scale(5.75805 5.83554)">
<stop stop-color="white"/>
<stop offset="0.1712" stop-color="#FAEDEF"/>
<stop offset="0.411" stop-color="#F2D3D9"/>
<stop offset="0.6787" stop-color="#DC959B"/>
<stop offset="0.8944" stop-color="#CE6774"/>
<stop offset="1" stop-color="#C95666"/>
</radialGradient>
<radialGradient id="paint4_radial_618_26654" cx="0" cy="0" r="1" gradientUnits="userSpaceOnUse" gradientTransform="translate(9.30615 13.1036) scale(7.32448 7.42304)">
<stop stop-color="white"/>
<stop offset="0.0675" stop-color="white"/>
<stop offset="0.2183" stop-color="#FAEDEF"/>
<stop offset="0.4294" stop-color="#F2D3D9"/>
<stop offset="0.6887" stop-color="#DC959B"/>
<stop offset="0.8977" stop-color="#CE6774"/>
<stop offset="1" stop-color="#C95666"/>
</radialGradient>
<radialGradient id="paint5_radial_618_26654" cx="0" cy="0" r="1" gradientUnits="userSpaceOnUse" gradientTransform="translate(26.7402 6.43188) scale(14.6834 14.881)">
<stop stop-color="#C95666"/>
<stop offset="0.3067" stop-color="#C95666"/>
<stop offset="0.368" stop-color="#CB5F6D"/>
<stop offset="0.4741" stop-color="#D37982"/>
<stop offset="0.6125" stop-color="#E0A2A7"/>
<stop offset="0.7607" stop-color="#F2D3D9"/>
<stop offset="1" stop-color="#F2D3D9"/>
</radialGradient>
<radialGradient id="paint6_radial_618_26654" cx="0" cy="0" r="1" gradientUnits="userSpaceOnUse" gradientTransform="translate(13.1346 13.4193) scale(7.65887 7.76193)">
<stop stop-color="white"/>
<stop offset="0.092" stop-color="white"/>
<stop offset="0.2096" stop-color="#FAEDEF"/>
<stop offset="0.3742" stop-color="#F2D3D9"/>
<stop offset="0.4169" stop-color="#EBC1C6"/>
<stop offset="0.5149" stop-color="#DE9BA1"/>
<stop offset="0.61" stop-color="#D57D85"/>
<stop offset="0.7001" stop-color="#CE6774"/>
<stop offset="0.7833" stop-color="#CA5A6A"/>
<stop offset="0.8528" stop-color="#C95666"/>
<stop offset="1" stop-color="#C95666"/>
</radialGradient>
</defs>
</svg>
