<svg width="24" height="24" viewBox="0 0 24 24" fill="none" xmlns="http://www.w3.org/2000/svg">
<g clip-path="url(#clip0_618_26644)">
<rect width="24" height="24" rx="12" fill="white"/>
<path d="M19.1744 20.9706H6.00195L7.43749 17.248H20.6056L19.1744 20.9706Z" fill="white"/>
<path d="M12.177 19.4342H13.0971L13.0599 18.3364L12.177 19.4342Z" fill="#E60012"/>
<path d="M17.4275 13.5223C14.9717 15.91 11.3066 14.3829 11.6812 11.454C11.9663 9.1902 14.7417 6.94016 16.838 5.71874C16.8462 5.71048 16.8462 5.69809 16.8394 5.68983C16.5653 5.43095 15.9964 4.83608 15.6245 4.39406C14.6095 3.16851 12.8286 3.12032 11.7708 4.46291L5.73527 5.02335C5.7091 5.02335 5.7091 5.05915 5.73527 5.06191L12.2032 5.43508C13.3506 5.49842 13.7252 6.5422 12.6192 7.37942C8.50923 10.4942 7.77648 13.7853 8.69379 16.4003C8.70068 16.4168 8.67589 16.4292 8.66624 16.414C8.2861 15.8784 8.0065 15.2243 7.85086 14.5385C5.87714 13.302 4.27392 10.9404 4.27392 8.02387C4.27392 3.78679 7.72828 0.298812 12.0008 0.298812C16.2705 0.298812 19.7263 3.78679 19.7263 8.02387C19.7263 10.3166 18.7208 12.2609 17.4275 13.5223ZM18.9384 20.7681H15.2237L16.5419 17.3366H18.1768L17.1369 20.0411H19.218L18.9384 20.7681ZM13.1481 20.7681L13.1205 20.092H11.644L11.0986 20.7681H9.74883L12.4911 17.5914C12.622 17.4385 12.8148 17.3366 12.9938 17.3366H14.4579L14.7844 20.7681H13.1481ZM7.54509 20.8811C7.10572 20.8811 6.7242 20.8384 6.40879 20.7681L6.68701 20.0383C7.43491 20.1278 8.08088 20.0631 8.3288 19.4063L9.12628 17.3366H10.7612L9.88381 19.6197C9.4348 20.786 8.33155 20.8811 7.54509 20.8811ZM23.9533 13.0596C24.0318 12.2981 24.0111 11.2089 23.8927 10.402C23.8927 10.3868 23.8789 10.3868 23.8734 10.402C23.6255 11.5724 22.8707 13.1533 21.2372 14.4449C21.222 14.4587 21.2055 14.4394 21.2179 14.4256C22.6503 12.8957 23.507 11.0065 23.642 9.06627C23.3679 7.99495 22.9492 6.95943 22.4203 6.0451C22.4134 6.03683 22.3997 6.03959 22.4038 6.05336C22.693 8.01698 22.2275 10.6099 20.3254 12.7126C20.313 12.7264 20.2923 12.7126 20.302 12.6933C21.9451 10.3359 22.3694 7.45929 21.6545 4.87326C19.4659 1.91956 15.9592 0 12.0008 0C8.04369 0 4.53424 1.91956 2.34703 4.87326C1.63081 7.45929 2.05641 10.3359 3.69681 12.6933C3.70783 12.7126 3.68717 12.7264 3.67478 12.7126C1.77268 10.6099 1.30851 8.01698 1.59913 6.05336C1.60051 6.03959 1.58674 6.03683 1.57847 6.0451C1.05095 6.95943 0.632242 7.99495 0.360906 9.06627C0.493131 11.0065 1.34846 12.8957 2.78364 14.4256C2.79741 14.4394 2.77675 14.4587 2.76436 14.4449C1.12946 13.1533 0.371925 11.5724 0.126759 10.402C0.124005 10.3868 0.104722 10.3868 0.104722 10.402C-0.0109744 11.2089 -0.0316344 12.2981 0.0468737 13.0596C0.460075 14.3513 1.34157 15.435 2.24373 16.2144C2.25888 16.2309 2.24373 16.2474 2.22582 16.2391C1.21761 15.6126 0.655656 14.9985 0.272757 14.4587C0.263115 14.4449 0.249342 14.4504 0.253474 14.4642C1.36361 19.8538 6.19255 24 12.0008 24C17.8076 24 22.6407 19.8538 23.7467 14.4642C23.7508 14.4504 23.7371 14.4449 23.7302 14.4587C23.3473 14.9985 22.7826 15.6126 21.773 16.2391C21.7564 16.2474 21.7427 16.2309 21.7578 16.2144C22.66 15.435 23.5401 14.3513 23.9533 13.0596Z" fill="#E60012"/>
</g>
<defs>
<clipPath id="clip0_618_26644">
<rect width="24" height="24" rx="12" fill="white"/>
</clipPath>
</defs>
</svg>
