<svg width="24" height="24" viewBox="0 0 24 24" fill="none" xmlns="http://www.w3.org/2000/svg">
<rect width="24" height="24" rx="12" fill="white"/>
<path d="M10.2653 10.6071L16.417 4.35364C17.0735 3.74355 17.8424 3.24785 18.7802 3H17.7487H15.5543H12.6097C12.5347 3 12.4597 3 12.3847 3C12.3471 3 12.3096 3 12.2721 3C12.2534 3 12.2159 3 12.1971 3C12.0096 3.01907 11.822 3.0572 11.6157 3.09533C11.5969 3.09533 11.5969 3.09533 11.5782 3.09533C11.5407 3.09533 11.5032 3.11439 11.4656 3.11439C10.8655 3.26691 10.3216 3.55289 9.87145 3.9342C9.74016 4.02953 9.60888 4.14392 9.49634 4.27737L2.03174 11.9226H7.17069C8.37103 11.9226 9.45883 11.4269 10.2653 10.6071Z" fill="#98694C"/>
<path d="M9.53366 13.2188L3.41943 19.4341C2.78175 20.0442 1.99403 20.5399 1 20.8259H2.0503H4.24466H7.17049C7.24551 20.8259 7.32053 20.8259 7.39555 20.8259C7.43306 20.8259 7.47058 20.8259 7.50809 20.8259C7.52684 20.8259 7.56435 20.8259 7.58311 20.8259C7.77066 20.8068 7.95821 20.7687 8.16452 20.7305C8.18328 20.7305 8.18328 20.7305 8.20203 20.7305C8.23954 20.7305 8.27705 20.7115 8.31456 20.7115C8.91473 20.559 9.45864 20.273 9.90876 19.8917C10.04 19.7773 10.1713 19.682 10.2839 19.5485L17.7672 11.9414H12.6283C11.4092 11.9224 10.3214 12.4181 9.53366 13.2188Z" fill="#86754D"/>
<path d="M20.3367 7.91911V7.90004C20.3367 7.88098 20.3555 7.84285 20.3742 7.84285C21.0494 7.63313 23 7.42341 23 7.42341C23 7.42341 21.0494 7.28995 20.3742 7.08024C20.3555 7.08024 20.3367 7.0421 20.3367 7.02304V7.00397C20.4117 6.77519 21.0494 5.93632 21.0494 5.93632L20.0179 6.67986H19.9991C19.9616 6.67986 19.9429 6.6608 19.9429 6.62267C19.7366 5.57408 19.5865 3.62942 19.5865 3.61035C19.5865 3.62942 19.4552 5.57408 19.2302 6.62267C19.2302 6.64173 19.1927 6.67986 19.1739 6.67986H19.1551L18.1236 5.93632C18.1236 5.93632 18.7425 6.75613 18.8363 6.98491V7.00397C18.8363 7.02304 18.8175 7.06117 18.7988 7.06117C18.1236 7.27089 16.1543 7.42341 16.1543 7.42341C16.1543 7.42341 18.1048 7.63313 18.78 7.84285C18.7988 7.84285 18.8175 7.88098 18.8175 7.90004V7.91911C18.7425 8.14789 18.1048 8.9105 18.1048 8.9105L19.1551 8.26228H19.1739C19.2114 8.26228 19.2302 8.28135 19.2302 8.31948C19.4365 9.36807 19.5678 11.3127 19.5678 11.3318C19.5678 11.3127 19.7178 9.36807 19.9241 8.31948C19.9241 8.30041 19.9616 8.26228 19.9804 8.26228H19.9991L21.0307 8.9105C21.0307 8.9105 20.4117 8.14789 20.3367 7.91911Z" fill="#98694C"/>
</svg>
