<svg width="24" height="24" viewBox="0 0 24 24" fill="none" xmlns="http://www.w3.org/2000/svg">
<rect width="24" height="24" rx="12" fill="white"/>
<path d="M21.4879 14.4318C21.3035 14.0149 21.0372 13.6377 20.7709 13.3002C20.5047 12.9628 20.1564 12.665 19.8287 12.4268C19.6443 12.3077 19.46 12.2084 19.2551 12.1092C19.1527 12.0496 19.0503 12.0099 18.9479 11.9702C19.0503 11.9107 19.1527 11.871 19.2551 11.8114C19.4395 11.732 19.6238 11.6129 19.8287 11.4938C20.1564 11.2556 20.5047 10.9578 20.7709 10.6203C21.0372 10.3027 21.3035 9.90571 21.4879 9.48884C21.6723 9.05211 21.8156 8.61538 21.9181 8.13896C21.959 7.82134 22 7.48387 22 7.18611C22 7.04715 21.9795 6.88834 21.9795 6.72953C21.9385 6.3325 21.8566 5.95533 21.7132 5.55831C21.5903 5.16129 21.406 4.80397 21.1806 4.4665C20.9553 4.12903 20.6685 3.79156 20.3818 3.51365C20.0745 3.21588 19.7058 2.95782 19.3575 2.73946C18.9479 2.52109 18.5382 2.32258 18.0875 2.20347C17.6164 2.08437 17.1452 2.00496 16.6536 2.00496C16.162 1.98511 15.6909 2.02482 15.2402 2.12407C14.7896 2.22333 14.3799 2.38213 13.9907 2.6005C13.581 2.79901 13.2533 3.05707 12.946 3.33499C12.6592 3.61291 12.3929 3.95037 12.1881 4.30769C12.0037 4.68486 11.8603 5.06203 11.7784 5.47891C11.7374 5.69727 11.7169 5.91563 11.7169 6.13399C11.7169 6.31265 11.7374 6.47146 11.7579 6.66998C11.3482 6.45161 10.959 6.2531 10.5493 6.11415C10.0372 5.97519 9.50466 5.87593 8.91061 5.85608C8.35754 5.85608 7.84544 5.89578 7.35382 6.01489C6.88268 6.11415 6.45251 6.27296 6.02235 6.51117C5.61266 6.70968 5.24395 6.96774 4.89572 7.24566C4.64991 7.42432 4.4041 7.66253 4.17877 7.88089C4.17877 7.88089 3.83054 8.19851 3.64618 8.41687C3.46182 8.63523 3.27747 8.87345 3.05214 9.13151L2.60149 9.68735C2.47859 9.84616 2.35568 9.98511 2.21229 10.1439C2.02793 10.3424 1.82309 10.5608 1.61825 10.7593C1.2905 11.0769 0.921788 11.3945 0.512104 11.6328C0.450652 11.6923 0.368713 11.7519 0.266292 11.7916C0.225323 11.8313 0.163873 11.8511 0.102421 11.8908C0.0614525 11.9107 0 11.9504 0 12.0099C0 12.0695 0.0614525 12.0893 0.102421 12.129C0.163873 12.1489 0.225323 12.1687 0.266292 12.2084C0.368713 12.268 0.450652 12.3077 0.512104 12.3672C0.942272 12.6055 1.2905 12.9231 1.61825 13.2407C1.82309 13.4392 2.02793 13.6576 2.21229 13.8561C2.33519 13.995 2.4581 14.134 2.60149 14.3127L3.05214 14.8685C3.25698 15.1265 3.46182 15.3846 3.64618 15.5831C3.81005 15.7816 4.17877 16.1191 4.17877 16.1191C4.4041 16.3573 4.64991 16.5757 4.89572 16.7543C5.24395 17.0323 5.63315 17.3102 6.02235 17.4888C6.45251 17.7072 6.88268 17.8859 7.35382 17.9851C7.84544 18.1042 8.35754 18.1439 8.91061 18.1439C9.50466 18.1241 10.0372 18.0447 10.5493 17.8859C10.959 17.7667 11.3482 17.5682 11.7579 17.33C11.7374 17.5087 11.7169 17.6675 11.7169 17.866C11.7169 18.0844 11.7374 18.3027 11.7784 18.5211C11.8399 18.938 11.9832 19.3151 12.1881 19.6923C12.3929 20.0695 12.6592 20.3871 12.946 20.665C13.2533 20.9429 13.6015 21.2208 13.9907 21.3995C14.3799 21.598 14.7896 21.7767 15.2402 21.8759C15.6909 21.9752 16.162 22.0149 16.6536 21.995C17.1452 21.995 17.6164 21.9156 18.0875 21.7965C18.5382 21.6576 18.9479 21.4988 19.3575 21.2605C19.7058 21.0422 20.0745 20.7841 20.3818 20.4864C20.6685 20.2084 20.9553 19.871 21.1806 19.5335C21.3855 19.196 21.5903 18.8189 21.7132 18.4417C21.8566 18.0447 21.9385 17.6675 21.9795 17.2705C21.9795 17.1315 22 16.9727 22 16.8139C22 16.5161 21.959 16.1787 21.9181 15.861C21.8361 15.3052 21.6927 14.8685 21.4879 14.4318Z" fill="#F5C300"/>
<path d="M20.3 14.8883C20.1362 14.5111 19.8903 14.1935 19.6241 13.8958C19.3782 13.6178 19.03 13.3399 18.7023 13.1414C18.354 12.9429 17.9648 12.7642 17.5961 12.665C17.166 12.5459 16.7563 12.4863 16.3261 12.4863C15.855 12.4863 15.4043 12.526 14.9537 12.6451C14.6054 12.7245 14.2367 12.8436 13.909 13.0024C13.6017 13.1414 13.3149 13.3002 13.0486 13.5186C12.7823 13.6972 12.5365 13.8957 12.2907 14.0744C12.0654 14.2531 11.8196 14.4516 11.5738 14.5905C11.328 14.7493 11.0412 14.8685 10.7749 14.9876C10.4881 15.067 10.1604 15.1265 9.83262 15.1265C9.40245 15.1265 8.97228 15.0471 8.5626 14.8883C8.1734 14.7295 7.82517 14.4714 7.53839 14.1935C7.25161 13.9156 7.00581 13.5384 6.84193 13.1811C6.69854 12.7841 6.63709 12.3871 6.63709 11.99C6.63709 11.5732 6.69854 11.1762 6.84193 10.7791C7.00581 10.402 7.25161 10.0645 7.53839 9.76672C7.82517 9.48881 8.19389 9.23074 8.5626 9.07193C8.97228 8.91312 9.40245 8.83372 9.83262 8.83372C10.1604 8.83372 10.4881 8.89327 10.7749 8.97268C11.0412 9.07193 11.328 9.19104 11.5738 9.3697C11.8196 9.52851 12.0654 9.68732 12.2907 9.88583C12.5365 10.0645 12.7823 10.2828 13.0486 10.4417C13.3149 10.6402 13.6017 10.8188 13.909 10.9578C14.2367 11.1166 14.6054 11.2556 14.9537 11.3548C15.4043 11.4541 15.855 11.4938 16.3261 11.4938C16.7563 11.4938 17.166 11.4342 17.5961 11.3151C17.9853 11.2158 18.354 11.057 18.7023 10.8387C19.03 10.6402 19.3782 10.3623 19.6241 10.0843C19.8903 9.78657 20.1362 9.4491 20.3 9.09178C20.4639 8.69476 20.5868 8.29774 20.6278 7.88087C20.6892 7.42429 20.6688 6.98756 20.5868 6.53099C20.5049 6.11411 20.3615 5.73694 20.1362 5.33992C19.9518 5.00245 19.6855 4.66498 19.3987 4.38707C19.112 4.129 18.7637 3.87094 18.4155 3.69228C18.0468 3.51362 17.6576 3.37466 17.2479 3.29526C16.7972 3.21585 16.3876 3.17615 15.9369 3.23571C15.5067 3.27541 15.1175 3.39451 14.7283 3.57317C14.3801 3.75183 14.0319 3.99004 13.7656 4.26796C13.4993 4.54588 13.274 4.88334 13.1101 5.24066C12.9667 5.57813 12.8643 5.97516 12.8438 6.37218C12.8233 6.8089 12.8848 7.20593 13.0077 7.60295C13.0077 7.6625 13.0282 7.7022 13.0486 7.76176C13.0486 7.78161 13.0691 7.80146 13.0691 7.82131C13.0896 7.86101 13.0896 7.88086 13.1101 7.92056C13.1101 7.92056 13.1306 7.94042 13.1511 7.94042C13.192 7.94042 13.192 7.92057 13.192 7.90072C13.2125 7.84116 13.2125 7.78161 13.2125 7.72205C13.233 7.52354 13.2944 7.30518 13.3764 7.10667C13.5198 6.7692 13.7861 6.45158 14.1138 6.23322C14.4416 6.03471 14.8512 5.9156 15.2404 5.89575C15.6706 5.8759 16.1008 5.93545 16.49 6.13396C16.8382 6.29277 17.1455 6.59054 17.3298 6.90816C17.5142 7.22578 17.5961 7.64265 17.5961 8.03967C17.5961 8.45654 17.4732 8.83372 17.2684 9.19104C17.0635 9.52851 16.7358 9.82628 16.3671 9.98508C16.0188 10.1637 15.5682 10.2431 15.1585 10.2034C14.8717 10.1637 14.585 10.0843 14.3391 9.98508C14.0728 9.84613 13.8065 9.70716 13.5812 9.50865C13.3354 9.32999 13.0691 9.11163 12.8438 8.91312C12.598 8.71461 12.3112 8.4764 12.0654 8.29774C11.7786 8.07938 11.4714 7.88086 11.1846 7.72205C10.8568 7.54339 10.4881 7.40444 10.1399 7.28533C9.70972 7.18608 9.30003 7.12652 8.86986 7.12652C8.41921 7.12652 7.98905 7.14637 7.55888 7.24563C7.21065 7.32503 6.84193 7.44414 6.51418 7.64265C6.22741 7.78161 5.92015 7.98012 5.67434 8.19848C5.40804 8.41685 5.16223 8.65506 4.93691 8.89327C4.71158 9.13149 4.48625 9.4094 4.28141 9.66747C4.09705 9.90568 3.87173 10.1836 3.66688 10.4218C3.46204 10.66 3.21624 10.9181 2.99091 11.1364C2.76558 11.3747 2.49929 11.593 2.23299 11.7518C2.17154 11.7915 2.13057 11.8312 2.06912 11.8511C2.02815 11.8908 1.98718 11.8908 1.94622 11.9106C1.92573 11.9305 1.88477 11.9702 1.88477 12.0099C1.88477 12.0297 1.92573 12.0694 1.94622 12.0893C1.98718 12.1091 2.02815 12.129 2.06912 12.1489C2.13057 12.1687 2.17154 12.2084 2.23299 12.2481C2.49929 12.4069 2.76558 12.6451 2.99091 12.8635C3.21624 13.0819 3.46204 13.3399 3.66688 13.5781C3.87173 13.8163 4.09705 14.0943 4.28141 14.3523C4.48625 14.5905 4.71158 14.8685 4.93691 15.1067C5.16223 15.3449 5.40804 15.5831 5.67434 15.8015C5.92015 16 6.22741 16.2183 6.51418 16.3573C6.84193 16.5359 7.21065 16.6551 7.55888 16.7543C7.98905 16.8536 8.41921 16.8933 8.86986 16.8734C9.30003 16.8734 9.70972 16.8139 10.1399 16.7146C10.4881 16.6154 10.8568 16.4764 11.1846 16.2779C11.4714 16.1191 11.7786 15.9404 12.0654 15.7022C12.3112 15.5235 12.598 15.2853 12.8438 15.0868C13.0691 14.8883 13.3354 14.6699 13.5812 14.4913C13.8065 14.3126 14.0728 14.1737 14.3391 14.0347C14.585 13.9156 14.8717 13.8362 15.1585 13.8163C15.5682 13.7766 15.9984 13.8362 16.3671 14.0149C16.7563 14.1737 17.0635 14.4714 17.2684 14.8089C17.4732 15.1464 17.5961 15.5434 17.5961 15.9603C17.5961 16.3573 17.5142 16.7543 17.3298 17.1116C17.1455 17.4293 16.8382 17.7072 16.49 17.866C16.1008 18.0645 15.6706 18.124 15.2404 18.1042C14.8308 18.0843 14.4416 17.9652 14.1138 17.7667C13.7861 17.5484 13.5198 17.2307 13.3764 16.8933C13.2944 16.6948 13.233 16.4764 13.2125 16.2779C13.2125 16.2183 13.2125 16.1588 13.192 16.0992C13.192 16.0992 13.192 16.0595 13.1511 16.0595C13.1306 16.0595 13.1101 16.0794 13.1101 16.0992C13.0896 16.1191 13.0896 16.1389 13.0691 16.1786C13.0691 16.1985 13.0486 16.2183 13.0486 16.2382C13.0282 16.2977 13.0077 16.3374 13.0077 16.397C12.8848 16.794 12.8233 17.191 12.8438 17.6278C12.8643 18.0248 12.9667 18.402 13.1101 18.7593C13.274 19.1166 13.4788 19.4541 13.7656 19.7121C14.0319 20.0099 14.3801 20.2481 14.7283 20.4268C15.1175 20.6054 15.5067 20.7245 15.9369 20.7642C16.3876 20.8238 16.7972 20.8039 17.2479 20.7047C17.6576 20.6451 18.0263 20.5062 18.4155 20.3077C18.7637 20.129 19.112 19.8709 19.3987 19.6129C19.6855 19.335 19.9518 18.9975 20.1362 18.66C20.341 18.263 20.4844 17.8858 20.5868 17.4491C20.6688 17.0124 20.6892 16.5757 20.6278 16.1191C20.5868 15.6824 20.4639 15.2655 20.3 14.8883Z" fill="#370E62"/>
<path d="M14.1752 11.9704C14.1752 11.9505 14.1752 11.9307 14.1547 11.9307C13.6426 11.8116 13.1919 11.5337 12.7618 11.2359C12.3111 10.9381 11.9014 10.5808 11.4303 10.283C10.9796 10.0051 10.488 9.72721 9.93495 9.70736C9.4843 9.66766 9.05413 9.76691 8.66493 9.96543C8.3167 10.1441 8.00944 10.4419 7.82508 10.7793C7.62024 11.1168 7.51782 11.5337 7.51782 11.9505V11.9704C7.51782 12.3873 7.62024 12.7843 7.82508 13.1416C8.00944 13.4791 8.3167 13.7768 8.66493 13.9555C9.05413 14.154 9.4843 14.2533 9.93495 14.2334C10.488 14.1937 10.9796 13.9356 11.4303 13.6379C11.9014 13.3401 12.3111 12.9828 12.7618 12.685C13.1919 12.3873 13.6426 12.1093 14.1547 11.9902C14.1752 11.9902 14.1752 11.9704 14.1752 11.9704Z" fill="#B6007D"/>
</svg>
