<svg width="32" height="32" viewBox="0 0 32 32" fill="none" xmlns="http://www.w3.org/2000/svg">
<rect width="32" height="32" rx="16" fill="#EBEBEB"/>
<path d="M10.7188 20.4597C10.387 20.7915 10.3802 21.3805 10.7256 21.7259C11.0776 22.0712 11.6667 22.0644 11.9917 21.7394L16 17.7311L20.0016 21.7326C20.3401 22.0712 20.9224 22.0712 21.2677 21.7259C21.6131 21.3738 21.6131 20.7982 21.2745 20.4597L17.2729 16.4581L21.2745 12.4498C21.6131 12.1113 21.6198 11.529 21.2677 11.1837C20.9224 10.8384 20.3401 10.8384 20.0016 11.1769L16 15.1785L11.9917 11.1769C11.6667 10.8451 11.0709 10.8316 10.7256 11.1837C10.3802 11.529 10.387 12.1248 10.7188 12.4498L14.7203 16.4581L10.7188 20.4597Z" fill="#222222"/>
</svg>
