<svg width="18" height="18" viewBox="0 0 18 18" fill="none" xmlns="http://www.w3.org/2000/svg">
<g clip-path="url(#clip0_701_28961)">
<path d="M0 4C0 3.44772 0.447715 3 1 3H17C17.5523 3 18 3.44772 18 4V14C18 14.5523 17.5523 15 17 15H1C0.447716 15 0 14.5523 0 14V4Z" fill="#FF0000"/>
<path d="M0 4C0 3.44772 0.447715 3 1 3H9V9H0V4Z" fill="#000095"/>
<path d="M3.84994 6.15339L3.78745 6.36672L4.02244 6.4245L3.97744 6.26672L3.84994 6.15339ZM5.02243 6.26672L4.97743 6.4245L5.21243 6.36672L5.14993 6.15339L5.02243 6.26672ZM3.97744 5.7334L3.84994 5.84673L3.89744 6.00006L3.97744 5.7334Z" fill="white"/>
<path d="M3.89731 6L3.84995 6.15333L3.97708 6.26666L3.89731 6Z" fill="white"/>
<path d="M3.84999 5.84668L3.67749 6.00001L3.84999 6.15334L3.89749 6.00001L3.84999 5.84668ZM4.19998 6.46445L4.32748 6.57778L4.49998 6.53556L4.19998 6.46445ZM4.67248 6.57778L4.91247 6.63334L4.97747 6.42445L4.79998 6.46445L4.67248 6.57778Z" fill="white"/>
<path d="M4.80004 6.46438L4.97754 6.42438L5.02254 6.2666L4.80004 6.46438ZM4.02255 6.42438L4.08755 6.63326L4.32755 6.57771L4.20005 6.46438L4.02255 6.42438ZM4.50005 6.53549L4.67254 6.57771L4.80004 6.46438L4.50005 6.53549Z" fill="white"/>
<path d="M4.32744 6.57789L4.49994 6.73122L4.67243 6.57789L4.49994 6.53567L4.32744 6.57789ZM4.02244 5.57568L3.78745 5.63346L3.84994 5.84679L3.97744 5.73346L4.02244 5.57568ZM3.97744 6.26679L4.02244 6.42456L4.19994 6.46456L3.97744 6.26679ZM5.10243 6.00012L5.14993 5.84679L5.02243 5.73346L5.10243 6.00012Z" fill="white"/>
<path d="M4.19991 5.53516L4.02242 5.57516L3.97742 5.73293L4.19991 5.53516ZM5.0224 5.73293L4.9774 5.57516L4.79991 5.53516L5.0224 5.73293ZM5.1499 6.15293L5.3224 5.99959L5.1499 5.84626L5.1024 5.99959L5.1499 6.15293Z" fill="white"/>
<path d="M5.02254 5.73324L4.80004 5.53547L4.50004 5.46436L4.20005 5.53547L3.97755 5.73324L3.89755 5.9999L3.97755 6.26657L4.20005 6.46434L4.50004 6.53545L4.80004 6.46434L5.02254 6.26657L5.10254 5.9999L5.02254 5.73324Z" fill="white"/>
<path d="M5.02254 6.26669L5.15004 6.15336L5.10254 6.00002L5.02254 6.26669ZM5.15004 5.84669L5.21254 5.63336L4.97754 5.57559L5.02254 5.73336L5.15004 5.84669ZM4.97754 5.57559L4.91254 5.3667L4.67254 5.42225L4.80004 5.53559L4.97754 5.57559ZM4.32755 5.42225L4.08755 5.3667L4.02255 5.57559L4.20005 5.53559L4.32755 5.42225ZM4.50005 5.46448L4.32755 5.42225L4.20005 5.53559L4.50005 5.46448Z" fill="white"/>
<path d="M4.67251 5.42189L4.50001 5.26855L4.32751 5.42189L4.50001 5.46411L4.67251 5.42189Z" fill="white"/>
<path d="M4.79998 5.5357L4.67248 5.42236L4.49998 5.46458L4.79998 5.5357ZM4.32748 6.5779L4.08748 6.63346L4.19998 7.00234L4.49998 6.73124L4.32748 6.5779ZM4.19998 7.00234L4.49998 8.00011L4.79998 7.00234L4.49998 6.73124L4.19998 7.00234ZM4.02249 6.42457L3.78749 6.3668L3.67749 6.73124L4.08748 6.63346L4.02249 6.42457Z" fill="white"/>
<path d="M3.67753 6.73104L3.37754 7.73325L4.20003 7.00215L4.08753 6.63326L3.67753 6.73104ZM3.37754 6.2666L2.55005 7.00215L3.67753 6.73104L3.78753 6.3666L3.37754 6.2666Z" fill="white"/>
<path d="M3.84994 6.15329L3.67744 5.99996L3.37744 6.26663L3.78744 6.36662L3.84994 6.15329ZM3.84994 5.84663L3.78744 5.6333L3.37744 5.7333L3.67744 5.99996L3.84994 5.84663Z" fill="white"/>
<path d="M3.37749 5.7334L2.25 6.00006L3.37749 6.26672L3.67748 6.00006L3.37749 5.7334ZM5.62746 6.26672L5.21246 6.36672L5.32246 6.73116L6.44995 7.00227L5.62746 6.26672Z" fill="white"/>
<path d="M4.97746 6.42444L4.91246 6.63333L5.32246 6.7311L5.21246 6.36666L4.97746 6.42444ZM4.67247 6.57777L4.49997 6.7311L4.79997 7.00221L4.91246 6.63333L4.67247 6.57777ZM5.14996 6.15333L5.21246 6.36666L5.62745 6.26666L5.32246 6L5.14996 6.15333Z" fill="white"/>
<path d="M4.80002 7.00187L5.62751 7.73297L5.32251 6.73076L4.91252 6.63298L4.80002 7.00187ZM4.97752 5.57522L5.21251 5.63299L5.32251 5.26855L4.91252 5.36633L4.97752 5.57522Z" fill="white"/>
<path d="M5.62751 5.73325L6.45 5.00215L5.32251 5.26881L5.21251 5.63325L5.62751 5.73325ZM5.32251 5.26881L5.62751 4.2666L4.80002 5.00215L4.91252 5.36659L5.32251 5.26881ZM5.62751 6.26658L6.74999 5.99991L5.62751 5.73325L5.32251 5.99991L5.62751 6.26658Z" fill="white"/>
<path d="M5.14992 5.84658L5.32242 5.99991L5.62741 5.73325L5.21242 5.63325L5.14992 5.84658ZM4.19993 5.00215L3.37744 4.2666L3.67744 5.26881L4.08743 5.36659L4.19993 5.00215Z" fill="white"/>
<path d="M4.02249 5.57522L4.08748 5.36633L3.67749 5.26855L3.78749 5.63299L4.02249 5.57522Z" fill="white"/>
<path d="M3.67753 5.26862L2.55005 5.00195L3.37754 5.73305L3.78753 5.63306L3.67753 5.26862ZM4.67252 5.42195L4.91252 5.36639L4.80002 5.00195L4.50002 5.26862L4.67252 5.42195Z" fill="white"/>
<path d="M4.79991 5.00221L4.49992 4L4.19992 5.00221L4.49992 5.26887L4.79991 5.00221Z" fill="white"/>
<path d="M4.32752 5.42195L4.50002 5.26862L4.20002 5.00195L4.08752 5.36639L4.32752 5.42195Z" fill="white"/>
<path d="M4.49999 7.13583C5.20552 7.13583 5.77747 6.62743 5.77747 6.00029C5.77747 5.37315 5.20552 4.86475 4.49999 4.86475C3.79445 4.86475 3.2225 5.37315 3.2225 6.00029C3.2225 6.62743 3.79445 7.13583 4.49999 7.13583Z" fill="#000095"/>
<path d="M4.49998 7.00247C5.12268 7.00247 5.62747 6.55376 5.62747 6.00026C5.62747 5.44675 5.12268 4.99805 4.49998 4.99805C3.87729 4.99805 3.3725 5.44675 3.3725 6.00026C3.3725 6.55376 3.87729 7.00247 4.49998 7.00247Z" fill="white"/>
</g>
<defs>
<clipPath id="clip0_701_28961">
<rect y="3" width="18" height="12" rx="1" fill="white"/>
</clipPath>
</defs>
</svg>
