<svg width="24" height="24" viewBox="0 0 24 24" fill="none" xmlns="http://www.w3.org/2000/svg">
<path d="M15.7462 3.07422H8.26283C5.01229 3.07422 3.07446 5.01108 3.07446 8.26V15.7307C3.07446 18.9886 5.01229 20.9255 8.26283 20.9255H15.7373C18.9878 20.9255 20.9257 18.9886 20.9257 15.7397V8.26C20.9346 5.01108 18.9968 3.07422 15.7462 3.07422ZM17.0857 13.8296C17.05 13.9099 17.0054 13.9813 16.9429 14.0438L14.3085 16.6769C14.1745 16.8107 14.0049 16.8732 13.8352 16.8732C13.6655 16.8732 13.4959 16.8107 13.3619 16.6769C13.1029 16.418 13.1029 15.9896 13.3619 15.7307L14.8532 14.2402H7.5395C7.17336 14.2402 6.86974 13.9367 6.86974 13.5707C6.86974 13.2048 7.17336 12.9013 7.5395 12.9013H16.4696C16.5589 12.9013 16.6392 12.9192 16.7285 12.9549C16.8893 13.0263 17.0232 13.1512 17.0947 13.3208C17.1572 13.4815 17.1572 13.66 17.0857 13.8296ZM16.4696 11.0984H7.5395C7.4502 11.0984 7.36983 11.0805 7.28053 11.0448C7.11978 10.9734 6.98583 10.8484 6.91439 10.6788C6.84295 10.5182 6.84295 10.3307 6.91439 10.1701C6.95904 10.0898 7.00369 10.0184 7.0662 9.95587L9.70057 7.32281C9.95955 7.06397 10.3882 7.06397 10.6472 7.32281C10.9061 7.58166 10.9061 8.01009 10.6472 8.26893L9.15584 9.75951H16.4696C16.8357 9.75951 17.1393 10.063 17.1393 10.4289C17.1393 10.7949 16.8357 11.0984 16.4696 11.0984Z" fill="black"/>
</svg>
