<svg width="84" height="48" viewBox="0 0 84 48" fill="none" xmlns="http://www.w3.org/2000/svg">
<path d="M7.82643 20.3549V18.6246H0V25.1196H2.85417H7.82643V23.383H2.85417V22.6704H7.82643V21.0712H2.85417V20.3549H7.82643Z" fill="#139244"/>
<path d="M8.65015 18.6158H11.6762L13.2921 22.6464L14.924 18.6031H17.9183L15.0129 25.1183H11.564L8.65015 18.6158Z" fill="#139244"/>
<path d="M20.9445 22.5632L21.7062 20.9767L22.4605 22.5632H20.9445ZM23.6792 25.1234H26.6382L23.4257 18.6057H19.9781L16.74 25.1272H19.716L20.1596 24.2027H23.2417L23.6792 25.1234Z" fill="#139244"/>
<path d="M32.0431 22.5632L32.806 20.9767L33.5567 22.5632H32.0431ZM34.7779 25.1234H37.7393L34.5244 18.6057H31.0767L27.8386 25.1272H30.8122L31.2583 24.2027H34.3403L34.7779 25.1234Z" fill="#139244"/>
<path d="M41.6524 18.617H38.7312V25.1196H41.6524V18.617Z" fill="#139244"/>
<path d="M47.9958 21.1986H45.9606V20.2578H47.9958C48.0555 20.2578 48.1146 20.2699 48.1697 20.2936C48.2249 20.3172 48.275 20.3519 48.3172 20.3956C48.3594 20.4392 48.3929 20.4911 48.4157 20.5482C48.4386 20.6052 48.4503 20.6664 48.4503 20.7282C48.4503 20.79 48.4386 20.8511 48.4157 20.9082C48.3929 20.9653 48.3594 21.0171 48.3172 21.0608C48.275 21.1045 48.2249 21.1392 48.1697 21.1628C48.1146 21.1864 48.0555 21.1986 47.9958 21.1986ZM50.5136 22.1672C51.2558 22.1672 51.2448 21.2995 51.2448 21.2995V20.1771C51.2448 18.7507 49.7897 18.6157 49.7897 18.6157H43.0723V25.1158H45.9971V22.8722H47.9348C48.3358 22.8722 48.3297 23.2947 48.3297 23.2947V25.1158H51.2546V23.2947C51.2546 22.2466 50.5233 22.1672 50.5233 22.1672" fill="#139244"/>
<path d="M4.30931 31.5326H6.52611C6.05204 31.8138 5.56944 32.0724 5.07221 32.3133C4.79664 32.0763 4.54139 31.8151 4.30931 31.5326ZM7.52178 32.0295L7.15617 31.5326H8.15184V30.6813H2.1632V30.3383H7.34873V29.68H2.1632V29.3407H7.34873V28.671H2.1632V28.4264C2.1632 28.362 2.20098 28.3318 2.28507 28.3318H7.64731V27.4654H1.32596C1.16265 27.4654 1.08222 27.5347 1.08222 27.6659V30.6813H0.0475491V31.5326H0.974973V33.4899H0.012207L0.11214 34.4282C1.81831 34.3879 3.22589 34.2466 4.33856 34.0196L4.02901 33.1658C3.37925 33.3216 2.71727 33.4165 2.05108 33.4496V31.5326H3.04675C3.95345 32.7093 4.99665 33.5227 6.18731 33.9868C6.63823 34.1369 7.20248 34.2946 7.87398 34.4535L8.39802 33.5984C7.30973 33.4534 6.59314 33.2112 5.96064 32.8959C6.38596 32.6664 6.89172 32.3852 7.52178 32.0295Z" fill="#139244"/>
<path d="M34.1088 32.2805H37.2993V31.3888H29.8824V32.2805H33.0095V33.5164H29.4705V34.4661H37.7417V33.5164H34.1088V32.2805Z" fill="#139244"/>
<path d="M30.499 28.9623C30.499 28.8968 30.5344 28.8678 30.6038 28.8678H36.5852C36.6534 28.8678 36.69 28.8968 36.69 28.9623V29.7632H37.7259V28.1539C37.7161 28.043 37.6527 27.9812 37.5223 27.9812H34.11V27.4439H33.0034V27.9862H29.663C29.535 27.9862 29.4704 28.048 29.4644 28.159V29.7682H30.499V28.9623Z" fill="#139244"/>
<path d="M31.1607 30.0596H29.7141V30.9512H31.9553C32.1295 30.9501 32.2997 30.8967 32.4453 30.7975C32.5908 30.6984 32.7055 30.5577 32.7755 30.3925L33.3446 29.3079H32.1259L31.7542 29.8755C31.6518 30.0394 31.5665 30.0545 31.1619 30.0545" fill="#139244"/>
<path d="M33.8174 29.3155V30.3131C33.8174 30.7721 34.0709 30.95 34.5852 30.9537H37.4527V30.0583H35.2201C35.0921 30.0583 35.0251 30.0003 35.0251 29.878V29.3155H33.8174Z" fill="#139244"/>
<path d="M17.7928 27.8399L16.9398 27.5435C16.7969 27.9321 16.6121 28.3027 16.3889 28.6483L17.2347 28.9699C17.4664 28.6173 17.6543 28.236 17.7941 27.8349" fill="#139244"/>
<path d="M13.8723 27.9635C14.0263 28.2767 14.1523 28.6039 14.2488 28.9409L15.1373 28.7227C15.0322 28.3168 14.8756 27.9271 14.6717 27.5637L13.8308 27.8159L13.0557 27.5637C12.9127 27.9559 12.7305 28.3317 12.5122 28.6849L13.3653 29.0065C13.5664 28.6782 13.7381 28.3316 13.8784 27.9711" fill="#139244"/>
<path d="M11.2328 28.7127C11.0853 28.3089 10.8909 27.9252 10.6539 27.57L9.81299 27.8866C10.0328 28.2349 10.2158 28.6065 10.359 28.9952L11.2328 28.7127Z" fill="#139244"/>
<path d="M11.8993 29.4845C12.2609 29.7174 12.5859 29.9473 12.8743 30.1744H10.8366C11.2223 30.0008 11.5805 29.7682 11.8993 29.4845ZM15.397 29.883C15.5539 29.7686 15.6989 29.6375 15.8296 29.4921C16.2342 29.7254 16.5974 29.9549 16.9264 30.1744H14.8547C15.0443 30.0943 15.2266 29.9968 15.3994 29.883M18.0805 31.9539V30.3471C18.0732 30.2324 18.0099 30.1744 17.8831 30.1744H17.6174L17.9538 29.7683C17.3882 29.4209 16.8057 29.104 16.2086 28.8186C16.2461 28.6719 16.2709 28.5221 16.283 28.3709V27.4666H15.2971V28.3709C15.2971 28.7757 15.0533 29.1099 14.5549 29.3685C14.3655 29.467 14.166 29.5432 13.9602 29.5955L14.4476 30.1744H13.2813L13.7371 29.6699C13.2728 29.3584 12.8048 29.0746 12.3235 28.8148C12.3954 28.6334 12.4338 28.4396 12.4368 28.2435V27.4628H11.446V28.2435C11.445 28.4046 11.4067 28.563 11.3344 28.7056C11.2621 28.8482 11.1579 28.9709 11.0304 29.0633C10.755 29.3029 10.3516 29.4933 9.81173 29.6333L10.2139 30.1706H9.99332C9.87145 30.1706 9.79589 30.2286 9.78979 30.3433V31.9501H10.8379V31.1518C10.8379 31.09 10.8671 31.0546 10.9402 31.0546H13.4251V31.433H11.1718V32.2742H12.9182C11.9449 32.7522 10.9075 33.0753 9.84098 33.2327L10.2907 34.0802C11.24 33.9276 12.2613 33.5568 13.43 32.9451V34.4585H14.4671V32.9451C15.2349 33.4118 16.2549 33.7725 17.4627 34.0953L18.0525 33.2793C16.7717 33.0208 15.7102 32.7232 14.9534 32.2641H16.6961V31.4343H14.461V31.0559H16.9399C17.013 31.0559 17.0483 31.0912 17.0483 31.153V31.9513L18.0805 31.9539Z" fill="#139244"/>
<path d="M27.5484 33.3739C27.522 33.3782 27.495 33.3766 27.4692 33.3693C27.4434 33.362 27.4193 33.3491 27.3987 33.3314C27.3781 33.3138 27.3613 33.2918 27.3495 33.2669C27.3377 33.2421 27.3312 33.2149 27.3303 33.1872V29.6913V29.6333C27.33 29.5907 27.3137 29.5498 27.2848 29.5195C27.2559 29.4891 27.2167 29.4716 27.1755 29.4706H24.5273C24.4861 29.4716 24.4469 29.4891 24.4181 29.5195C24.3892 29.5498 24.3728 29.5907 24.3725 29.6333V33.1645C24.3734 33.1922 24.3687 33.2197 24.3588 33.2453C24.3488 33.2709 24.3337 33.2941 24.3145 33.3134C24.2954 33.3326 24.2725 33.3475 24.2474 33.357C24.2224 33.3666 24.1957 33.3706 24.169 33.3688H23.7644V34.4572C23.7644 34.4572 24.5322 34.4774 24.821 34.4106C24.821 34.4106 25.4157 34.3122 25.4304 33.2755V30.4593C25.4304 30.3975 25.4633 30.3685 25.5327 30.3685H26.1701C26.2323 30.3685 26.2676 30.3975 26.2676 30.4518V33.389V33.3979C26.2773 34.2517 26.8769 34.4144 26.8769 34.4144C27.1646 34.4812 27.9323 34.461 27.9323 34.461V33.3726H27.5484" fill="#139244"/>
<path d="M25.3206 27.4552V28.1577H23.74V29.0531H27.9347V28.1577H26.4028V27.4552H25.3206Z" fill="#139244"/>
<path d="M22.4386 29.7733C22.357 29.6547 22.279 29.5211 22.1949 29.3949C22.045 29.1705 21.9377 29.0166 21.8768 28.9258L21.1602 29.2234V28.8753C21.1602 28.8161 21.198 28.7833 21.2614 28.7833H22.3387C22.4057 28.7833 22.441 28.8161 22.441 28.8791L22.4386 29.7733ZM22.4386 30.3232L21.1578 30.4405V29.4202C21.4137 29.7985 21.5941 30.0898 21.7013 30.2765L22.4386 30.0243V30.3232ZM23.979 31.0458L23.8572 30.192L23.4769 30.2286V28.1678C23.4769 27.9761 23.3928 27.9156 23.2113 27.9156H22.2607C22.3021 27.7895 22.3423 27.6709 22.3826 27.5549L21.3747 27.2888C21.3126 27.5049 21.2343 27.7158 21.1407 27.9194H20.3681C20.1889 27.9194 20.1146 28.0089 20.1146 28.188V30.5401L19.5625 30.5905L19.7526 31.4431L20.106 31.4103C20.1056 32.3735 19.9406 33.329 19.6186 34.2328L20.7324 34.4434C21.0149 33.5762 21.1594 32.6672 21.1602 31.7521V31.3132L21.3844 31.2892V33.2062H22.2144V31.2135L22.441 31.1921V33.5127C22.441 33.5581 22.4094 33.5883 22.3496 33.6072C22.2899 33.6262 21.9755 33.5946 21.4588 33.5013L21.6245 34.4472C22.2826 34.4774 22.686 34.4863 22.8298 34.4724C22.9875 34.4481 23.1367 34.383 23.2637 34.2832C23.313 34.2422 23.3564 34.1942 23.3928 34.1407C23.4721 34.0625 23.4842 33.6072 23.4842 33.6072V31.0975L23.979 31.0458Z" fill="#139244"/>
<path d="M61.7388 15.879L53.9392 26.1916C54.4003 27.47 55.1824 28.5982 56.2048 29.4599C57.2273 30.3217 58.4532 30.8858 59.7563 31.0944C61.0595 31.3029 62.3928 31.1483 63.619 30.6464C64.8452 30.1445 65.92 29.3135 66.7328 28.2389C67.5455 27.1643 68.0668 25.885 68.243 24.5326C68.4192 23.1802 68.244 21.8037 67.7353 20.5447C67.2266 19.2857 66.4029 18.1898 65.3489 17.3697C64.2949 16.5497 63.0488 16.0351 61.7388 15.879Z" fill="white"/>
<path d="M74.6302 12.6L67.2742 34.4509H68.6488L76 12.6H74.6302Z" fill="#DE5511"/>
<path d="M63.7754 18.1491C64.3798 18.8572 64.8618 19.6678 65.2 20.5453C65.7682 20.3277 66.3208 20.069 66.8538 19.771C66.2677 18.7746 65.4585 17.9388 64.4944 17.3344C64.2869 17.6327 64.0455 17.9041 63.7754 18.1428" fill="white"/>
<path d="M65.7446 23.388H67.8651C67.8461 22.1942 67.5403 21.024 66.9755 19.9829C66.431 20.2878 65.8661 20.552 65.2852 20.7736C65.5766 21.612 65.7318 22.4946 65.7446 23.3855" fill="white"/>
<path d="M63.7827 28.8942C64.0469 29.1312 64.2841 29.3986 64.4896 29.6913C65.4567 29.0831 66.269 28.2442 66.8587 27.2446C66.3299 26.9473 65.7814 26.6894 65.2171 26.4728C64.881 27.3602 64.3953 28.1788 63.7827 28.8905" fill="white"/>
<path d="M56.719 26.1638C57.308 25.9492 57.9117 25.7805 58.5251 25.6594C58.4087 24.9895 58.3476 24.3107 58.3423 23.6301" fill="white"/>
<path d="M63.6255 29.0784C63.0267 29.7319 62.3264 30.2771 61.5537 30.6914C62.5127 30.599 63.4421 30.2982 64.2811 29.8086C64.0884 29.5413 63.8686 29.2961 63.6255 29.0771" fill="white"/>
<path d="M58.0096 28.8993C57.3957 28.1885 56.9107 27.3691 56.5776 26.4804C56.0119 26.6961 55.4617 26.9532 54.9312 27.2497C55.5162 28.2544 56.33 29.0957 57.3015 29.7001C57.505 29.4042 57.7428 29.1353 58.0096 28.8993Z" fill="white"/>
<path d="M57.5039 29.8174C58.3445 30.3007 59.2728 30.5983 60.2301 30.6914C59.4604 30.2767 58.7627 29.7325 58.1657 29.0809C57.919 29.2999 57.697 29.5469 57.5039 29.8174Z" fill="white"/>
<path d="M63.6157 17.9587C63.8673 17.7386 64.0924 17.4879 64.286 17.2121C63.4423 16.7221 62.5085 16.4213 61.5452 16.3293C62.3187 16.7486 63.0189 17.2989 63.6169 17.9574" fill="white"/>
<path d="M60.7736 19.2312C60.3208 19.2192 59.8726 19.1341 59.4452 18.979C59.1627 19.6816 58.9488 20.4116 58.8066 21.1583C59.4567 21.2717 60.1144 21.332 60.7736 21.3386V19.2312Z" fill="white"/>
<path d="M62.4763 18.6738C62.8162 18.5314 63.1366 18.3436 63.4293 18.1151C62.8171 17.4414 62.0936 16.8862 61.2929 16.4756L61.2808 16.4882C61.7523 17.1721 62.153 17.9056 62.4763 18.6763" fill="white"/>
<path d="M60.7736 27.7895V25.6783C60.1143 25.6877 59.4567 25.7496 58.8066 25.8637C58.946 26.6104 59.1571 27.3409 59.4367 28.0442C59.8683 27.8892 60.3205 27.8041 60.7773 27.792" fill="white"/>
<path d="M59.5317 28.2712C59.8647 29.0619 60.2808 29.8121 60.7724 30.5086V28.0392C60.3497 28.05 59.9313 28.1283 59.5317 28.2712Z" fill="white"/>
<path d="M61.0063 30.5149C61.5015 29.8163 61.92 29.063 62.2543 28.2687C61.8521 28.1264 61.4313 28.0486 61.0063 28.0379V30.5149Z" fill="white"/>
<path d="M62.5725 28.1287C62.9404 28.2819 63.2861 28.4868 63.5999 28.7379C64.196 28.048 64.6678 27.253 64.9928 26.3908C64.413 26.1862 63.8201 26.0235 63.2184 25.904C63.0725 26.6653 62.8562 27.4103 62.5725 28.1287Z" fill="white"/>
<path d="M61.2612 30.5754C62.0761 30.1626 62.8135 29.6032 63.439 28.9232C63.1458 28.6898 62.8236 28.4981 62.4811 28.3532C62.1508 29.1358 61.7424 29.8806 61.2625 30.5754" fill="white"/>
<path d="M63.0257 21.3966C62.3584 21.5143 61.6832 21.5771 61.0063 21.5845V23.388H63.2C63.1942 22.7202 63.1347 22.0541 63.0221 21.3966" fill="white"/>
<path d="M63.2646 25.6581C63.8774 25.782 64.4809 25.9506 65.0707 26.1626C65.3483 25.352 65.4965 24.5001 65.5095 23.6402H63.4377C63.4321 24.3193 63.3726 24.9967 63.2598 25.6657" fill="white"/>
<path d="M63.2037 23.6352H61.01V25.4361C61.686 25.4403 62.3605 25.5015 63.0269 25.619C63.1407 24.9642 63.2007 24.3005 63.2061 23.6352" fill="white"/>
<path d="M61.0063 27.7895C61.4628 27.8047 61.9145 27.8897 62.3469 28.0417C62.6246 27.3394 62.8372 26.6114 62.9818 25.8675C62.3282 25.7521 61.6669 25.6901 61.0039 25.6821L61.0063 27.7895Z" fill="white"/>
<path d="M60.7737 25.4349V23.6352H58.5801C58.5846 24.3013 58.6438 24.9658 58.7568 25.6215C59.4223 25.5028 60.096 25.4404 60.7713 25.4349" fill="white"/>
<path d="M59.2174 28.1313C58.93 27.4138 58.712 26.6686 58.5666 25.9066C57.9642 26.0245 57.3708 26.1872 56.791 26.3934C57.1176 27.2569 57.5915 28.0528 58.1901 28.7429C58.5028 28.49 58.8487 28.2845 59.2174 28.1325" fill="white"/>
<path d="M58.3508 28.9233C58.9745 29.6025 59.7104 30.1612 60.5238 30.5729C60.0436 29.8796 59.6351 29.1361 59.3051 28.3545C58.9634 28.5006 58.6415 28.6918 58.3472 28.9233" fill="white"/>
<path d="M63.4426 23.388H65.5082C65.495 22.5274 65.3439 21.675 65.061 20.8657C64.4731 21.0762 63.8711 21.2419 63.2598 21.3613C63.3741 22.0323 63.4352 22.7118 63.4426 23.393" fill="white"/>
<path d="M64.9782 20.6311C64.6494 19.7771 64.1806 18.9882 63.5926 18.2992C63.2784 18.5448 62.9357 18.7486 62.5725 18.9058C62.8542 19.621 63.07 20.362 63.2172 21.1192C63.8146 21.0021 64.4032 20.8407 64.9782 20.6361" fill="white"/>
<path d="M60.7737 21.5833C60.0993 21.5769 59.4264 21.5145 58.7617 21.3966C58.6472 22.0539 58.5873 22.7201 58.5825 23.388H60.7762L60.7737 21.5833Z" fill="white"/>
<path d="M62.3493 18.9865C61.9175 19.1406 61.4654 19.2257 61.0088 19.2388V21.3386C61.6714 21.3296 62.3323 21.2672 62.9855 21.152C62.8392 20.4115 62.6271 19.6866 62.3518 18.9865" fill="white"/>
<path d="M65.2925 26.2458C65.8704 26.4654 66.4321 26.7284 66.9731 27.0328C67.5391 25.9948 67.8457 24.8269 67.8651 23.6352H65.7458C65.7361 24.5254 65.5829 25.4078 65.2925 26.2458Z" fill="white"/>
<path d="M61.7339 15.879H61.74C63.0504 16.0348 64.297 16.5492 65.3514 17.3693C66.4059 18.1894 67.23 19.2855 67.739 20.5448C68.248 21.8041 68.4234 23.181 68.2473 24.5337C68.0711 25.8865 67.5497 27.1662 66.7367 28.2411C65.9237 29.3161 64.8486 30.1473 63.622 30.6492C62.3954 31.1512 61.0616 31.3058 59.7581 31.097C58.4546 30.8882 57.2285 30.3236 56.2059 29.4614C55.1833 28.5992 54.4013 27.4705 53.9404 26.1916L47.6946 34.4535H66.5185L73.8745 12.6H63.7594L47.2437 34.4509H47.6946L53.9404 26.1891" fill="#139244"/>
<path d="M66.9731 27.0328C66.4322 26.728 65.8705 26.4646 65.2925 26.2445C65.5828 25.406 65.736 24.5233 65.7459 23.6327H67.8652C67.8468 24.8269 67.5401 25.9975 66.9731 27.0378M64.4894 29.6888C64.2833 29.3974 64.0462 29.1309 63.7826 28.8942C64.3956 28.1817 64.8809 27.3617 65.2158 26.4728C65.7801 26.6885 66.3291 26.9452 66.8586 27.2409C66.2698 28.2405 65.4572 29.0788 64.4894 29.685M61.5524 30.6864C62.3258 30.2733 63.0263 29.7279 63.6242 29.0733C63.8678 29.2922 64.0873 29.5384 64.2786 29.8073C63.4398 30.2975 62.5103 30.5984 61.5512 30.6901M62.4798 28.3519C62.8203 28.4996 63.1417 28.6907 63.4365 28.9207C62.8119 29.601 62.0753 30.1609 61.2611 30.5741C61.7393 29.8782 62.1476 29.1336 62.4798 28.3519ZM61.0052 28.0379C61.4294 28.0473 61.8496 28.1252 62.2507 28.2687C61.9182 29.0634 61.5004 29.8168 61.0052 30.5148V28.0379ZM60.7736 30.5085C60.2806 29.8129 59.8641 29.0625 59.5318 28.2712C59.9318 28.1283 60.3506 28.05 60.7736 28.0392V30.5085ZM58.3472 28.9232C58.6433 28.6922 58.9669 28.5014 59.31 28.3557C59.6384 29.1378 60.047 29.8811 60.5287 30.5729C59.7144 30.1609 58.9774 29.6023 58.3521 28.9232M57.5075 29.8187C57.7003 29.5475 57.9223 29.3 58.1693 29.0809C58.766 29.7323 59.4638 30.2758 60.2338 30.6889C59.2767 30.5969 58.3484 30.3006 57.5075 29.8187ZM56.5777 26.4829C56.9117 27.3687 57.3958 28.1857 58.0072 28.8955C57.7439 29.1344 57.5072 29.403 57.3016 29.6963C56.3302 29.0945 55.5163 28.2553 54.9312 27.2522C55.4612 26.9547 56.0115 26.6976 56.5777 26.4829ZM56.2828 23.6327H58.3472C58.3516 24.3128 58.4128 24.9913 58.53 25.6606C57.9161 25.7829 57.3116 25.9515 56.7215 26.1651C56.4404 25.3524 56.2922 24.497 56.2828 23.6339M58.7652 21.3966C59.4288 21.5146 60.1004 21.577 60.7736 21.5833V23.388H58.58C58.5854 22.72 58.6465 22.0537 58.7628 21.3966M59.4416 18.979C59.8697 19.1331 60.3181 19.2181 60.7712 19.2312V21.3361C60.1112 21.3285 59.4528 21.2682 58.8018 21.1557C58.9463 20.4104 59.1606 19.6813 59.4416 18.979ZM62.3457 18.9865C62.6234 19.6855 62.8348 20.4107 62.977 21.1519C62.3251 21.2676 61.6654 21.33 61.004 21.3386V19.2337C61.4606 19.2204 61.9126 19.1353 62.3445 18.9815M63.5888 18.2929C64.1769 18.9824 64.6457 19.7717 64.9745 20.626C64.3996 20.8308 63.811 20.9918 63.2135 21.1078C63.0658 20.3549 62.8512 19.6178 62.5724 18.9058C62.9359 18.7512 63.2787 18.549 63.5925 18.3042M61.5438 16.3305C62.5073 16.4219 63.4413 16.7227 64.2847 17.2133C64.0917 17.4931 63.8662 17.7473 63.6132 17.97C63.0165 17.3096 62.316 16.7587 61.5414 16.3406M66.85 19.7823C66.3184 20.0773 65.7669 20.3323 65.1999 20.5453C64.859 19.6663 64.3764 18.8536 63.7728 18.1415C64.0455 17.9053 64.2879 17.6341 64.4943 17.3344C65.4587 17.9394 66.2681 18.7761 66.8537 19.7735M63.4414 23.3893C63.4361 22.7082 63.3745 22.0289 63.2573 21.3588C63.8685 21.2388 64.4705 21.0731 65.0586 20.8631C65.3438 21.6719 65.495 22.5246 65.5058 23.3855L63.4414 23.3893ZM63.261 25.6594C63.376 24.9907 63.4363 24.3131 63.4414 23.6339H65.5058C65.495 24.4939 65.3472 25.3461 65.0683 26.1563C64.4783 25.9436 63.8743 25.7751 63.261 25.6518M63.2159 25.8977C63.8185 26.0152 64.412 26.1784 64.9915 26.3858C64.6673 27.2512 64.1959 28.0495 63.5998 28.7429C63.2854 28.4912 62.9399 28.2842 62.5724 28.1275C62.8577 27.4106 63.0736 26.6662 63.2171 25.9053M61.0064 25.6808C61.6694 25.6869 62.3309 25.7484 62.9843 25.8649C62.8397 26.6102 62.6267 27.3395 62.3482 28.043C61.9167 27.8873 61.4644 27.8022 61.0076 27.7907L61.0064 25.6808ZM59.2161 28.1287C58.8477 28.2843 58.5017 28.4914 58.1876 28.7442C57.5916 28.053 57.1187 27.2579 56.791 26.3959C57.3698 26.1884 57.9624 26.0244 58.5641 25.9053C58.7105 26.6666 58.9285 27.4113 59.2149 28.1287M58.8018 25.8674C59.4528 25.7504 60.1117 25.6875 60.7724 25.6795V27.7882C60.3158 27.8012 59.8637 27.8863 59.4319 28.0404C59.1543 27.3369 58.9422 26.6076 58.7981 25.8624M63.1976 23.6276C63.1939 24.2945 63.1352 24.9599 63.0221 25.6165C62.3547 25.4965 61.6789 25.4332 61.0015 25.4273V23.6327L63.1976 23.6276ZM61.004 21.5782C61.6798 21.5725 62.3539 21.5093 63.0197 21.389C63.1362 22.0469 63.1966 22.7141 63.2001 23.383H61.0064L61.004 21.5782ZM58.5824 23.6327H60.7761V25.4323C60.1009 25.4413 59.4273 25.5045 58.7616 25.6215C58.6502 24.9647 58.5911 24.2995 58.5849 23.6327M67.8676 23.388H65.7459C65.7342 22.4962 65.5777 21.6129 65.2828 20.7749C65.865 20.5564 66.4301 20.2921 66.9731 19.9841C67.5387 21.0251 67.8452 22.1952 67.8652 23.3893M61.7388 15.879L61.5719 16.0972L61.4403 16.275L61.4086 16.3154L61.2867 16.4718C62.0876 16.8815 62.8108 17.4368 63.4218 18.1113C63.1298 18.3402 62.8098 18.5281 62.47 18.67C62.1481 17.8991 61.7481 17.1656 61.277 16.4819L61.1246 16.6811C61.5647 17.3326 61.9407 18.028 62.247 18.757C61.8456 18.8983 61.4255 18.9744 61.0015 18.9827V16.8388L60.7688 17.1578V18.9853C60.356 18.9725 59.9473 18.8964 59.5562 18.7595C59.5562 18.7595 59.4002 18.9651 59.4002 18.9651L58.9883 19.5074C58.8132 20.0322 58.6723 20.5686 58.5666 21.1129C58.3375 21.07 58.1132 21.0183 57.8902 20.9628L57.7342 21.1759C57.9975 21.2478 58.2619 21.302 58.5252 21.3613C58.409 22.0316 58.3478 22.7108 58.3423 23.3918H56.2779V23.0941L55.8672 23.6364H56.0329C56.0461 24.5276 56.1992 25.4106 56.4863 26.2508C55.9087 26.4725 55.3468 26.7355 54.8045 27.0378C54.5834 26.6314 54.4025 26.203 54.2646 25.759L54.1098 25.9746L53.9429 26.1928C54.4042 27.4713 55.1864 28.5995 56.2091 29.4611C57.2318 30.3227 58.4579 30.8867 59.7612 31.095C61.0645 31.3033 62.3979 31.1483 63.624 30.6461C64.8502 30.1438 65.9249 29.3125 66.7374 28.2375C67.5499 27.1626 68.0709 25.883 68.2467 24.5305C68.4225 23.178 68.2467 21.8014 67.7376 20.5425C67.2284 19.2836 66.4042 18.1879 65.3498 17.3682C64.2954 16.5486 63.049 16.0345 61.7388 15.879Z" fill="#DE5511"/>
<path d="M61.6171 25.2293L63.372 26.0667L62.5421 24.2242L64.8052 23.6491V23.3754L62.5421 22.7915L63.4037 20.9098L61.6073 21.7851L61.0443 18.4493H60.7335L60.1778 21.78L58.3876 20.9098L59.2321 22.7965L56.9751 23.3754V23.6453L59.2321 24.2103L58.4144 26.0705L60.1754 25.2394L60.7274 28.5714L61.0358 28.5676L61.6171 25.2293Z" fill="white"/>
<path d="M60.9005 18.6372L61.4855 22.0386L63.0588 21.2667L62.3129 22.8999L64.676 23.5091L62.3129 24.117L63.0332 25.7148L61.4855 24.9834L60.8859 28.3519L60.3033 24.9834L58.7592 25.7161L59.4685 24.117L57.1116 23.5091L59.4685 22.8999L58.7336 21.2667L60.3033 22.0373L60.9005 18.6372Z" fill="#139244"/>
</svg>
