<svg width="258" height="86" viewBox="0 0 258 86" fill="none" xmlns="http://www.w3.org/2000/svg">
<rect width="258" height="86" rx="12" fill="white"/>
<path d="M53.8934 42.7625C53.9175 40.8964 54.4146 39.0667 55.3383 37.4436C56.2621 35.8205 57.5826 34.4568 59.1769 33.4794C58.1641 32.037 56.8279 30.8499 55.2746 30.0125C53.7212 29.1751 51.9935 28.7104 50.2285 28.6553C46.4636 28.2612 42.8136 30.9019 40.895 30.9019C38.9394 30.9019 35.9855 28.6945 32.8046 28.7597C30.7471 28.826 28.7419 29.4226 26.9845 30.4915C25.227 31.5603 23.7771 33.0649 22.7761 34.8586C18.44 42.3449 21.6743 53.3473 25.828 59.3987C27.9061 62.3619 30.3349 65.6719 33.5129 65.5545C36.6228 65.4259 37.7842 63.577 41.5381 63.577C45.2571 63.577 46.3468 65.5545 49.5893 65.4799C52.9263 65.4259 55.0288 62.5035 57.0341 59.5123C58.5272 57.4009 59.6762 55.0673 60.4385 52.5981C58.4997 51.7804 56.8453 50.4117 55.6814 48.6627C54.5175 46.9136 53.8956 44.8616 53.8934 42.7625Z" fill="black"/>
<path d="M47.7689 24.6754C49.5884 22.4972 50.4848 19.6976 50.2678 16.8711C47.488 17.1622 44.9203 18.4871 43.0762 20.5816C42.1746 21.6048 41.484 22.7953 41.044 24.0848C40.604 25.3743 40.4232 26.7377 40.5119 28.0969C41.9023 28.1112 43.2778 27.8107 44.5348 27.218C45.7919 26.6253 46.8977 25.756 47.7689 24.6754Z" fill="black"/>
<path d="M91.2039 58.3505H80.9985L78.5477 65.5669H74.2251L83.8915 38.8682H88.3825L98.0489 65.5669H93.6526L91.2039 58.3505ZM82.0555 55.0205H90.1449L86.1571 43.3089H86.0454L82.0555 55.0205Z" fill="black"/>
<path d="M118.924 55.8346C118.924 61.8836 115.677 65.77 110.778 65.77C109.537 65.8347 108.302 65.5496 107.216 64.9473C106.13 64.345 105.236 63.4499 104.636 62.3644H104.543V72.0058H100.537V46.1008H104.415V49.3384H104.489C105.116 48.2581 106.025 47.3676 107.12 46.7616C108.214 46.1557 109.453 45.8569 110.704 45.8971C115.658 45.8972 118.924 49.8024 118.924 55.8346ZM114.806 55.8346C114.806 51.8937 112.763 49.3027 109.647 49.3027C106.586 49.3027 104.527 51.9482 104.527 55.8346C104.527 59.7567 106.586 62.3833 109.647 62.3833C112.763 62.3833 114.806 59.8113 114.806 55.8346H114.806Z" fill="black"/>
<path d="M140.41 55.8346C140.41 61.8836 137.162 65.77 132.263 65.77C131.022 65.8347 129.787 65.5496 128.701 64.9473C127.615 64.345 126.721 63.4499 126.121 62.3644H126.029V72.0058H122.022V46.1008H125.9V49.3384H125.974C126.601 48.2581 127.51 47.3676 128.605 46.7616C129.699 46.1557 130.938 45.8569 132.189 45.8971C137.144 45.8972 140.41 49.8024 140.41 55.8346ZM136.291 55.8346C136.291 51.8937 134.248 49.3027 131.132 49.3027C128.071 49.3027 126.012 51.9482 126.012 55.8346C126.012 59.7567 128.071 62.3833 131.132 62.3833C134.248 62.3833 136.291 59.8113 136.291 55.8346Z" fill="black"/>
<path d="M154.608 58.1278C154.905 60.7754 157.484 62.5138 161.009 62.5138C164.386 62.5138 166.816 60.7753 166.816 58.3881C166.816 56.3157 165.35 55.0749 161.88 54.2245L158.41 53.391C153.494 52.2068 151.212 49.914 151.212 46.1935C151.212 41.587 155.237 38.4229 160.952 38.4229C166.611 38.4229 170.49 41.587 170.62 46.1935H166.575C166.333 43.5291 164.125 41.9208 160.897 41.9208C157.669 41.9208 155.461 43.548 155.461 45.9164C155.461 47.8039 156.871 48.9146 160.322 49.7649L163.272 50.4871C168.765 51.7826 171.045 53.983 171.045 57.8883C171.045 62.8832 167.058 66.0116 160.712 66.0116C154.774 66.0116 150.765 62.9567 150.506 58.1276L154.608 58.1278Z" fill="black"/>
<path d="M179.697 41.4941V46.1007H183.409V49.2648H179.697V59.9959C179.697 61.663 180.441 62.4398 182.072 62.4398C182.513 62.4322 182.953 62.4013 183.39 62.3474V65.4926C182.657 65.6293 181.911 65.6912 181.165 65.6774C177.213 65.6774 175.672 64.1971 175.672 60.422V49.2648H172.833V46.1007H175.672V41.4941H179.697Z" fill="black"/>
<path d="M185.557 55.8345C185.557 49.7099 189.174 45.8613 194.815 45.8613C200.475 45.8613 204.075 49.7098 204.075 55.8345C204.075 61.9758 200.494 65.8076 194.815 65.8076C189.139 65.8076 185.557 61.9758 185.557 55.8345ZM199.993 55.8345C199.993 51.6332 198.062 49.1535 194.815 49.1535C191.568 49.1535 189.638 51.6521 189.638 55.8345C189.638 60.0526 191.568 62.5133 194.815 62.5133C198.062 62.5133 199.993 60.0526 199.993 55.8345H199.993Z" fill="black"/>
<path d="M207.378 46.1006H211.199V49.4138H211.292C211.551 48.379 212.159 47.4646 213.014 46.8241C213.869 46.1836 214.919 45.8562 215.987 45.8969C216.449 45.8953 216.91 45.9453 217.36 46.046V49.7833C216.777 49.6057 216.169 49.5241 215.56 49.5419C214.978 49.5183 214.398 49.6207 213.859 49.8419C213.32 50.0631 212.836 50.3979 212.439 50.8234C212.043 51.2488 211.743 51.7549 211.561 52.3067C211.379 52.8585 211.319 53.4431 211.385 54.0203V65.5661H207.378L207.378 46.1006Z" fill="black"/>
<path d="M235.833 59.8489C235.294 63.3826 231.843 65.8076 227.428 65.8076C221.749 65.8076 218.225 62.0136 218.225 55.9269C218.225 49.8212 221.768 45.8613 227.259 45.8613C232.66 45.8613 236.056 49.5608 236.056 55.4628V56.8318H222.269V57.0732C222.206 57.7896 222.296 58.5113 222.533 59.1904C222.771 59.8694 223.151 60.4903 223.647 61.0118C224.144 61.5333 224.746 61.9434 225.414 62.2149C226.082 62.4865 226.8 62.6133 227.521 62.5868C228.467 62.6753 229.418 62.4566 230.23 61.9633C231.042 61.47 231.673 60.7284 232.028 59.8489L235.833 59.8489ZM222.288 54.0393H232.047C232.083 53.3952 231.985 52.7506 231.76 52.146C231.534 51.5414 231.185 50.9898 230.736 50.5259C230.286 50.062 229.745 49.6958 229.147 49.4502C228.549 49.2047 227.906 49.0851 227.259 49.0989C226.607 49.095 225.96 49.2201 225.356 49.4668C224.753 49.7134 224.204 50.0769 223.742 50.5363C223.279 50.9956 222.913 51.5416 222.664 52.1429C222.414 52.7441 222.287 53.3887 222.288 54.0393V54.0393Z" fill="black"/>
<path d="M81.5528 18.7714C82.3929 18.7113 83.2358 18.8378 84.0208 19.1419C84.8059 19.446 85.5135 19.92 86.0925 20.5298C86.6716 21.1396 87.1078 21.87 87.3695 22.6682C87.6313 23.4664 87.7121 24.3126 87.6062 25.1458C87.6062 29.2442 85.3849 31.6001 81.5528 31.6001H76.906V18.7714H81.5528ZM78.9041 29.7858H81.3297C81.9299 29.8216 82.5306 29.7235 83.088 29.4986C83.6454 29.2736 84.1456 28.9276 84.552 28.4856C84.9584 28.0437 85.2608 27.5169 85.4373 26.9437C85.6138 26.3704 85.6599 25.7652 85.5722 25.1719C85.6535 24.5811 85.6028 23.9795 85.4236 23.4105C85.2444 22.8415 84.9411 22.319 84.5357 21.8806C84.1302 21.4421 83.6325 21.0985 83.0782 20.8744C82.524 20.6503 81.9268 20.5512 81.3297 20.5843H78.9041V29.7858Z" fill="black"/>
<path d="M89.8639 26.7547C89.8029 26.1184 89.8759 25.4765 90.0782 24.8701C90.2805 24.2636 90.6077 23.706 91.0388 23.2331C91.4699 22.7601 91.9954 22.3822 92.5815 22.1236C93.1676 21.865 93.8014 21.7314 94.4424 21.7314C95.0833 21.7314 95.7171 21.865 96.3033 22.1236C96.8894 22.3822 97.4148 22.7601 97.8459 23.2331C98.277 23.706 98.6042 24.2636 98.8065 24.8701C99.0088 25.4765 99.0818 26.1184 99.0208 26.7547C99.083 27.3915 99.0109 28.0343 98.8091 28.6418C98.6073 29.2492 98.2803 29.8078 97.8491 30.2817C97.4179 30.7556 96.8921 31.1343 96.3054 31.3934C95.7186 31.6526 95.0841 31.7865 94.4424 31.7865C93.8007 31.7865 93.1661 31.6526 92.5794 31.3934C91.9927 31.1343 91.4668 30.7556 91.0356 30.2817C90.6044 29.8078 90.2774 29.2492 90.0757 28.6418C89.8739 28.0343 89.8017 27.3915 89.8639 26.7547ZM97.05 26.7547C97.05 24.6561 96.1046 23.4289 94.4455 23.4289C92.7801 23.4289 91.8432 24.6561 91.8432 26.7547C91.8432 28.87 92.7801 30.0878 94.4455 30.0878C96.1047 30.0878 97.05 28.8616 97.05 26.7547H97.05Z" fill="black"/>
<path d="M111.192 31.5993H109.204L107.198 24.469H107.046L105.048 31.5993H103.079L100.403 21.918H102.346L104.086 29.3054H104.229L106.225 21.918H108.063L110.059 29.3054H110.211L111.941 21.918H113.857L111.192 31.5993Z" fill="black"/>
<path d="M116.108 21.9181H117.953V23.456H118.096C118.339 22.9037 118.748 22.4406 119.268 22.1314C119.787 21.8223 120.39 21.6823 120.993 21.7312C121.465 21.6958 121.94 21.7668 122.381 21.939C122.822 22.1112 123.218 22.3802 123.541 22.726C123.864 23.0718 124.105 23.4856 124.245 23.9367C124.386 24.3879 124.423 24.8647 124.353 25.332V31.5993H122.437V25.8118C122.437 24.256 121.759 23.4823 120.342 23.4823C120.022 23.4674 119.701 23.5218 119.404 23.6419C119.106 23.7619 118.838 23.9447 118.618 24.1777C118.398 24.4108 118.231 24.6885 118.128 24.9919C118.026 25.2954 117.99 25.6173 118.024 25.9357V31.5994H116.108L116.108 21.9181Z" fill="black"/>
<path d="M127.406 18.1387H129.322V31.5993H127.406V18.1387Z" fill="black"/>
<path d="M131.986 26.7548C131.925 26.1186 131.998 25.4766 132.2 24.8701C132.403 24.2637 132.73 23.7061 133.161 23.2331C133.592 22.7601 134.118 22.3822 134.704 22.1236C135.29 21.865 135.924 21.7314 136.565 21.7314C137.206 21.7314 137.84 21.865 138.426 22.1236C139.012 22.3822 139.538 22.7601 139.969 23.2331C140.4 23.7061 140.727 24.2637 140.929 24.8701C141.132 25.4766 141.205 26.1186 141.144 26.7548C141.206 27.3917 141.134 28.0346 140.932 28.642C140.73 29.2494 140.403 29.808 139.972 30.2819C139.541 30.7558 139.015 31.1344 138.428 31.3936C137.841 31.6527 137.207 31.7866 136.565 31.7866C135.923 31.7866 135.289 31.6527 134.702 31.3936C134.115 31.1344 133.589 30.7558 133.158 30.2819C132.727 29.808 132.4 29.2494 132.198 28.642C131.996 28.0346 131.924 27.3917 131.986 26.7548ZM139.172 26.7548C139.172 24.6563 138.227 23.4291 136.568 23.4291C134.902 23.4291 133.965 24.6563 133.965 26.7549C133.965 28.8702 134.902 30.088 136.568 30.088C138.227 30.088 139.172 28.8618 139.172 26.7548H139.172Z" fill="black"/>
<path d="M143.161 28.8617C143.161 27.119 144.462 26.1144 146.772 25.9716L149.401 25.8204V24.9848C149.401 23.9623 148.723 23.3849 147.414 23.3849C146.344 23.3849 145.603 23.7765 145.39 24.4609H143.535C143.731 22.798 145.3 21.7314 147.502 21.7314C149.936 21.7314 151.309 22.9397 151.309 24.9848V31.5996H149.465V30.2391H149.313C149.005 30.7271 148.573 31.1249 148.061 31.392C147.549 31.6591 146.974 31.7857 146.397 31.7591C145.989 31.8014 145.577 31.758 145.188 31.6318C144.798 31.5056 144.439 31.2994 144.134 31.0264C143.829 30.7534 143.585 30.4197 143.417 30.0469C143.25 29.6741 143.162 29.2703 143.161 28.8617ZM149.401 28.0344V27.2251L147.031 27.3762C145.694 27.4655 145.087 27.919 145.087 28.7725C145.087 29.6438 145.845 30.1508 146.887 30.1508C147.193 30.1817 147.501 30.1509 147.795 30.0604C148.088 29.9699 148.36 29.8215 148.594 29.6241C148.829 29.4266 149.021 29.1841 149.16 28.911C149.298 28.638 149.381 28.3398 149.401 28.0344Z" fill="black"/>
<path d="M153.827 26.7545C153.827 23.6953 155.404 21.7574 157.857 21.7574C158.463 21.7295 159.066 21.8744 159.593 22.1752C160.12 22.476 160.55 22.9202 160.834 23.4559H160.977V18.1387H162.893V31.5993H161.057V30.0697H160.905C160.6 30.6018 160.155 31.0405 159.617 31.3382C159.08 31.6359 158.471 31.7814 157.857 31.7588C155.387 31.7589 153.827 29.8209 153.827 26.7545ZM155.806 26.7545C155.806 28.8079 156.777 30.0435 158.4 30.0435C160.015 30.0435 161.013 28.79 161.013 26.7629C161.013 24.7451 160.004 23.4738 158.4 23.4738C156.787 23.4738 155.806 24.7178 155.806 26.7545H155.806Z" fill="black"/>
<path d="M170.821 26.7547C170.76 26.1184 170.833 25.4765 171.035 24.8701C171.237 24.2636 171.565 23.706 171.996 23.2331C172.427 22.7601 172.952 22.3822 173.538 22.1236C174.124 21.865 174.758 21.7314 175.399 21.7314C176.04 21.7314 176.674 21.865 177.26 22.1236C177.846 22.3822 178.372 22.7601 178.803 23.2331C179.234 23.706 179.561 24.2636 179.763 24.8701C179.966 25.4765 180.039 26.1184 179.978 26.7547C180.04 27.3915 179.968 28.0343 179.766 28.6418C179.564 29.2492 179.237 29.8078 178.806 30.2817C178.375 30.7556 177.849 31.1343 177.262 31.3934C176.675 31.6526 176.041 31.7865 175.399 31.7865C174.757 31.7865 174.123 31.6526 173.536 31.3934C172.949 31.1343 172.424 30.7556 171.992 30.2817C171.561 29.8078 171.234 29.2492 171.032 28.6418C170.831 28.0343 170.759 27.3915 170.821 26.7547ZM178.007 26.7547C178.007 24.6561 177.061 23.4289 175.402 23.4289C173.737 23.4289 172.8 24.6561 172.8 26.7547C172.8 28.87 173.737 30.0878 175.402 30.0878C177.061 30.0878 178.007 28.8616 178.007 26.7547Z" fill="black"/>
<path d="M182.548 21.9181H184.392V23.456H184.535C184.778 22.9037 185.188 22.4406 185.707 22.1314C186.226 21.8223 186.83 21.6823 187.432 21.7312C187.905 21.6958 188.379 21.7668 188.82 21.939C189.261 22.1112 189.658 22.3802 189.981 22.726C190.303 23.0718 190.544 23.4856 190.685 23.9367C190.825 24.3879 190.862 24.8647 190.793 25.332V31.5993H188.877V25.8118C188.877 24.256 188.199 23.4823 186.782 23.4823C186.461 23.4674 186.141 23.5218 185.843 23.6419C185.546 23.7619 185.277 23.9447 185.057 24.1777C184.837 24.4108 184.67 24.6885 184.568 24.9919C184.465 25.2954 184.43 25.6173 184.464 25.9357V31.5994H182.548V21.9181Z" fill="black"/>
<path d="M201.621 19.5078V21.9623H203.724V23.5716H201.621V28.5498C201.621 29.5639 202.04 30.008 202.994 30.008C203.238 30.0072 203.482 29.9925 203.724 29.9639V31.5554C203.38 31.6167 203.031 31.6494 202.682 31.653C200.551 31.653 199.703 30.9055 199.703 29.039V23.5715H198.161V21.9622H199.703V19.5078H201.621Z" fill="black"/>
<path d="M206.341 18.1387H208.24V23.4738H208.391C208.646 22.9162 209.067 22.4506 209.597 22.1402C210.127 21.8299 210.739 21.69 211.352 21.7395C211.822 21.714 212.291 21.7922 212.728 21.9686C213.164 22.145 213.555 22.4152 213.875 22.76C214.194 23.1047 214.433 23.5154 214.575 23.9629C214.717 24.4104 214.758 24.8836 214.695 25.3487V31.5993H212.777V25.8201C212.777 24.2737 212.055 23.4906 210.701 23.4906C210.372 23.4636 210.041 23.5088 209.731 23.6228C209.421 23.7369 209.14 23.9171 208.907 24.1509C208.674 24.3847 208.495 24.6664 208.383 24.9763C208.271 25.2862 208.228 25.6168 208.257 25.945V31.5992H206.341L206.341 18.1387Z" fill="black"/>
<path d="M225.867 28.9848C225.607 29.8696 225.043 30.6349 224.273 31.147C223.504 31.659 222.579 31.8851 221.66 31.7856C221.02 31.8025 220.385 31.6803 219.797 31.4276C219.21 31.1749 218.684 30.7978 218.258 30.3223C217.831 29.8469 217.513 29.2845 217.326 28.6743C217.139 28.0641 217.088 27.4206 217.175 26.7886C217.09 26.1546 217.143 25.5097 217.329 24.8977C217.515 24.2856 217.832 23.7207 218.256 23.2411C218.681 22.7615 219.203 22.3784 219.789 22.1178C220.375 21.8572 221.01 21.7252 221.652 21.7306C224.353 21.7306 225.983 23.571 225.983 26.6111V27.2778H219.127V27.3849C219.097 27.7402 219.142 28.0978 219.259 28.4348C219.375 28.7718 219.561 29.0808 219.805 29.3419C220.048 29.603 220.344 29.8106 220.672 29.9512C221.001 30.0918 221.355 30.1624 221.713 30.1584C222.171 30.2133 222.635 30.131 223.047 29.922C223.458 29.713 223.798 29.3867 224.022 28.9847L225.867 28.9848ZM219.127 25.8648H224.031C224.055 25.5398 224.011 25.2135 223.901 24.9066C223.791 24.5998 223.618 24.3192 223.393 24.083C223.168 23.8469 222.896 23.6602 222.594 23.5351C222.292 23.4101 221.968 23.3493 221.641 23.3568C221.31 23.3526 220.981 23.4147 220.674 23.5393C220.367 23.6638 220.088 23.8484 219.854 24.0822C219.619 24.3159 219.434 24.594 219.31 24.9002C219.185 25.2063 219.123 25.5343 219.127 25.8648H219.127Z" fill="black"/>
</svg>
