<svg width="290" height="86" viewBox="0 0 290 86" fill="none" xmlns="http://www.w3.org/2000/svg">
<rect width="290" height="86" rx="12" fill="white"/>
<path d="M101.866 22.0157C101.901 22.8042 101.777 23.5916 101.5 24.3306C101.223 25.0696 100.8 25.7449 100.255 26.3157C99.6447 26.9463 98.9083 27.4408 98.0939 27.7668C97.2795 28.0929 96.4055 28.2431 95.5291 28.2077C94.6476 28.2274 93.7715 28.0658 92.9549 27.733C92.1383 27.4001 91.3986 26.9031 90.7817 26.2727C89.5299 24.9912 88.8291 23.2703 88.8291 21.4782C88.8291 19.6861 89.5299 17.9652 90.7817 16.6837C91.7387 15.7478 92.9507 15.1158 94.2654 14.8672C95.5802 14.6185 96.9391 14.7643 98.1713 15.2862C98.9459 15.6049 99.6368 16.0978 100.191 16.7267L99.052 17.8662C98.6254 17.3519 98.0849 16.9442 97.4734 16.6754C96.8618 16.4067 96.1961 16.2844 95.5291 16.3182C94.687 16.324 93.8593 16.5362 93.1181 16.9362C92.3769 17.3361 91.7449 17.9117 91.2772 18.6125C90.8096 19.3134 90.5206 20.1182 90.4356 20.9567C90.3505 21.7952 90.4719 22.6417 90.7892 23.4224C91.1064 24.203 91.6099 24.894 92.2556 25.4349C92.9014 25.9759 93.6696 26.3503 94.4933 26.5254C95.3169 26.7006 96.1709 26.6711 96.9806 26.4397C97.7903 26.2082 98.531 25.7818 99.138 25.1977C99.7941 24.4777 100.175 23.5485 100.212 22.5747H95.5291V21.0267H101.78C101.829 21.3543 101.858 21.6846 101.866 22.0157Z" fill="black" stroke="black" stroke-width="0.411304" stroke-miterlimit="10"/>
<path d="M111.705 16.6408H105.905V20.7258H111.189V22.2738H105.905V26.3588H111.705V27.9498H104.229V15.0498H111.705V16.6408Z" fill="black" stroke="black" stroke-width="0.411304" stroke-miterlimit="10"/>
<path d="M118.75 27.9498H117.096V16.6408H113.487V15.0498H122.445V16.6408H118.75V27.9498Z" fill="black" stroke="black" stroke-width="0.411304" stroke-miterlimit="10"/>
<path d="M128.76 27.9498V15.0498H130.414V27.9498H128.76Z" fill="black" stroke="black" stroke-width="0.411304" stroke-miterlimit="10"/>
<path d="M137.761 27.9498H136.107V16.6408H132.499V15.0498H141.349V16.6408H137.761V27.9498Z" fill="black" stroke="black" stroke-width="0.411304" stroke-miterlimit="10"/>
<path d="M158.125 26.2732C157.505 26.8947 156.768 27.3877 155.957 27.7241C155.146 28.0604 154.277 28.2336 153.399 28.2336C152.522 28.2336 151.652 28.0604 150.842 27.7241C150.031 27.3877 149.294 26.8947 148.674 26.2732C147.459 24.9812 146.783 23.2741 146.783 21.5002C146.783 19.7263 147.459 18.0193 148.674 16.7272C149.281 16.0882 150.015 15.5839 150.829 15.2469C151.643 14.9099 152.519 14.7476 153.399 14.7707C154.279 14.7568 155.152 14.9232 155.965 15.2597C156.777 15.5961 157.513 16.0956 158.125 16.7272C158.743 17.3561 159.229 18.1024 159.553 18.9222C159.878 19.742 160.035 20.6186 160.016 21.5002C160.044 22.3829 159.891 23.2621 159.566 24.0831C159.24 24.9041 158.75 25.6495 158.125 26.2732ZM149.898 25.1982C150.356 25.6623 150.901 26.0309 151.502 26.2824C152.103 26.534 152.748 26.6635 153.399 26.6635C154.051 26.6635 154.696 26.534 155.297 26.2824C155.898 26.0309 156.443 25.6623 156.901 25.1982C157.828 24.1901 158.342 22.8702 158.342 21.5002C158.342 20.1302 157.828 18.8103 156.901 17.8022C156.443 17.3381 155.898 16.9695 155.297 16.718C154.696 16.4665 154.051 16.3369 153.399 16.3369C152.748 16.3369 152.103 16.4665 151.502 16.718C150.901 16.9695 150.356 17.3381 149.898 17.8022C148.971 18.8103 148.457 20.1302 148.457 21.5002C148.457 22.8702 148.971 24.1901 149.898 25.1982Z" fill="black" stroke="black" stroke-width="0.411304" stroke-miterlimit="10"/>
<path d="M162.357 27.9498V15.0498H164.355L170.628 25.0903V22.5963V15.0498H172.282V27.9498H170.563L164.011 17.4363V19.9088V27.9498H162.357Z" fill="black" stroke="black" stroke-width="0.411304" stroke-miterlimit="10"/>
<path d="M146.375 46.7622C144.565 46.7665 142.797 47.3078 141.294 48.3178C139.792 49.3277 138.622 50.7609 137.933 52.4361C137.245 54.1113 137.068 55.9533 137.425 57.7291C137.782 59.505 138.658 61.1349 139.941 62.4128C141.223 63.6907 142.856 64.5592 144.632 64.9084C146.408 65.2576 148.248 65.0719 149.918 64.3748C151.589 63.6776 153.015 62.5004 154.017 60.9918C155.019 59.4833 155.552 57.7112 155.547 55.8997C155.565 54.6913 155.339 53.4917 154.884 52.3723C154.429 51.253 153.753 50.2367 152.897 49.3842C152.041 48.5316 151.023 47.8601 149.902 47.4097C148.782 46.9592 147.582 46.739 146.375 46.7622ZM146.375 61.4467C145.265 61.5244 144.158 61.2662 143.198 60.7058C142.237 60.1454 141.467 59.3087 140.987 58.3044C140.508 57.3001 140.341 56.1747 140.51 55.0745C140.678 53.9742 141.173 52.9501 141.93 52.1352C142.688 51.3202 143.672 50.7522 144.757 50.5049C145.841 50.2576 146.974 50.3425 148.01 50.7485C149.045 51.1545 149.935 51.8629 150.563 52.7816C151.19 53.7003 151.528 54.7867 151.53 55.8997C151.565 56.605 151.458 57.31 151.216 57.9732C150.974 58.6365 150.602 59.2445 150.121 59.7615C149.641 60.2785 149.062 60.694 148.418 60.9834C147.775 61.2728 147.08 61.4304 146.375 61.4467ZM126.354 46.7622C124.544 46.7665 122.776 47.3078 121.274 48.3178C119.771 49.3277 118.601 50.7609 117.913 52.4361C117.224 54.1113 117.047 55.9533 117.404 57.7291C117.762 59.505 118.637 61.1349 119.92 62.4128C121.203 63.6907 122.835 64.5592 124.611 64.9084C126.387 65.2576 128.227 65.0719 129.897 64.3748C131.568 63.6776 132.994 62.5004 133.996 60.9918C134.998 59.4833 135.531 57.7112 135.527 55.8997C135.544 54.6913 135.318 53.4917 134.863 52.3723C134.408 51.253 133.732 50.2367 132.876 49.3842C132.02 48.5316 131.002 47.8601 129.881 47.4097C128.761 46.9592 127.561 46.739 126.354 46.7622ZM126.354 61.4467C125.245 61.5244 124.138 61.2662 123.177 60.7058C122.216 60.1454 121.446 59.3087 120.966 58.3044C120.487 57.3001 120.321 56.1747 120.489 55.0745C120.657 53.9742 121.152 52.9501 121.909 52.1352C122.667 51.3202 123.652 50.7522 124.736 50.5049C125.82 50.2576 126.954 50.3425 127.989 50.7485C129.025 51.1545 129.914 51.8629 130.542 52.7816C131.17 53.7003 131.507 54.7867 131.51 55.8997C131.544 56.605 131.437 57.31 131.195 57.9732C130.953 58.6365 130.581 59.2445 130.101 59.7615C129.62 60.2785 129.041 60.694 128.398 60.9834C127.754 61.2728 127.059 61.4304 126.354 61.4467ZM102.552 49.5787V53.4487H111.832C111.687 55.2715 110.93 56.9915 109.684 58.3292C108.753 59.2785 107.634 60.0216 106.398 60.5105C105.162 60.9993 103.837 61.2231 102.51 61.1672C99.7748 61.1672 97.1522 60.08 95.2184 58.1446C93.2847 56.2092 92.1984 53.5843 92.1984 50.8472C92.1984 48.1102 93.2847 45.4853 95.2184 43.5499C97.1522 41.6145 99.7748 40.5272 102.51 40.5272C105.131 40.4882 107.663 41.4847 109.555 43.3007L112.284 40.5702C111.003 39.3028 109.483 38.3039 107.812 37.632C106.141 36.9601 104.353 36.6287 102.552 36.6572C100.643 36.5828 98.7377 36.8951 96.9514 37.5752C95.1652 38.2554 93.5345 39.2894 92.1571 40.6154C90.7796 41.9414 89.6838 43.5321 88.9353 45.2921C88.1868 47.0521 87.801 48.9452 87.801 50.858C87.801 52.7708 88.1868 54.6639 88.9353 56.4239C89.6838 58.1839 90.7796 59.7746 92.1571 61.1006C93.5345 62.4266 95.1652 63.4606 96.9514 64.1408C98.7377 64.8209 100.643 65.1331 102.552 65.0587C104.39 65.1322 106.222 64.8158 107.929 64.1303C109.636 63.4448 111.178 62.4057 112.455 61.0812C114.711 58.601 115.913 55.339 115.807 51.9867C115.814 51.1799 115.75 50.374 115.613 49.5787H102.552ZM199.885 52.5887C199.325 50.9391 198.277 49.4987 196.881 48.4583C195.485 47.4178 193.805 46.8264 192.066 46.7622C190.891 46.7599 189.728 46.9989 188.649 47.4643C187.57 47.9297 186.597 48.6117 185.792 49.4681C184.987 50.3245 184.365 51.3371 183.966 52.4434C183.568 53.5496 183.4 54.726 183.473 55.8997C183.455 57.8624 184.071 59.7783 185.231 61.3613C186.39 62.9443 188.03 64.1095 189.905 64.6828C191.781 65.2561 193.791 65.2067 195.637 64.5421C197.482 63.8775 199.062 62.6332 200.143 60.9952L197.028 58.8452C196.564 59.6198 195.905 60.2595 195.118 60.7007C194.33 61.142 193.441 61.3695 192.538 61.3607C191.607 61.3992 190.686 61.1549 189.897 60.6599C189.107 60.1649 188.485 59.4424 188.113 58.5872L200.336 53.5347L199.885 52.5887ZM187.426 55.6417C187.382 54.9739 187.472 54.3041 187.691 53.6715C187.909 53.0389 188.251 52.4563 188.697 51.9578C189.143 51.4592 189.684 51.0548 190.289 50.7681C190.893 50.4814 191.548 50.3183 192.216 50.2882C192.908 50.246 193.598 50.409 194.197 50.7571C194.797 51.1051 195.281 51.6226 195.589 52.2447L187.426 55.6417ZM177.501 64.4997H181.518V37.6247H177.501V64.4997ZM170.928 48.8047H170.778C170.178 48.1207 169.437 47.5745 168.606 47.2034C167.776 46.8324 166.875 46.6452 165.966 46.6547C163.618 46.7687 161.405 47.7822 159.783 49.4854C158.162 51.1885 157.258 53.4507 157.258 55.803C157.258 58.1553 158.162 60.4174 159.783 62.1206C161.405 63.8237 163.618 64.8373 165.966 64.9512C166.877 64.9695 167.78 64.7863 168.612 64.4146C169.444 64.043 170.183 63.4921 170.778 62.8012H170.928V64.1127C170.928 67.6172 169.059 69.4877 166.052 69.4877C165.047 69.4656 164.072 69.1452 163.249 68.5672C162.427 67.9892 161.795 67.1796 161.433 66.2412L157.953 67.6817C158.597 69.2991 159.715 70.6829 161.161 71.6503C162.607 72.6177 164.313 73.1231 166.052 73.0997C170.756 73.0997 174.644 70.3262 174.644 63.5752V47.2997H170.928V48.8047ZM166.31 61.4467C164.902 61.3589 163.581 60.7374 162.615 59.7088C161.65 58.6802 161.112 57.3219 161.112 55.9105C161.112 54.4991 161.65 53.1408 162.615 52.1122C163.581 51.0836 164.902 50.4621 166.31 50.3742C166.997 50.4039 167.672 50.5719 168.294 50.868C168.916 51.1641 169.472 51.5823 169.929 52.0978C170.386 52.6134 170.734 53.2156 170.954 53.8688C171.174 54.5219 171.26 55.2126 171.207 55.8997C171.266 56.5892 171.184 57.2834 170.967 57.9404C170.75 58.5974 170.402 59.2035 169.944 59.722C169.486 60.2405 168.928 60.6607 168.303 60.9571C167.679 61.2536 167 61.4202 166.31 61.4467ZM218.703 37.6247H209.079V64.4997H213.096V54.3087H218.703C219.848 54.3911 220.997 54.2364 222.08 53.8545C223.162 53.4726 224.155 52.8715 224.995 52.0888C225.835 51.3062 226.505 50.3586 226.963 49.3053C227.421 48.252 227.658 47.1155 227.658 45.9667C227.658 44.8179 227.421 43.6814 226.963 42.6281C226.505 41.5748 225.835 40.6273 224.995 39.8446C224.155 39.0619 223.162 38.4609 222.08 38.079C220.997 37.697 219.848 37.5424 218.703 37.6247ZM218.703 50.5247H213.096V41.3657H218.789C219.392 41.3657 219.99 41.4847 220.548 41.716C221.106 41.9472 221.613 42.2861 222.039 42.7133C222.466 43.1406 222.805 43.6478 223.036 44.206C223.267 44.7642 223.386 45.3625 223.386 45.9667C223.386 46.5709 223.267 47.1692 223.036 47.7275C222.805 48.2857 222.466 48.7929 222.039 49.2201C221.613 49.6474 221.106 49.9863 220.548 50.2175C219.99 50.4487 219.392 50.5677 218.789 50.5677L218.703 50.5247ZM243.492 46.6762C242.03 46.586 240.572 46.9268 239.301 47.6567C238.03 48.3865 237 49.4733 236.339 50.7827L239.884 52.2662C240.242 51.62 240.779 51.0913 241.431 50.7441C242.083 50.3969 242.821 50.246 243.557 50.3097C244.067 50.2501 244.584 50.2928 245.077 50.4351C245.57 50.5775 246.03 50.8168 246.43 51.139C246.83 51.4612 247.162 51.8599 247.406 52.3119C247.651 52.7638 247.803 53.2599 247.853 53.7712V54.0292C246.561 53.3497 245.124 52.9954 243.664 52.9972C239.841 52.9972 235.931 55.1472 235.931 59.0602C235.969 59.892 236.173 60.7076 236.532 61.4587C236.891 62.2098 237.397 62.881 238.02 63.4325C238.644 63.984 239.371 64.4046 240.16 64.6691C240.949 64.9337 241.782 65.037 242.612 64.9727C243.62 65.0285 244.625 64.815 245.523 64.3541C246.421 63.8932 247.181 63.2014 247.724 62.3497H247.853V64.4997H251.72V54.1582C251.72 49.4497 248.154 46.7192 243.578 46.7192L243.492 46.6762ZM242.998 61.4037C241.688 61.4037 239.862 60.7372 239.862 59.1247C239.862 56.9747 242.139 56.2437 244.158 56.2437C245.435 56.2122 246.696 56.5241 247.81 57.1467C247.675 58.3143 247.122 59.3934 246.253 60.1841C245.384 60.9747 244.258 61.4233 243.084 61.4467L242.998 61.4037ZM265.812 47.2997L261.215 58.9527H261.086L256.317 47.2997H252.021L259.174 63.5967L255.092 72.6482H259.281L270.28 47.2997H265.812ZM229.723 64.4997H233.718V37.6247H229.723V64.4997Z" fill="black"/>
<path d="M22.9398 70.3677C22.0893 69.943 21.6641 68.8811 21.6641 67.8193C21.6641 67.6068 21.6641 67.1821 21.6641 66.9697C21.6641 51.2541 21.6641 35.5384 21.6641 20.0351C21.6641 19.1856 21.8767 18.5485 22.0893 17.699C22.302 17.2742 22.7272 16.8495 23.1525 16.4248C32.2952 25.5568 41.2254 34.6888 50.1556 43.821C41.0128 52.3158 32.0827 61.2356 22.9398 70.3677Z" fill="black"/>
<path d="M59.0855 34.4765C56.534 37.025 53.7699 39.5735 51.2185 42.3343C42.7135 33.627 33.9959 24.9197 25.491 16.2123C25.491 16.2123 25.491 16 25.7036 16C36.7601 22.1588 47.8164 28.3177 59.0855 34.4765Z" fill="black"/>
<path d="M25.491 70.3676C33.9959 61.8727 42.7135 53.3778 51.2185 44.8828C53.5573 47.2189 56.1088 49.5551 58.8729 52.1035C47.8164 58.2624 36.7601 64.4212 25.7036 70.3676H25.491Z" fill="black"/>
<path d="M60.3624 51.2542C57.5982 48.7057 55.0468 46.1572 52.2827 43.6088C55.0468 40.8479 57.811 38.087 60.575 35.3262C61.4255 35.7509 62.276 36.1757 63.1265 36.8127C65.2527 38.0871 67.5916 39.1489 69.7179 40.4231C70.3558 40.6355 70.781 41.0603 71.2061 41.6973C72.0567 42.7592 72.0567 43.8212 71.2061 44.883C70.781 45.3077 70.3558 45.7325 69.7179 45.9449C66.7411 47.8562 63.5518 49.5553 60.3624 51.2542Z" fill="black"/>
<path opacity="0.12" d="M22.426 69.4876C21.736 68.6348 21.3979 67.5502 21.4808 66.4561V66.7786C21.4077 67.8759 21.7706 68.9577 22.4905 69.7886L22.6408 69.6381L22.426 69.4876Z" fill="black"/>
<path opacity="0.25" d="M26.8733 16.3823L68.7407 40.2043C69.3124 40.4592 69.8164 40.8448 70.2119 41.3303C70.6074 41.8158 70.8834 42.3875 71.0177 42.9993C70.9514 42.326 70.7048 41.6831 70.3041 41.1383C69.9034 40.5934 69.3633 40.1668 68.7407 39.9033L26.8733 16.0813C23.8874 14.3613 21.417 15.7803 21.417 19.2203V19.5428C21.4814 16.1028 23.8874 14.6838 26.8733 16.3823Z" fill="white"/>
</svg>
